<?xml version="1.0" encoding="UTF-8"?><svg id="Layer_2" xmlns="http://www.w3.org/2000/svg" viewBox="0 0 542.44 113.25"><defs><style>.cls-1{fill:#01bcd4;}.cls-2{fill:#03a9f4;}.cls-3{fill:#019688;}.cls-4{fill:#ff5722;}.cls-5{fill:#fff;}.cls-6{fill:#ffeb3b;}.cls-7{fill:#f44336;}.cls-8{fill:#efc64a;}.cls-9{fill:#ffc107;}.cls-10{fill:#e91e63;}.cls-11{fill:#ff9801;}.cls-12{fill:#673ab7;}.cls-13{fill:#8bc34a;}.cls-14{fill:#cddc39;}.cls-15{fill:#2196f3;}.cls-16{fill:#3f51b5;}.cls-17{fill:#9c27b0;}.cls-18{fill:#2d2d2d;}.cls-19{fill:#378fe9;}.cls-20{fill:#4caf50;}.cls-21{fill:#404040;}.cls-21,.cls-22,.cls-23{stroke-miterlimit:10;}.cls-21,.cls-23{stroke:#378fe9;}.cls-22{stroke:#626262;stroke-width:.38px;}.cls-22,.cls-23{fill:none;}.cls-23{stroke-width:.5px;}</style></defs><g id="Labels"><g id="Top"><g><polygon class="cls-21" points=".5 .5 .5 88.48 541.44 88.48 541.44 29 88.44 29 88.44 .5 .5 .5"/><g><path class="cls-8" d="M16.22,18.71v3.44h-6.63v-1.01h.97V11.15h-.97v-1.01h3.21v1.01h-1.01v9.99h3.33l.41-2.43h.68Z"/><path class="cls-8" d="M17.84,16.86v-1.57h.22c.13,.02,.23,.02,.29,.02,.07,0,.18-.02,.38-.07,.65-.2,1.13-.27,1.75-.27,1.75,0,2.79,.83,2.79,2.21v4.02h.92v.95h-2.05v-.77c-.68,.63-1.37,.9-2.21,.9-1.39,0-2.41-.97-2.41-2.29s1.1-2.38,2.58-2.38c.79,0,1.3,.22,2.05,.86v-1.03c0-1.03-.67-1.62-1.78-1.62-.99,0-1.51,.32-1.67,1.03h-.83Zm4.29,2.7c-.63-.83-1.1-1.12-1.85-1.12-.95,0-1.67,.63-1.67,1.49s.74,1.53,1.71,1.53c.79,0,1.4-.38,1.82-1.1v-.81Z"/><path class="cls-8" d="M26.36,21.2V11.11h-.94v-.97h2.09v6.12c.77-.9,1.57-1.3,2.68-1.3,2.05,0,3.48,1.49,3.48,3.64s-1.4,3.67-3.48,3.67c-1.12,0-1.89-.34-2.68-1.21v1.08h-2.09v-.95h.94Zm1.08-2.5c0,1.49,1.13,2.65,2.57,2.65s2.5-1.13,2.5-2.72-1.08-2.7-2.54-2.7-2.54,1.19-2.54,2.77Z"/><path class="cls-8" d="M41.48,18.71h-5.46c.04,1.67,.99,2.7,2.48,2.7,1.26,0,1.8-.43,1.91-1.49h1.06v.88c-.5,.94-1.62,1.48-3.01,1.48-2.12,0-3.62-1.51-3.62-3.66s1.44-3.65,3.44-3.65,3.19,1.42,3.19,3.62v.13Zm-1.06-.74c-.13-1.3-.99-2.16-2.14-2.16s-2,.83-2.23,2.16h4.38Z"/><path class="cls-8" d="M44.84,10.14v11.06h.99v.95h-3.08v-.95h.94V11.11h-.94v-.97h2.09Z"/><path class="cls-8" d="M51.97,15.11v2.12h-.67c-.2-.97-.74-1.49-1.58-1.49-.7,0-1.22,.47-1.22,1.1s.36,.9,1.48,1.19c1.71,.45,2.3,1.01,2.3,2.18,0,1.24-.94,2.07-2.34,2.07-.77,0-1.3-.18-1.96-.72l-.18,.59h-.58v-2.3h.76c.16,1.06,.77,1.62,1.78,1.62,.83,0,1.31-.43,1.31-1.17,0-.68-.29-.94-1.53-1.28-1.76-.5-2.21-.92-2.21-2.02,0-1.22,.9-2.03,2.27-2.03,.76,0,1.17,.18,1.71,.7l.13-.56h.54Z"/></g><g id="Colors"><rect class="cls-18" x="3.5" y="32.06" width="25.49" height="53.38"/><rect class="cls-7" x="28.99" y="32.06" width="25.49" height="53.38"/><rect class="cls-10" x="54.48" y="32.06" width="25.49" height="53.38"/><rect class="cls-17" x="79.97" y="32.06" width="25.49" height="53.38"/><rect class="cls-12" x="105.45" y="32.06" width="25.49" height="53.38"/><rect class="cls-16" x="130.94" y="32.06" width="25.49" height="53.38"/><rect class="cls-15" x="156.43" y="32.06" width="25.49" height="53.38"/><rect class="cls-2" x="181.92" y="32.06" width="25.49" height="53.38"/><rect class="cls-1" x="207.41" y="32.06" width="25.49" height="53.38"/><rect class="cls-3" x="232.9" y="32.06" width="25.49" height="53.38"/><rect class="cls-20" x="258.39" y="32.06" width="25.49" height="53.38"/><rect class="cls-13" x="283.88" y="32.06" width="25.49" height="53.38"/><rect class="cls-14" x="309.36" y="32.06" width="25.49" height="53.38"/><rect class="cls-6" x="334.85" y="32.06" width="25.49" height="53.38"/><rect class="cls-9" x="360.34" y="32.06" width="25.49" height="53.38"/><rect class="cls-11" x="385.83" y="32.06" width="25.49" height="53.38"/><rect class="cls-4" x="411.32" y="32.06" width="25.49" height="53.38"/><rect class="cls-18" x="436.81" y="32.06" width="25.49" height="53.38"/><rect class="cls-18" x="462.3" y="32.06" width="25.49" height="53.38"/><rect class="cls-18" x="487.78" y="32.06" width="25.49" height="53.38"/><rect class="cls-18" x="513.3" y="32.06" width="25.49" height="53.38"/></g></g><path class="cls-5" d="M452.73,54.41v2.13h-.27l-.14-1.79h-3.67v3.99h2.33v-1.04h.31v2.52h-.31v-1.15h-2.33v4.36h.91v.32h-2.14v-.32h.85v-8.68h-.85v-.34h5.31Z"/><path class="cls-5" d="M475.95,59c1.25,.18,1.99,1.02,1.99,2.27,0,1.53-1.09,2.48-2.84,2.48h-2.68v-.32h.84v-8.68h-.84v-.34h2.69c1.5,0,2.47,.92,2.47,2.34,0,1.12-.58,1.92-1.62,2.26Zm-2.31-.15h1.36c1.34,0,2.19-.83,2.19-2.16,0-.92-.57-1.7-1.43-1.88-.29-.06-.45-.07-1.06-.07h-1.05v4.1Zm0,4.58h1.25c.99,0,1.55-.17,2.03-.62,.42-.38,.66-.94,.66-1.54,0-1.01-.64-1.79-1.61-2-.34-.07-.7-.1-1.15-.1h-1.18v4.26Z"/><path class="cls-5" d="M500.57,58.9l2.97,4.52h.87v.32h-2.14v-.32h.84l-2.75-4.19-2.25,3.56c-.17,.27-.22,.38-.22,.46,0,.13,.08,.17,.38,.17h.29v.32h-2.16v-.32h.18c.64,0,.8-.11,1.3-.91l2.28-3.61-2.75-4.16h-.9v-.34h2.16v.34h-.8l2.48,3.82,1.99-3.07c.21-.34,.28-.48,.28-.57,0-.17-.03-.18-.36-.18h-.45v-.34h2.31v.34h-.14c-.71,0-.8,.06-1.3,.84l-2.12,3.32Z"/><path class="cls-5" d="M528.72,54.41v2.47h-.27c-.08-.85-.27-1.32-.66-1.69-.34-.32-.85-.53-1.32-.53-1.08,0-1.82,.8-1.82,1.93,0,.42,.1,.77,.31,1.09,.29,.46,.76,.77,1.7,1.16,1.21,.5,1.64,.77,1.96,1.2,.25,.35,.39,.84,.39,1.36,0,1.42-1.01,2.45-2.4,2.45-.81,0-1.36-.28-2.02-1.02l-.11,.85h-.25v-2.41h.25c.07,.85,.28,1.3,.8,1.74,.39,.34,.85,.5,1.34,.5,1.16,0,2-.9,2-2.12,0-.42-.1-.83-.29-1.11-.28-.42-.67-.67-1.75-1.11-1.02-.41-1.55-.77-1.9-1.26-.27-.36-.41-.8-.41-1.32,0-1.34,.9-2.28,2.18-2.28,.77,0,1.36,.31,1.88,1.01l.11-.92h.27Z"/><g id="Burger"><line class="cls-22" x1="76.27" y1="16.76" x2="63.46" y2="16.76"/><line class="cls-22" x1="76.27" y1="13.1" x2="63.46" y2="13.1"/><line class="cls-22" x1="76.27" y1="20.42" x2="63.46" y2="20.42"/></g><g id="comments"><g><path class="cls-19" d="M420.84,99.66v2.13h-.27l-.14-1.79h-3.67v3.99h2.33v-1.04h.31v2.52h-.31v-1.15h-2.33v4.36h.91v.32h-2.14v-.32h.85v-8.68h-.85v-.34h5.31Z"/><path class="cls-19" d="M422.97,103.78v4.9h.8v.32h-1.95v-.32h.77v-4.58h-.77v-.32h1.15Zm-.55-2.34c0-.21,.17-.38,.38-.38s.38,.17,.38,.38-.17,.38-.38,.38-.38-.17-.38-.38Z"/><path class="cls-19" d="M426.43,99.66v9.02h.8v.32h-1.95v-.32h.78v-8.68h-.78v-.34h1.15Z"/><path class="cls-19" d="M429.71,101.87v1.91h1.08v.32h-1.08v3.95c0,.5,.15,.71,.49,.71,.18,0,.31-.04,.59-.22v.36c-.28,.15-.41,.2-.63,.2-.56,0-.83-.34-.83-1.05v-3.95h-.74v-.32h.74v-1.7l.38-.21Z"/><path class="cls-19" d="M436.68,106.32h-4.31c.04,1.5,.88,2.44,2.16,2.44,.94,0,1.6-.46,1.79-1.29h.36v.42c-.59,.81-1.27,1.2-2.2,1.2-1.44,0-2.52-1.19-2.52-2.76s1.02-2.66,2.38-2.66,2.34,1.05,2.34,2.65Zm-.35-.32c-.03-1.13-.88-2-1.97-2s-1.81,.77-1.99,2h3.96Z"/><path class="cls-19" d="M439.35,103.78v1.19c.49-.91,1.11-1.3,2.02-1.32v.45c-.11-.01-.18-.01-.25-.01-1.15,0-1.76,.87-1.76,2.52v2.07h.76v.32h-1.92v-.32h.8v-4.58h-.8v-.32h1.16Z"/></g><g><path class="cls-19" d="M510.05,11.46v4.22h.83v.32h-1.96v-.32h.77V6.99h-.77v-.34h2.38c.9,0,1.42,.15,1.86,.55,.46,.41,.71,1.04,.71,1.75,0,1.54-.91,2.41-2.59,2.49l2.97,4.23h.88v.32h-1.12l-3.14-4.54h-.83Zm0-.31h.83c.94,0,1.53-.17,1.95-.53,.45-.41,.69-.97,.69-1.67,0-1.3-.74-1.96-2.21-1.96h-1.25v4.16Z"/><path class="cls-19" d="M520.45,13.32h-4.31c.04,1.5,.88,2.44,2.16,2.44,.94,0,1.6-.46,1.79-1.29h.36v.42c-.59,.81-1.27,1.2-2.2,1.2-1.44,0-2.52-1.19-2.52-2.76s1.02-2.66,2.38-2.66,2.34,1.05,2.34,2.65Zm-.35-.32c-.03-1.13-.88-2-1.97-2s-1.81,.77-1.99,2h3.96Z"/><path class="cls-19" d="M525.27,10.78v1.48h-.28c-.14-.83-.59-1.26-1.33-1.26-.66,0-1.15,.45-1.15,1.02s.31,.8,1.33,1.08c1.22,.31,1.64,.7,1.64,1.51,0,.9-.64,1.48-1.65,1.48-.6,0-1.01-.15-1.48-.55l-.07,.45h-.25v-1.57h.25c.07,.84,.63,1.33,1.5,1.33s1.33-.42,1.33-1.18c0-.6-.31-.88-1.26-1.15l-.52-.14c-.81-.22-1.19-.62-1.19-1.23,0-.83,.67-1.39,1.64-1.39,.56,0,.87,.14,1.22,.56v-.46h.28Z"/><path class="cls-19" d="M531.62,13.32h-4.31c.04,1.5,.88,2.44,2.16,2.44,.94,0,1.6-.46,1.79-1.29h.36v.42c-.59,.81-1.27,1.2-2.2,1.2-1.44,0-2.52-1.19-2.52-2.76s1.02-2.66,2.38-2.66,2.34,1.05,2.34,2.65Zm-.35-.32c-.03-1.13-.88-2-1.97-2s-1.81,.77-1.99,2h3.96Z"/><path class="cls-19" d="M534.11,8.87v1.91h1.08v.32h-1.08v3.95c0,.5,.15,.71,.49,.71,.18,0,.31-.04,.59-.22v.36c-.28,.15-.41,.2-.63,.2-.56,0-.83-.34-.83-1.05v-3.95h-.74v-.32h.74v-1.7l.38-.21Z"/></g><g><path class="cls-19" d="M448.63,11.71c1.25,.18,1.99,1.02,1.99,2.27,0,1.53-1.09,2.48-2.84,2.48h-2.68v-.32h.84V7.45h-.84v-.34h2.69c1.5,0,2.47,.92,2.47,2.34,0,1.12-.58,1.92-1.62,2.26Zm-2.31-.15h1.36c1.34,0,2.19-.83,2.19-2.16,0-.92-.57-1.7-1.43-1.88-.29-.06-.45-.07-1.06-.07h-1.05v4.1Zm0,4.58h1.25c.99,0,1.55-.17,2.03-.62,.42-.38,.66-.94,.66-1.54,0-1.01-.64-1.79-1.61-2-.34-.07-.7-.1-1.15-.1h-1.18v4.26Z"/><path class="cls-19" d="M452.52,12.28v-.74c.52-.31,.91-.41,1.61-.41,1.27,0,1.92,.53,1.92,1.58v3.42h.8v.32h-1.16v-.6c-.48,.46-1.02,.7-1.64,.7-1,0-1.74-.74-1.74-1.72s.77-1.75,1.83-1.75c.63,0,1.06,.22,1.54,.77v-1.13c0-.8-.55-1.26-1.48-1.26-.88,0-1.29,.25-1.34,.83h-.34Zm.14,2.58c0,.77,.64,1.36,1.47,1.36s1.58-.6,1.58-1.32c0-.83-.7-1.48-1.58-1.48s-1.47,.59-1.47,1.44Z"/><path class="cls-19" d="M462.84,11.23v1.74h-.36c-.08-.95-.73-1.51-1.75-1.51-1.25,0-2.1,.95-2.1,2.33s.92,2.44,2.13,2.44c1.08,0,1.71-.5,1.72-1.37h.36v.63c-.56,.7-1.29,1.08-2.1,1.08-1.43,0-2.49-1.16-2.49-2.7s1.04-2.72,2.52-2.72c.74,0,1.26,.21,1.71,.69l.1-.59h.27Z"/><path class="cls-19" d="M465.25,7.12v6.61l2.1-2.17h-.74v-.32h2.06v.32h-.85l-2.23,2.27,2.23,2.31h.85v.32h-1.05l-2.37-2.44v2.12h.78v.32h-1.96v-.32h.8V7.45h-.8v-.34h1.18Z"/></g><g><path class="cls-19" d="M481.83,99.66v2.47h-.27c-.08-.85-.27-1.32-.66-1.69-.34-.32-.85-.53-1.32-.53-1.08,0-1.82,.8-1.82,1.93,0,.42,.1,.77,.31,1.09,.29,.46,.76,.77,1.7,1.16,1.21,.5,1.64,.77,1.96,1.2,.25,.35,.39,.84,.39,1.36,0,1.42-1.01,2.45-2.4,2.45-.81,0-1.36-.28-2.02-1.02l-.11,.85h-.25v-2.41h.25c.07,.85,.28,1.3,.8,1.74,.39,.34,.85,.5,1.34,.5,1.16,0,2-.9,2-2.12,0-.42-.1-.83-.29-1.11-.28-.42-.67-.67-1.75-1.11-1.02-.41-1.55-.77-1.9-1.26-.27-.36-.41-.8-.41-1.32,0-1.34,.9-2.28,2.18-2.28,.77,0,1.36,.31,1.88,1.01l.11-.92h.27Z"/><path class="cls-19" d="M488.43,106.32h-4.31c.04,1.5,.88,2.44,2.16,2.44,.94,0,1.6-.46,1.79-1.29h.36v.42c-.59,.81-1.27,1.2-2.2,1.2-1.44,0-2.52-1.19-2.52-2.76s1.02-2.66,2.38-2.66,2.34,1.05,2.34,2.65Zm-.35-.32c-.03-1.13-.88-2-1.97-2s-1.81,.77-1.99,2h3.96Z"/><path class="cls-19" d="M490.92,101.87v1.91h1.08v.32h-1.08v3.95c0,.5,.15,.71,.49,.71,.18,0,.31-.04,.59-.22v.36c-.28,.15-.41,.2-.63,.2-.56,0-.83-.34-.83-1.05v-3.95h-.74v-.32h.74v-1.7l.38-.21Z"/><path class="cls-19" d="M494.66,101.87v1.91h1.08v.32h-1.08v3.95c0,.5,.15,.71,.49,.71,.18,0,.31-.04,.59-.22v.36c-.28,.15-.41,.2-.63,.2-.56,0-.83-.34-.83-1.05v-3.95h-.74v-.32h.74v-1.7l.38-.21Z"/><path class="cls-19" d="M498.56,103.78v4.9h.8v.32h-1.95v-.32h.77v-4.58h-.77v-.32h1.15Zm-.55-2.34c0-.21,.17-.38,.38-.38s.38,.17,.38,.38-.17,.38-.38,.38-.38-.17-.38-.38Z"/><path class="cls-19" d="M502.17,103.78v.91c.55-.71,1.04-1.01,1.74-1.01,1.04,0,1.78,.76,1.78,1.79v3.21h.79v.32h-1.91v-.32h.76v-2.98c0-1.11-.5-1.69-1.44-1.69-.64,0-1.27,.43-1.54,1.05-.11,.24-.17,.57-.17,1.02v2.61h.77v.32h-1.93v-.32h.8v-4.58h-.8v-.32h1.16Z"/><path class="cls-19" d="M512.7,103.78h1.16v.32h-.8v5.03c0,1.44-1.01,2.4-2.55,2.4-.9,0-1.7-.39-2.06-1.01-.15-.28-.21-.46-.27-.95h.38c.15,1.06,.85,1.64,2.03,1.64,1.26,0,2.1-.74,2.1-1.86v-1.43c-.69,.85-1.3,1.19-2.18,1.19-1.47,0-2.59-1.16-2.59-2.68s1.09-2.75,2.58-2.75c.94,0,1.5,.31,2.2,1.22v-1.12Zm-4.41,2.62c0,1.33,.97,2.37,2.2,2.37s2.23-1.02,2.23-2.37-1-2.4-2.27-2.4-2.16,1.05-2.16,2.4Z"/><path class="cls-19" d="M518.67,103.78v1.48h-.28c-.14-.83-.59-1.26-1.33-1.26-.66,0-1.15,.45-1.15,1.02s.31,.8,1.33,1.08c1.22,.31,1.64,.7,1.64,1.51,0,.9-.64,1.48-1.65,1.48-.6,0-1.01-.15-1.48-.55l-.07,.45h-.25v-1.57h.25c.07,.84,.63,1.33,1.5,1.33s1.33-.42,1.33-1.18c0-.6-.31-.88-1.26-1.15l-.52-.14c-.81-.22-1.19-.62-1.19-1.23,0-.83,.67-1.39,1.64-1.39,.56,0,.87,.14,1.22,.56v-.46h.28Z"/></g><polyline id="Filter" class="cls-23" points="475.55 44.49 475.55 19.5 437.44 19.5"/><polyline id="Back" class="cls-23" points="500.55 44.49 500.55 19.5 542.44 19.5"/><polyline id="Settings" class="cls-23" points="526.53 74 526.53 113 470.44 113"/><polyline id="Settings-2" class="cls-23" points="449.53 74 449.53 113 408.44 113"/></g></g></g></svg>