<?xml version="1.0" encoding="UTF-8"?><svg id="Layer_2" xmlns="http://www.w3.org/2000/svg" viewBox="0 0 161.67 123.67"><defs><style>.cls-1{fill:#01bcd4;}.cls-2{fill:#03a9f4;}.cls-3{fill:#019688;}.cls-4{fill:#ff5722;}.cls-5{fill:#fff;}.cls-6{fill:#ffeb3b;}.cls-7{fill:#f44336;}.cls-8{fill:#efc64a;}.cls-9{fill:#ffc107;}.cls-10{fill:#e91e63;}.cls-11{fill:#ff9801;}.cls-12{fill:#673ab7;}.cls-13{fill:#8bc34a;}.cls-14{fill:#cddc39;}.cls-15{fill:#2196f3;}.cls-16{fill:#3f51b5;}.cls-17{fill:#9c27b0;}.cls-18{fill:#262626;}.cls-19{fill:#4caf50;}.cls-20{fill:#404040;stroke:#378fe9;stroke-miterlimit:10;}</style></defs><g id="Save_theme"><polygon class="cls-20" points=".5 .5 .5 123.17 161.17 123.17 161.17 32.5 123.83 32.5 123.83 .5 .5 .5"/><g><path class="cls-8" d="M19.6,11.49v3.46h-.86c-.13-.99-.36-1.53-.81-1.96-.41-.4-1.04-.63-1.62-.63-1.15,0-1.96,.83-1.96,2.02,0,1.06,.67,1.69,2.75,2.58,1.39,.59,1.85,.88,2.29,1.46,.4,.52,.59,1.17,.59,1.96,0,1.93-1.42,3.33-3.38,3.33-1.03,0-1.71-.32-2.63-1.24l-.25,.99h-.7v-3.48h.86c.11,1.04,.32,1.55,.94,2.05,.47,.41,1.04,.63,1.64,.63,1.3,0,2.27-.97,2.27-2.23,0-.5-.14-.97-.43-1.33-.34-.41-.76-.67-2-1.19-2.36-.95-3.19-1.85-3.19-3.42,0-1.82,1.31-3.17,3.08-3.17,1.01,0,1.82,.38,2.56,1.24l.18-1.06h.68Z"/><path class="cls-8" d="M22.23,18.2v-1.57h.22c.13,.02,.23,.02,.29,.02,.07,0,.18-.02,.38-.07,.65-.2,1.13-.27,1.75-.27,1.75,0,2.79,.83,2.79,2.21v4.02h.92v.95h-2.05v-.77c-.68,.63-1.37,.9-2.21,.9-1.39,0-2.41-.97-2.41-2.29s1.1-2.38,2.58-2.38c.79,0,1.3,.22,2.05,.86v-1.03c0-1.03-.67-1.62-1.78-1.62-.99,0-1.51,.32-1.67,1.03h-.83Zm4.29,2.7c-.63-.83-1.1-1.12-1.85-1.12-.96,0-1.67,.63-1.67,1.49s.74,1.53,1.71,1.53c.79,0,1.41-.38,1.82-1.1v-.81Z"/><path class="cls-8" d="M33.27,21.93l1.66-3.78c.11-.23,.16-.4,.16-.49,0-.22-.07-.25-.86-.25v-.95h2.77v.95c-.79,.02-.92,.11-1.3,.95l-2.32,5.13h-.58l-2.83-6.09h-.86v-.95h3.04v.95h-.92l2.04,4.52Z"/><path class="cls-8" d="M44.38,20.06h-5.46c.04,1.67,.99,2.7,2.48,2.7,1.26,0,1.8-.43,1.91-1.49h1.06v.88c-.5,.94-1.62,1.48-3.01,1.48-2.12,0-3.62-1.51-3.62-3.66s1.44-3.66,3.44-3.66,3.19,1.42,3.19,3.62v.13Zm-1.06-.74c-.13-1.3-.99-2.16-2.14-2.16s-2,.83-2.23,2.16h4.38Z"/><path class="cls-8" d="M52.82,13.96v2.5h1.35v.95h-1.35v4.23c0,.68,.2,.97,.61,.97,.23,0,.4-.05,.74-.27v1.01c-.47,.22-.67,.27-1.04,.27-.94,0-1.44-.5-1.44-1.44v-4.77h-.94v-.95h.94v-1.98l1.13-.52Z"/><path class="cls-8" d="M57.88,11.49v6.07c.63-.86,1.31-1.24,2.27-1.24,1.49,0,2.47,.99,2.47,2.5v3.73h.96v.95h-2.09v-4.21c0-1.31-.56-1.98-1.66-1.98-1.19,0-1.95,.88-1.95,2.3v2.94h.94v.95h-3.02v-.95h.95V12.46h-.95v-.97h2.09Z"/><path class="cls-8" d="M71.75,20.06h-5.46c.04,1.67,.99,2.7,2.48,2.7,1.26,0,1.8-.43,1.91-1.49h1.06v.88c-.5,.94-1.62,1.48-3.01,1.48-2.12,0-3.62-1.51-3.62-3.66s1.44-3.66,3.44-3.66,3.19,1.42,3.19,3.62v.13Zm-1.06-.74c-.13-1.3-.99-2.16-2.14-2.16s-2,.83-2.23,2.16h4.38Z"/><path class="cls-8" d="M75.47,16.46v.97c.61-.76,1.33-1.12,2.23-1.12,1.03,0,1.62,.38,2,1.24,.59-.9,1.22-1.24,2.36-1.24,1.46,0,2.29,.96,2.29,2.58v3.66h.92v.95h-2.05v-4.11c0-1.4-.5-2.12-1.51-2.12-1.13,0-1.78,.88-1.78,2.43v2.84h.85v.95h-2v-4.12c0-1.5-.43-2.11-1.49-2.11-1.15,0-1.8,.9-1.8,2.54v2.74h.88v.95h-2.92v-.95h.9v-5.11h-.9v-.97h2.03Z"/><path class="cls-8" d="M93.42,20.06h-5.46c.04,1.67,.99,2.7,2.48,2.7,1.26,0,1.8-.43,1.91-1.49h1.06v.88c-.5,.94-1.62,1.48-3.01,1.48-2.12,0-3.62-1.51-3.62-3.66s1.44-3.66,3.44-3.66,3.19,1.42,3.19,3.62v.13Zm-1.06-.74c-.13-1.3-.99-2.16-2.14-2.16s-2,.83-2.23,2.16h4.38Z"/></g><g id="Colors_copy_2"><rect class="cls-7" x="13.26" y="42.94" width="8.69" height="10"/><rect class="cls-10" x="21.95" y="42.94" width="8.69" height="10"/><rect class="cls-17" x="30.64" y="42.94" width="8.69" height="10"/><rect class="cls-12" x="39.32" y="42.94" width="8.69" height="10"/><rect class="cls-16" x="48.01" y="42.94" width="8.69" height="10"/><rect class="cls-15" x="56.7" y="42.94" width="8.69" height="10"/><rect class="cls-2" x="65.39" y="42.94" width="8.69" height="10"/><rect class="cls-1" x="74.07" y="42.94" width="8.69" height="10"/><rect class="cls-3" x="82.76" y="42.94" width="8.69" height="10"/><rect class="cls-19" x="91.45" y="42.94" width="8.69" height="10"/><rect class="cls-13" x="100.14" y="42.94" width="8.69" height="10"/><rect class="cls-14" x="108.82" y="42.94" width="8.69" height="10"/><rect class="cls-6" x="117.51" y="42.94" width="8.69" height="10"/><rect class="cls-9" x="126.2" y="42.94" width="8.69" height="10"/><rect class="cls-11" x="134.89" y="42.94" width="8.69" height="10"/><rect class="cls-4" x="143.57" y="42.94" width="8.69" height="10"/></g><g id="Line"><g><path class="cls-5" d="M14.1,86.27h2.49c.78,0,1.03,.02,1.52,.16,.5,.13,.97,.38,1.37,.73,.8,.71,1.22,1.79,1.22,3.12,0,1.68-.77,3.05-2.05,3.65-.54,.26-1.01,.35-1.82,.35h-2.73v-.28h.73v-7.44h-.73v-.29Zm1.05,7.72h1.2c.32,0,.56,0,.7-.01,.52-.01,1.01-.11,1.42-.3,.41-.19,.79-.49,1.1-.89,.56-.7,.82-1.5,.82-2.52,0-2.39-1.32-3.72-3.68-3.72h-1.55v7.44Z"/><path class="cls-5" d="M25.87,91.98h-3.69c.04,1.28,.75,2.09,1.85,2.09,.8,0,1.37-.4,1.54-1.1h.31v.36c-.5,.7-1.09,1.03-1.88,1.03-1.24,0-2.16-1.02-2.16-2.36s.88-2.28,2.04-2.28,2,.9,2,2.27Zm-.3-.28c-.02-.97-.75-1.71-1.69-1.71s-1.55,.66-1.7,1.71h3.39Z"/><path class="cls-5" d="M30,89.8v1.27h-.24c-.12-.71-.5-1.08-1.14-1.08-.56,0-.98,.38-.98,.88s.26,.68,1.14,.92c1.04,.26,1.4,.6,1.4,1.29,0,.77-.55,1.27-1.42,1.27-.52,0-.86-.13-1.27-.47l-.06,.38h-.22v-1.34h.22c.06,.72,.54,1.14,1.28,1.14s1.14-.36,1.14-1.01c0-.52-.26-.76-1.08-.98l-.44-.12c-.7-.19-1.02-.53-1.02-1.06,0-.71,.58-1.19,1.4-1.19,.48,0,.74,.12,1.04,.48v-.4h.24Z"/><path class="cls-5" d="M32.51,89.8v4.2h.68v.28h-1.67v-.28h.66v-3.92h-.66v-.28h.98Zm-.47-2c0-.18,.14-.32,.32-.32s.32,.14,.32,.32-.14,.32-.32,.32-.32-.14-.32-.32Z"/><path class="cls-5" d="M38.58,89.8h1v.28h-.68v4.31c0,1.23-.86,2.05-2.18,2.05-.77,0-1.45-.34-1.76-.86-.13-.24-.18-.4-.23-.82h.32c.13,.91,.73,1.4,1.74,1.4,1.08,0,1.8-.64,1.8-1.59v-1.22c-.59,.73-1.12,1.02-1.87,1.02-1.26,0-2.22-1-2.22-2.29s.93-2.35,2.21-2.35c.8,0,1.28,.26,1.88,1.04v-.96Zm-3.78,2.24c0,1.14,.83,2.03,1.88,2.03s1.91-.88,1.91-2.03-.85-2.05-1.94-2.05-1.85,.9-1.85,2.05Z"/><path class="cls-5" d="M41.86,89.8v.78c.47-.61,.89-.86,1.49-.86,.89,0,1.52,.65,1.52,1.54v2.75h.67v.28h-1.63v-.28h.65v-2.55c0-.95-.43-1.45-1.24-1.45-.55,0-1.09,.37-1.32,.9-.1,.2-.14,.49-.14,.88v2.23h.66v.28h-1.66v-.28h.68v-3.92h-.68v-.28h1Z"/><path class="cls-5" d="M50.83,91.98h-3.69c.04,1.28,.75,2.09,1.85,2.09,.8,0,1.37-.4,1.54-1.1h.31v.36c-.5,.7-1.09,1.03-1.88,1.03-1.24,0-2.16-1.02-2.16-2.36s.88-2.28,2.04-2.28,2,.9,2,2.27Zm-.3-.28c-.02-.97-.75-1.71-1.69-1.71s-1.55,.66-1.7,1.71h3.39Z"/><path class="cls-5" d="M53.12,89.8v1.02c.42-.78,.95-1.12,1.73-1.13v.38c-.1-.01-.16-.01-.22-.01-.98,0-1.51,.74-1.51,2.16v1.78h.65v.28h-1.64v-.28h.68v-3.92h-.68v-.28h1Z"/></g><rect class="cls-18" x="64.26" y="82.94" width="88" height="14"/></g><g id="Line-2"><g><path class="cls-5" d="M15.1,68.27l4.77,7.23v-6.6c0-.31-.06-.35-.47-.35h-.31v-.29h1.8v.29h-.24c-.41,0-.47,.04-.47,.35v7.36h-.18l-4.88-7.38v6.75c0,.3,.06,.35,.47,.35h.3v.28h-1.79v-.28h.24c.41,0,.47-.05,.47-.35v-7.09h-.71v-.29h1Z"/><path class="cls-5" d="M22.36,72.7v-.64c.44-.26,.78-.35,1.38-.35,1.09,0,1.64,.46,1.64,1.36v2.93h.68v.28h-1v-.52c-.41,.4-.88,.6-1.4,.6-.85,0-1.49-.64-1.49-1.48s.66-1.5,1.57-1.5c.54,0,.91,.19,1.32,.66v-.97c0-.68-.47-1.08-1.27-1.08-.76,0-1.1,.22-1.15,.71h-.29Zm.12,2.21c0,.66,.55,1.16,1.26,1.16s1.35-.52,1.35-1.13c0-.71-.6-1.27-1.35-1.27s-1.26,.5-1.26,1.24Z"/><path class="cls-5" d="M28.33,71.8v.85c.38-.61,.89-.94,1.45-.94,.6,0,1.1,.37,1.28,.94,.38-.65,.82-.94,1.4-.94,.8,0,1.32,.61,1.32,1.55v2.74h.65v.28h-1.54v-.28h.58v-2.66c0-.86-.38-1.34-1.07-1.34-.83,0-1.34,.68-1.34,1.77v2.23h.56v.28h-1.46v-.28h.59v-2.76c0-.76-.43-1.25-1.1-1.25-.47,0-.91,.32-1.13,.79-.16,.32-.19,.56-.19,1.18v2.04h.59v.28h-1.54v-.28h.64v-3.92h-.64v-.28h.95Z"/><path class="cls-5" d="M39.73,73.98h-3.69c.04,1.28,.75,2.09,1.85,2.09,.8,0,1.37-.4,1.54-1.1h.31v.36c-.5,.7-1.09,1.03-1.88,1.03-1.24,0-2.16-1.02-2.16-2.36s.88-2.28,2.04-2.28,2,.9,2,2.27Zm-.3-.28c-.02-.97-.75-1.71-1.69-1.71s-1.55,.66-1.7,1.71h3.39Z"/></g><rect class="cls-18" x="64.26" y="64.94" width="88" height="14"/></g><g id="Line-3"><g><path class="cls-5" d="M18.72,104.27h1.79v.29h-.71v4.81c0,1.07-.14,1.58-.56,2.08-.49,.58-1.22,.91-2,.91-1.08,0-2.12-.71-2.4-1.63-.11-.34-.16-.77-.16-1.36v-4.81h-.71v-.29h1.79v.29h-.76v4.79c0,1.02,.13,1.51,.52,1.94,.43,.48,1.09,.78,1.73,.78,.95,0,1.87-.65,2.1-1.5,.1-.34,.13-.65,.13-1.22v-4.79h-.76v-.29Z"/><path class="cls-5" d="M23.21,108.39v3.61h.71v.28h-1.68v-.28h.66v-7.44h-.66v-.29h2.04c.77,0,1.21,.13,1.59,.47,.4,.35,.61,.89,.61,1.5,0,1.32-.78,2.06-2.22,2.13l2.54,3.62h.76v.28h-.96l-2.69-3.89h-.71Zm0-.26h.71c.8,0,1.31-.14,1.67-.46,.38-.35,.59-.83,.59-1.43,0-1.12-.64-1.68-1.89-1.68h-1.07v3.56Z"/><path class="cls-5" d="M32.55,110.19v2.09h-3.85v-.28h.68v-7.44h-.68v-.29h1.71v.29h-.71v7.44h2.45l.19-1.81h.2Z"/></g><rect class="cls-18" x="64.26" y="100.94" width="88" height="14"/></g></g></svg>