<?xml version="1.0" encoding="UTF-8"?><svg id="Layer_2" xmlns="http://www.w3.org/2000/svg" viewBox="0 0 469.67 234.67"><defs><style>.cls-1{fill:#01bcd4;}.cls-2{fill:#03a9f4;}.cls-3{fill:#019688;}.cls-4{fill:#ff5722;}.cls-5{fill:#fff;}.cls-6{fill:#ffeb3b;}.cls-7{fill:#f44336;}.cls-8{fill:#efc64a;}.cls-9{fill:#ffc107;}.cls-10{fill:#e91e63;}.cls-11{fill:#ff9801;}.cls-12{fill:#673ab7;}.cls-13{fill:#8bc34a;}.cls-14{fill:#cddc39;}.cls-15{fill:#2196f3;}.cls-16{fill:#3f51b5;}.cls-17{fill:#9c27b0;}.cls-18{fill:#262626;}.cls-19{fill:#378fe9;}.cls-20{fill:#4caf50;}.cls-21{fill:#404040;stroke:#378fe9;}.cls-21,.cls-22,.cls-23{stroke-miterlimit:10;}.cls-22{stroke:#fff;}.cls-22,.cls-23{fill:none;stroke-width:.5px;}.cls-23{stroke:#d6d6d6;}</style></defs><g id="Settings"><polygon class="cls-21" points=".5 .5 .5 234.17 469.17 234.17 469.17 32.5 83.83 32.5 83.83 .5 .5 .5"/><g><path class="cls-5" d="M268.69,67.5v2.11h-.23c-.07-.73-.23-1.13-.56-1.45-.29-.28-.73-.46-1.13-.46-.92,0-1.56,.68-1.56,1.66,0,.36,.08,.66,.26,.94,.25,.4,.65,.66,1.45,1,1.03,.43,1.4,.66,1.68,1.03,.22,.3,.34,.72,.34,1.16,0,1.21-.86,2.1-2.05,2.1-.7,0-1.16-.24-1.73-.88l-.1,.73h-.22v-2.06h.22c.06,.73,.24,1.12,.68,1.49,.34,.29,.73,.43,1.15,.43,1,0,1.71-.77,1.71-1.81,0-.36-.08-.71-.25-.95-.24-.36-.58-.58-1.5-.95-.88-.35-1.33-.66-1.63-1.08-.23-.31-.35-.68-.35-1.13,0-1.15,.77-1.96,1.87-1.96,.66,0,1.16,.26,1.61,.86l.1-.79h.23Z"/><path class="cls-5" d="M274.34,73.21h-3.69c.04,1.28,.75,2.09,1.85,2.09,.8,0,1.37-.4,1.54-1.1h.31v.36c-.5,.7-1.09,1.03-1.88,1.03-1.24,0-2.16-1.02-2.16-2.36s.88-2.28,2.04-2.28,2,.9,2,2.27Zm-.3-.28c-.02-.97-.75-1.71-1.69-1.71s-1.55,.66-1.7,1.71h3.39Z"/><path class="cls-5" d="M276.48,69.39v1.63h.92v.28h-.92v3.38c0,.43,.13,.61,.42,.61,.16,0,.26-.04,.5-.19v.31c-.24,.13-.35,.17-.54,.17-.48,0-.71-.29-.71-.9v-3.38h-.63v-.28h.63v-1.45l.32-.18Z"/><path class="cls-5" d="M285.84,71.02v1.49h-.31c-.07-.82-.62-1.29-1.5-1.29-1.07,0-1.8,.82-1.8,1.99s.79,2.09,1.82,2.09c.92,0,1.46-.43,1.47-1.17h.31v.54c-.48,.6-1.1,.92-1.8,.92-1.22,0-2.13-1-2.13-2.31s.89-2.33,2.16-2.33c.64,0,1.08,.18,1.46,.59l.08-.5h.23Z"/><path class="cls-5" d="M287.01,73.25c0-1.29,1.02-2.31,2.34-2.31s2.33,1.02,2.33,2.31-1.02,2.33-2.33,2.33-2.34-1.02-2.34-2.33Zm.35,0c0,1.14,.9,2.06,1.99,2.06s1.99-.92,1.99-2.06-.9-2.05-1.99-2.05-1.99,.92-1.99,2.05Z"/><path class="cls-5" d="M293.84,67.5v7.72h.68v.28h-1.67v-.28h.67v-7.44h-.67v-.29h.98Z"/><path class="cls-5" d="M295.69,73.25c0-1.29,1.02-2.31,2.34-2.31s2.33,1.02,2.33,2.31-1.02,2.33-2.33,2.33-2.34-1.02-2.34-2.33Zm.35,0c0,1.14,.9,2.06,1.99,2.06s1.99-.92,1.99-2.06-.9-2.05-1.99-2.05-1.99,.92-1.99,2.05Z"/><path class="cls-5" d="M302.65,71.02v1.02c.42-.78,.95-1.12,1.73-1.13v.38c-.1-.01-.16-.01-.22-.01-.98,0-1.51,.74-1.51,2.16v1.78h.65v.28h-1.64v-.28h.68v-3.92h-.68v-.28h1Z"/></g><g><path class="cls-5" d="M267.64,85.5l2.7,7.72h.79v.28h-1.83v-.28h.72l-.89-2.55h-3.19l-.71,2.03-.07,.2c-.02,.07-.04,.12-.04,.17,0,.11,.08,.16,.26,.16h.42v.28h-1.81v-.28h.3c.3,0,.4-.06,.49-.28l.07-.2,.05-.13,2.4-6.82h-.82v-.29h1.15Zm1.4,4.94l-1.52-4.33-1.51,4.33h3.03Z"/><path class="cls-5" d="M272.7,89.02h.8v.28h-.8v3.92h.8v.28h-1.77v-.28h.65v-3.92h-.65v-.28h.65v-2.34c0-.88,.25-1.19,.98-1.19h.14v.29h-.24c-.43,0-.56,.2-.56,.9v2.34Z"/><path class="cls-5" d="M275.7,89.02h.8v.28h-.8v3.92h.8v.28h-1.77v-.28h.65v-3.92h-.65v-.28h.65v-2.34c0-.88,.25-1.19,.98-1.19h.14v.29h-.24c-.43,0-.56,.2-.56,.9v2.34Z"/><path class="cls-5" d="M281.56,91.21h-3.69c.04,1.28,.75,2.09,1.85,2.09,.8,0,1.37-.4,1.54-1.1h.31v.36c-.5,.7-1.09,1.03-1.88,1.03-1.24,0-2.16-1.02-2.16-2.36s.88-2.28,2.04-2.28,2,.9,2,2.27Zm-.3-.28c-.02-.97-.75-1.71-1.69-1.71s-1.55,.66-1.7,1.71h3.39Z"/><path class="cls-5" d="M286.67,89.02v1.49h-.31c-.07-.82-.62-1.29-1.5-1.29-1.07,0-1.8,.82-1.8,1.99s.79,2.09,1.82,2.09c.92,0,1.46-.43,1.47-1.17h.31v.54c-.48,.6-1.1,.92-1.8,.92-1.22,0-2.13-1-2.13-2.31s.89-2.33,2.16-2.33c.64,0,1.08,.18,1.46,.59l.08-.5h.23Z"/><path class="cls-5" d="M288.81,87.39v1.63h.92v.28h-.92v3.38c0,.43,.13,.61,.42,.61,.16,0,.26-.04,.5-.19v.31c-.24,.13-.35,.17-.54,.17-.48,0-.71-.29-.71-.9v-3.38h-.63v-.28h.63v-1.45l.32-.18Z"/><path class="cls-5" d="M295.21,85.5v7.72h.68v.28h-1.67v-.28h.67v-7.44h-.67v-.29h.98Z"/><path class="cls-5" d="M297.35,89.92v-.64c.44-.26,.78-.35,1.38-.35,1.09,0,1.64,.46,1.64,1.36v2.93h.68v.28h-1v-.52c-.41,.4-.88,.6-1.4,.6-.85,0-1.49-.64-1.49-1.48s.66-1.5,1.57-1.5c.54,0,.91,.19,1.32,.66v-.97c0-.68-.47-1.08-1.27-1.08-.76,0-1.1,.22-1.15,.71h-.29Zm.12,2.21c0,.66,.55,1.16,1.26,1.16s1.35-.52,1.35-1.13c0-.71-.6-1.27-1.35-1.27s-1.26,.5-1.26,1.24Z"/><path class="cls-5" d="M303.8,93.09l1.56-3.79h-.66v-.28h1.64v.28h-.66l-2.51,6.12h1.22v.28h-1.68l.9-2.19-1.61-4.2h-.61v-.28h1.62v.28h-.67l1.45,3.79Z"/><path class="cls-5" d="M310.82,91.21h-3.69c.04,1.28,.75,2.09,1.85,2.09,.8,0,1.37-.4,1.54-1.1h.31v.36c-.5,.7-1.09,1.03-1.88,1.03-1.24,0-2.16-1.02-2.16-2.36s.88-2.28,2.04-2.28,2,.9,2,2.27Zm-.3-.28c-.02-.97-.75-1.71-1.69-1.71s-1.55,.66-1.7,1.71h3.39Z"/><path class="cls-5" d="M313.12,89.02v1.02c.42-.78,.95-1.12,1.73-1.13v.38c-.1-.01-.16-.01-.22-.01-.98,0-1.51,.74-1.51,2.16v1.78h.65v.28h-1.64v-.28h.68v-3.92h-.68v-.28h1Z"/><path class="cls-5" d="M320.82,89.77l1.39,1.58,1.25-1.92c.13-.2,.14-.23,.14-.29,0-.08-.08-.12-.28-.12h-.35v-.29h1.82v.29h-.29c-.37,0-.46,.05-.77,.53l-1.34,2.03,1.44,1.64h.86v.28h-1.06l-1.44-1.63c-.47,.66-.62,.86-.89,1.12-.38,.38-.86,.6-1.36,.6-.84,0-1.46-.59-1.46-1.37,0-.54,.25-1.01,.83-1.54,.28-.25,.48-.43,1.04-.91-.55-.58-.86-1.22-.86-1.79,0-.8,.58-1.4,1.38-1.4,.73,0,1.32,.56,1.32,1.25,0,.41-.18,.79-.55,1.19-.24,.25-.35,.34-.84,.76Zm-.24,.23l-.52,.44c-.97,.82-1.24,1.2-1.24,1.76,0,.62,.49,1.09,1.13,1.09,.37,0,.78-.18,1.09-.47,.24-.24,.4-.43,.96-1.2l-1.43-1.63Zm.05-.46c1.08-.94,1.27-1.17,1.27-1.69,0-.56-.44-.98-1.03-.98s-1.04,.43-1.04,1.06c0,.52,.22,.95,.8,1.62Z"/><path class="cls-5" d="M330,89.02v4.2h.68v.28h-1.67v-.28h.66v-3.92h-.66v-.28h.98Zm-.47-2c0-.18,.14-.32,.32-.32s.32,.14,.32,.32-.14,.32-.32,.32-.32-.14-.32-.32Z"/><path class="cls-5" d="M332.94,87.39v1.63h.92v.28h-.92v3.38c0,.43,.13,.61,.42,.61,.16,0,.26-.04,.5-.19v.31c-.24,.13-.35,.17-.54,.17-.48,0-.71-.29-.71-.9v-3.38h-.63v-.28h.63v-1.45l.32-.18Z"/><path class="cls-5" d="M338.91,91.21h-3.69c.04,1.28,.75,2.09,1.85,2.09,.8,0,1.37-.4,1.54-1.1h.31v.36c-.5,.7-1.09,1.03-1.88,1.03-1.24,0-2.16-1.02-2.16-2.36s.88-2.28,2.04-2.28,2,.9,2,2.27Zm-.3-.28c-.02-.97-.75-1.71-1.69-1.71s-1.55,.66-1.7,1.71h3.39Z"/><path class="cls-5" d="M341.16,89.02v.85c.38-.61,.89-.94,1.45-.94,.6,0,1.1,.37,1.28,.94,.38-.65,.82-.94,1.4-.94,.8,0,1.32,.61,1.32,1.55v2.74h.65v.28h-1.54v-.28h.58v-2.66c0-.86-.38-1.34-1.07-1.34-.83,0-1.34,.68-1.34,1.77v2.23h.56v.28h-1.46v-.28h.59v-2.76c0-.76-.43-1.25-1.1-1.25-.47,0-.91,.32-1.13,.79-.16,.32-.19,.56-.19,1.18v2.04h.59v.28h-1.54v-.28h.64v-3.92h-.64v-.28h.95Z"/></g><g><path class="cls-5" d="M269.47,103.5v1.87h-.24l-.11-1.58h-2.05v7.44h.73v.28h-1.74v-.28h.68v-7.44h-2.03l-.13,1.58h-.22v-1.87h5.1Z"/><path class="cls-5" d="M269.86,107.92v-.64c.44-.26,.78-.35,1.38-.35,1.09,0,1.64,.46,1.64,1.36v2.93h.68v.28h-1v-.52c-.41,.4-.88,.6-1.4,.6-.85,0-1.49-.64-1.49-1.48s.66-1.5,1.57-1.5c.54,0,.91,.19,1.32,.66v-.97c0-.68-.47-1.08-1.27-1.08-.76,0-1.1,.22-1.15,.71h-.29Zm.12,2.21c0,.66,.55,1.16,1.26,1.16s1.35-.52,1.35-1.13c0-.71-.6-1.27-1.35-1.27s-1.26,.5-1.26,1.24Z"/><path class="cls-5" d="M275.88,107.02v1.02c.42-.78,.95-1.12,1.73-1.13v.38c-.1-.01-.16-.01-.22-.01-.98,0-1.51,.74-1.51,2.16v1.78h.65v.28h-1.64v-.28h.68v-3.92h-.68v-.28h1Z"/><path class="cls-5" d="M282.24,107.02h1v.28h-.68v4.31c0,1.23-.86,2.05-2.18,2.05-.77,0-1.45-.34-1.76-.86-.13-.24-.18-.4-.23-.82h.32c.13,.91,.73,1.4,1.74,1.4,1.08,0,1.8-.64,1.8-1.59v-1.22c-.59,.73-1.12,1.02-1.87,1.02-1.26,0-2.22-1-2.22-2.29s.93-2.35,2.21-2.35c.8,0,1.28,.26,1.88,1.04v-.96Zm-3.78,2.24c0,1.14,.83,2.03,1.88,2.03s1.91-.88,1.91-2.03-.85-2.05-1.94-2.05-1.85,.9-1.85,2.05Z"/><path class="cls-5" d="M288.28,109.21h-3.69c.04,1.28,.75,2.09,1.85,2.09,.8,0,1.37-.4,1.54-1.1h.31v.36c-.5,.7-1.09,1.03-1.88,1.03-1.24,0-2.16-1.02-2.16-2.36s.88-2.28,2.04-2.28,2,.9,2,2.27Zm-.3-.28c-.02-.97-.75-1.71-1.69-1.71s-1.55,.66-1.7,1.71h3.39Z"/><path class="cls-5" d="M290.41,105.39v1.63h.92v.28h-.92v3.38c0,.43,.13,.61,.42,.61,.16,0,.26-.04,.5-.19v.31c-.24,.13-.35,.17-.54,.17-.48,0-.71-.29-.71-.9v-3.38h-.63v-.28h.63v-1.45l.32-.18Z"/><path class="cls-5" d="M296.85,103.5v5.66l1.8-1.86h-.64v-.28h1.76v.28h-.73l-1.91,1.94,1.91,1.98h.73v.28h-.9l-2.03-2.09v1.81h.67v.28h-1.68v-.28h.68v-7.44h-.68v-.29h1.01Z"/><path class="cls-5" d="M304.35,109.21h-3.69c.04,1.28,.75,2.09,1.85,2.09,.8,0,1.37-.4,1.54-1.1h.31v.36c-.5,.7-1.09,1.03-1.88,1.03-1.24,0-2.16-1.02-2.16-2.36s.88-2.28,2.04-2.28,2,.9,2,2.27Zm-.3-.28c-.02-.97-.75-1.71-1.69-1.71s-1.55,.66-1.7,1.71h3.39Z"/><path class="cls-5" d="M307.22,111.09l1.56-3.79h-.66v-.28h1.64v.28h-.66l-2.51,6.12h1.22v.28h-1.68l.9-2.19-1.61-4.2h-.61v-.28h1.62v.28h-.67l1.45,3.79Z"/><path class="cls-5" d="M311.35,107.02h.8v.28h-.8v3.92h.8v.28h-1.77v-.28h.65v-3.92h-.65v-.28h.65v-2.34c0-.88,.25-1.19,.98-1.19h.14v.29h-.24c-.43,0-.56,.2-.56,.9v2.34Z"/><path class="cls-5" d="M314.52,107.02v1.02c.42-.78,.95-1.12,1.73-1.13v.38c-.1-.01-.16-.01-.22-.01-.98,0-1.51,.74-1.51,2.16v1.78h.65v.28h-1.64v-.28h.68v-3.92h-.68v-.28h1Z"/><path class="cls-5" d="M317.32,107.92v-.64c.44-.26,.78-.35,1.38-.35,1.09,0,1.64,.46,1.64,1.36v2.93h.68v.28h-1v-.52c-.41,.4-.88,.6-1.4,.6-.85,0-1.49-.64-1.49-1.48s.66-1.5,1.57-1.5c.54,0,.91,.19,1.32,.66v-.97c0-.68-.47-1.08-1.27-1.08-.76,0-1.1,.22-1.15,.71h-.29Zm.12,2.21c0,.66,.55,1.16,1.26,1.16s1.35-.52,1.35-1.13c0-.71-.6-1.27-1.35-1.27s-1.26,.5-1.26,1.24Z"/><path class="cls-5" d="M323.29,107.02v.85c.38-.61,.89-.94,1.45-.94,.6,0,1.1,.37,1.28,.94,.38-.65,.82-.94,1.4-.94,.8,0,1.32,.61,1.32,1.55v2.74h.65v.28h-1.54v-.28h.58v-2.66c0-.86-.38-1.34-1.07-1.34-.83,0-1.34,.68-1.34,1.77v2.23h.56v.28h-1.46v-.28h.59v-2.76c0-.76-.43-1.25-1.1-1.25-.47,0-.91,.32-1.13,.79-.16,.32-.19,.56-.19,1.18v2.04h.59v.28h-1.54v-.28h.64v-3.92h-.64v-.28h.95Z"/><path class="cls-5" d="M334.69,109.21h-3.69c.04,1.28,.75,2.09,1.85,2.09,.8,0,1.37-.4,1.54-1.1h.31v.36c-.5,.7-1.09,1.03-1.88,1.03-1.24,0-2.16-1.02-2.16-2.36s.88-2.28,2.04-2.28,2,.9,2,2.27Zm-.3-.28c-.02-.97-.75-1.71-1.69-1.71s-1.55,.66-1.7,1.71h3.39Z"/><path class="cls-5" d="M338.82,107.02v1.27h-.24c-.12-.71-.5-1.08-1.14-1.08-.56,0-.98,.38-.98,.88s.26,.68,1.14,.92c1.04,.26,1.4,.6,1.4,1.29,0,.77-.55,1.27-1.42,1.27-.52,0-.86-.13-1.27-.47l-.06,.38h-.22v-1.34h.22c.06,.72,.54,1.14,1.28,1.14s1.14-.36,1.14-1.01c0-.52-.26-.76-1.08-.98l-.44-.12c-.7-.19-1.02-.53-1.02-1.06,0-.71,.58-1.19,1.4-1.19,.48,0,.74,.12,1.04,.48v-.4h.24Z"/></g><g><path class="cls-5" d="M268.69,121.5v2.11h-.23c-.07-.73-.23-1.13-.56-1.45-.29-.28-.73-.46-1.13-.46-.92,0-1.56,.68-1.56,1.66,0,.36,.08,.66,.26,.94,.25,.4,.65,.66,1.45,1,1.03,.43,1.4,.66,1.68,1.03,.22,.3,.34,.72,.34,1.16,0,1.21-.86,2.1-2.05,2.1-.7,0-1.16-.24-1.73-.88l-.1,.73h-.22v-2.06h.22c.06,.73,.24,1.12,.68,1.49,.34,.29,.73,.43,1.15,.43,1,0,1.71-.77,1.71-1.81,0-.36-.08-.71-.25-.95-.24-.36-.58-.58-1.5-.95-.88-.35-1.33-.66-1.63-1.08-.23-.31-.35-.68-.35-1.13,0-1.15,.77-1.96,1.87-1.96,.66,0,1.16,.26,1.61,.86l.1-.79h.23Z"/><path class="cls-5" d="M274.34,127.21h-3.69c.04,1.28,.75,2.09,1.85,2.09,.8,0,1.37-.4,1.54-1.1h.31v.36c-.5,.7-1.09,1.03-1.88,1.03-1.24,0-2.16-1.02-2.16-2.36s.88-2.28,2.04-2.28,2,.9,2,2.27Zm-.3-.28c-.02-.97-.75-1.71-1.69-1.71s-1.55,.66-1.7,1.71h3.39Z"/><path class="cls-5" d="M276.5,121.5v7.72h.68v.28h-1.67v-.28h.67v-7.44h-.67v-.29h.98Z"/><path class="cls-5" d="M282.39,127.21h-3.69c.04,1.28,.75,2.09,1.85,2.09,.8,0,1.37-.4,1.54-1.1h.31v.36c-.5,.7-1.09,1.03-1.88,1.03-1.24,0-2.16-1.02-2.16-2.36s.88-2.28,2.04-2.28,2,.9,2,2.27Zm-.3-.28c-.02-.97-.75-1.71-1.69-1.71s-1.55,.66-1.7,1.71h3.39Z"/><path class="cls-5" d="M287.5,125.02v1.49h-.31c-.07-.82-.62-1.29-1.5-1.29-1.07,0-1.8,.82-1.8,1.99s.79,2.09,1.82,2.09c.92,0,1.46-.43,1.47-1.17h.31v.54c-.48,.6-1.1,.92-1.8,.92-1.22,0-2.13-1-2.13-2.31s.89-2.33,2.16-2.33c.64,0,1.08,.18,1.46,.59l.08-.5h.23Z"/><path class="cls-5" d="M289.64,123.39v1.63h.92v.28h-.92v3.38c0,.43,.13,.61,.42,.61,.16,0,.26-.04,.5-.19v.31c-.24,.13-.35,.17-.54,.17-.48,0-.71-.29-.71-.9v-3.38h-.63v-.28h.63v-1.45l.32-.18Z"/><path class="cls-5" d="M296.05,121.5v7.72h.68v.28h-1.67v-.28h.67v-7.44h-.67v-.29h.98Z"/><path class="cls-5" d="M298.18,125.92v-.64c.44-.26,.78-.35,1.38-.35,1.09,0,1.64,.46,1.64,1.36v2.93h.68v.28h-1v-.52c-.41,.4-.88,.6-1.4,.6-.85,0-1.49-.64-1.49-1.48s.66-1.5,1.57-1.5c.54,0,.91,.19,1.32,.66v-.97c0-.68-.47-1.08-1.27-1.08-.76,0-1.1,.22-1.15,.71h-.29Zm.12,2.21c0,.66,.55,1.16,1.26,1.16s1.35-.52,1.35-1.13c0-.71-.6-1.27-1.35-1.27s-1.26,.5-1.26,1.24Z"/><path class="cls-5" d="M303.76,129.22v-7.44h-.67v-.29h1v4.49c.49-.74,1.02-1.04,1.83-1.04,1.32,0,2.23,.94,2.23,2.3s-.88,2.34-2.18,2.34c-.83,0-1.32-.29-1.88-1.08v1h-1v-.28h.67Zm.31-1.99s-.01,.08-.01,.13c0,1.1,.83,1.93,1.91,1.93s1.86-.85,1.86-2.03-.79-2.05-1.91-2.05c-1.06,0-1.79,.79-1.85,2.01Z"/><path class="cls-5" d="M313.36,127.21h-3.69c.04,1.28,.75,2.09,1.85,2.09,.8,0,1.37-.4,1.54-1.1h.31v.36c-.5,.7-1.09,1.03-1.88,1.03-1.24,0-2.16-1.02-2.16-2.36s.88-2.28,2.04-2.28,2,.9,2,2.27Zm-.3-.28c-.02-.97-.75-1.71-1.69-1.71s-1.55,.66-1.7,1.71h3.39Z"/><path class="cls-5" d="M315.53,121.5v7.72h.68v.28h-1.67v-.28h.67v-7.44h-.67v-.29h.98Z"/><path class="cls-5" d="M324.64,125.02h1v.28h-.68v4.31c0,1.23-.86,2.05-2.18,2.05-.77,0-1.45-.34-1.76-.86-.13-.24-.18-.4-.23-.82h.32c.13,.91,.73,1.4,1.74,1.4,1.08,0,1.8-.64,1.8-1.59v-1.22c-.59,.73-1.12,1.02-1.87,1.02-1.26,0-2.22-1-2.22-2.29s.93-2.35,2.21-2.35c.8,0,1.28,.26,1.88,1.04v-.96Zm-3.78,2.24c0,1.14,.83,2.03,1.88,2.03s1.91-.88,1.91-2.03-.85-2.05-1.94-2.05-1.85,.9-1.85,2.05Z"/><path class="cls-5" d="M327.84,125.02v1.02c.42-.78,.95-1.12,1.73-1.13v.38c-.1-.01-.16-.01-.22-.01-.98,0-1.51,.74-1.51,2.16v1.78h.65v.28h-1.64v-.28h.68v-3.92h-.68v-.28h1Z"/><path class="cls-5" d="M330.03,127.25c0-1.29,1.02-2.31,2.34-2.31s2.33,1.02,2.33,2.31-1.02,2.33-2.33,2.33-2.34-1.02-2.34-2.33Zm.35,0c0,1.14,.9,2.06,1.99,2.06s1.99-.92,1.99-2.06-.9-2.05-1.99-2.05-1.99,.92-1.99,2.05Z"/><path class="cls-5" d="M339.47,129.5v-.79c-.46,.62-.89,.88-1.49,.88-.88,0-1.52-.65-1.52-1.54v-2.75h-.67v-.28h1v2.83c0,.95,.42,1.44,1.22,1.44,.55,0,1.1-.36,1.33-.89,.08-.2,.13-.49,.13-.88v-2.23h-.66v-.28h.98v4.2h.67v.28h-1Z"/><path class="cls-5" d="M342.81,125.02v.94c.52-.7,1.12-1.02,1.88-1.02,1.27,0,2.18,.98,2.18,2.36,0,1.28-.95,2.28-2.18,2.28-.82,0-1.38-.32-1.88-1.08v2.79h.65v.28h-1.7v-.28h.72v-6h-.65v-.28h.98Zm-.02,2.17c0,1.21,.78,2.1,1.85,2.1s1.92-.86,1.92-2.01-.78-2.06-1.86-2.06-1.91,.84-1.91,1.98Z"/></g><g><path class="cls-5" d="M265.98,143.61v3.61h.71v.28h-1.68v-.28h.66v-7.44h-.66v-.29h2.04c.77,0,1.21,.13,1.6,.47,.4,.35,.61,.89,.61,1.5,0,1.32-.78,2.06-2.22,2.13l2.54,3.62h.76v.28h-.96l-2.69-3.89h-.71Zm0-.26h.71c.8,0,1.31-.14,1.67-.46,.38-.35,.59-.83,.59-1.43,0-1.12-.64-1.68-1.9-1.68h-1.07v3.56Z"/><path class="cls-5" d="M274.89,145.21h-3.69c.04,1.28,.75,2.09,1.85,2.09,.8,0,1.37-.4,1.54-1.1h.31v.36c-.5,.7-1.09,1.03-1.88,1.03-1.24,0-2.16-1.02-2.16-2.36s.88-2.28,2.04-2.28,2,.9,2,2.27Zm-.3-.28c-.02-.97-.75-1.71-1.69-1.71s-1.55,.66-1.7,1.71h3.39Z"/><path class="cls-5" d="M277.13,143.02v.85c.38-.61,.89-.94,1.45-.94,.6,0,1.1,.37,1.28,.94,.38-.65,.82-.94,1.4-.94,.8,0,1.32,.61,1.32,1.55v2.74h.65v.28h-1.54v-.28h.58v-2.66c0-.86-.38-1.34-1.07-1.34-.83,0-1.34,.68-1.34,1.77v2.23h.56v.28h-1.46v-.28h.59v-2.76c0-.76-.43-1.25-1.1-1.25-.47,0-.91,.32-1.13,.79-.16,.32-.19,.56-.19,1.18v2.04h.59v.28h-1.54v-.28h.64v-3.92h-.64v-.28h.95Z"/><path class="cls-5" d="M284.49,145.25c0-1.29,1.02-2.31,2.34-2.31s2.33,1.02,2.33,2.31-1.02,2.33-2.33,2.33-2.34-1.02-2.34-2.33Zm.35,0c0,1.14,.9,2.06,1.99,2.06s1.99-.92,1.99-2.06-.9-2.05-1.99-2.05-1.99,.92-1.99,2.05Z"/><path class="cls-5" d="M292,146.97l1.51-3.67h-.67v-.28h1.61v.28h-.6l-1.73,4.2h-.25l-1.74-4.2h-.6v-.28h1.56v.28h-.61l1.52,3.67Z"/><path class="cls-5" d="M298.96,145.21h-3.69c.04,1.28,.75,2.09,1.85,2.09,.8,0,1.37-.4,1.54-1.1h.31v.36c-.5,.7-1.09,1.03-1.88,1.03-1.24,0-2.16-1.02-2.16-2.36s.88-2.28,2.04-2.28,2,.9,2,2.27Zm-.3-.28c-.02-.97-.75-1.71-1.69-1.71s-1.55,.66-1.7,1.71h3.39Z"/><path class="cls-5" d="M304.37,143.02h.8v.28h-.8v3.92h.8v.28h-1.78v-.28h.65v-3.92h-.65v-.28h.65v-2.34c0-.88,.25-1.19,.98-1.19h.14v.29h-.24c-.43,0-.56,.2-.56,.9v2.34Z"/><path class="cls-5" d="M307.54,143.02v1.02c.42-.78,.95-1.12,1.73-1.13v.38c-.1-.01-.16-.01-.22-.01-.98,0-1.51,.74-1.51,2.16v1.78h.65v.28h-1.64v-.28h.68v-3.92h-.68v-.28h1Z"/><path class="cls-5" d="M309.74,145.25c0-1.29,1.02-2.31,2.34-2.31s2.33,1.02,2.33,2.31-1.02,2.33-2.33,2.33-2.34-1.02-2.34-2.33Zm.35,0c0,1.14,.9,2.06,1.99,2.06s1.99-.92,1.99-2.06-.9-2.05-1.99-2.05-1.99,.92-1.99,2.05Z"/><path class="cls-5" d="M316.65,143.02v.85c.38-.61,.89-.94,1.45-.94,.6,0,1.1,.37,1.28,.94,.38-.65,.82-.94,1.4-.94,.8,0,1.32,.61,1.32,1.55v2.74h.65v.28h-1.54v-.28h.58v-2.66c0-.86-.38-1.34-1.07-1.34-.83,0-1.34,.68-1.34,1.77v2.23h.56v.28h-1.46v-.28h.59v-2.76c0-.76-.43-1.25-1.1-1.25-.47,0-.91,.32-1.13,.79-.16,.32-.19,.56-.19,1.18v2.04h.59v.28h-1.54v-.28h.64v-3.92h-.64v-.28h.95Z"/><path class="cls-5" d="M330.13,143.02v1.27h-.24c-.12-.71-.5-1.08-1.14-1.08-.56,0-.98,.38-.98,.88s.26,.68,1.14,.92c1.04,.26,1.4,.6,1.4,1.29,0,.77-.55,1.27-1.42,1.27-.52,0-.86-.13-1.27-.47l-.06,.38h-.22v-1.34h.22c.06,.72,.54,1.14,1.28,1.14s1.14-.36,1.14-1.01c0-.52-.26-.76-1.08-.98l-.44-.12c-.7-.19-1.02-.53-1.02-1.06,0-.71,.58-1.19,1.4-1.19,.48,0,.74,.12,1.04,.48v-.4h.24Z"/><path class="cls-5" d="M335.58,145.21h-3.69c.04,1.28,.75,2.09,1.85,2.09,.8,0,1.37-.4,1.54-1.1h.31v.36c-.5,.7-1.09,1.03-1.88,1.03-1.24,0-2.16-1.02-2.16-2.36s.88-2.28,2.04-2.28,2,.9,2,2.27Zm-.3-.28c-.02-.97-.75-1.71-1.69-1.71s-1.55,.66-1.7,1.71h3.39Z"/><path class="cls-5" d="M337.74,139.5v7.72h.68v.28h-1.67v-.28h.67v-7.44h-.67v-.29h.98Z"/><path class="cls-5" d="M343.63,145.21h-3.69c.04,1.28,.75,2.09,1.85,2.09,.8,0,1.37-.4,1.54-1.1h.31v.36c-.5,.7-1.09,1.03-1.88,1.03-1.24,0-2.16-1.02-2.16-2.36s.88-2.28,2.04-2.28,2,.9,2,2.27Zm-.3-.28c-.02-.97-.75-1.71-1.69-1.71s-1.55,.66-1.7,1.71h3.39Z"/><path class="cls-5" d="M348.74,143.02v1.49h-.31c-.07-.82-.62-1.29-1.5-1.29-1.07,0-1.8,.82-1.8,1.99s.79,2.09,1.82,2.09c.92,0,1.46-.43,1.47-1.17h.31v.54c-.48,.6-1.1,.92-1.8,.92-1.22,0-2.13-1-2.13-2.31s.89-2.33,2.16-2.33c.64,0,1.08,.18,1.46,.59l.08-.5h.23Z"/><path class="cls-5" d="M350.88,141.39v1.63h.92v.28h-.92v3.38c0,.43,.13,.61,.42,.61,.16,0,.26-.04,.5-.19v.31c-.24,.13-.35,.17-.54,.17-.48,0-.71-.29-.71-.9v-3.38h-.63v-.28h.63v-1.45l.32-.18Z"/><path class="cls-5" d="M354.23,143.02v4.2h.68v.28h-1.67v-.28h.66v-3.92h-.66v-.28h.98Zm-.47-2c0-.18,.14-.32,.32-.32s.32,.14,.32,.32-.14,.32-.32,.32-.32-.14-.32-.32Z"/><path class="cls-5" d="M356.21,145.25c0-1.29,1.02-2.31,2.34-2.31s2.33,1.02,2.33,2.31-1.02,2.33-2.33,2.33-2.34-1.02-2.34-2.33Zm.35,0c0,1.14,.9,2.06,1.99,2.06s1.99-.92,1.99-2.06-.9-2.05-1.99-2.05-1.99,.92-1.99,2.05Z"/><path class="cls-5" d="M363.17,143.02v.78c.47-.61,.89-.86,1.49-.86,.89,0,1.52,.65,1.52,1.54v2.75h.67v.28h-1.63v-.28h.65v-2.55c0-.95-.43-1.45-1.24-1.45-.55,0-1.09,.37-1.32,.9-.1,.2-.14,.49-.14,.88v2.23h.66v.28h-1.66v-.28h.68v-3.92h-.68v-.28h1Z"/></g><g><path class="cls-5" d="M264.61,161.5c0-2.27,1.79-4.08,4.02-4.08s4.04,1.81,4.04,4.08-1.8,4.08-4.04,4.08-4.02-1.82-4.02-4.08Zm4.03-3.8c-2.05,0-3.72,1.7-3.72,3.8s1.67,3.79,3.72,3.79,3.72-1.7,3.71-3.79c0-2.11-1.66-3.8-3.71-3.8Z"/><path class="cls-5" d="M274.84,161.02v.94c.52-.7,1.12-1.02,1.88-1.02,1.27,0,2.18,.98,2.18,2.36,0,1.28-.95,2.28-2.18,2.28-.82,0-1.38-.32-1.88-1.08v2.79h.65v.28h-1.7v-.28h.72v-6h-.65v-.28h.98Zm-.02,2.17c0,1.21,.78,2.1,1.85,2.1s1.92-.86,1.92-2.01-.78-2.06-1.86-2.06-1.91,.84-1.91,1.98Z"/><path class="cls-5" d="M284.12,163.21h-3.69c.04,1.28,.75,2.09,1.85,2.09,.8,0,1.37-.4,1.54-1.1h.31v.36c-.5,.7-1.09,1.03-1.88,1.03-1.24,0-2.16-1.02-2.16-2.36s.88-2.28,2.04-2.28,2,.9,2,2.27Zm-.3-.28c-.02-.97-.75-1.71-1.69-1.71s-1.55,.66-1.7,1.71h3.39Z"/><path class="cls-5" d="M286.41,161.02v.78c.47-.61,.89-.86,1.49-.86,.89,0,1.52,.65,1.52,1.54v2.75h.67v.28h-1.63v-.28h.65v-2.55c0-.95-.43-1.45-1.24-1.45-.55,0-1.09,.37-1.32,.9-.1,.2-.14,.49-.14,.88v2.23h.66v.28h-1.66v-.28h.68v-3.92h-.68v-.28h1Z"/><path class="cls-5" d="M297.48,161.02v1.27h-.24c-.12-.71-.5-1.08-1.14-1.08-.56,0-.98,.38-.98,.88s.26,.68,1.14,.92c1.04,.26,1.4,.6,1.4,1.29,0,.77-.55,1.27-1.42,1.27-.52,0-.86-.13-1.27-.47l-.06,.38h-.22v-1.34h.22c.06,.72,.54,1.14,1.28,1.14s1.14-.36,1.14-1.01c0-.52-.26-.76-1.08-.98l-.44-.12c-.7-.19-1.02-.53-1.02-1.06,0-.71,.58-1.19,1.4-1.19,.48,0,.74,.12,1.04,.48v-.4h.24Z"/><path class="cls-5" d="M302.31,161.02l1.33,4.01,1.5-3.73h-.66v-.28h1.57v.28h-.56l-1.7,4.2h-.32l-1.29-3.9-1.25,3.9h-.36l-1.69-4.2h-.62v-.28h1.59v.28h-.62l1.51,3.78,1.29-4.05h.29Z"/><path class="cls-5" d="M307.07,161.92v-.64c.44-.26,.78-.35,1.38-.35,1.09,0,1.64,.46,1.64,1.36v2.93h.68v.28h-1v-.52c-.41,.4-.88,.6-1.4,.6-.85,0-1.49-.64-1.49-1.48s.66-1.5,1.57-1.5c.54,0,.91,.19,1.32,.66v-.97c0-.68-.47-1.08-1.27-1.08-.76,0-1.1,.22-1.15,.71h-.29Zm.12,2.21c0,.66,.55,1.16,1.26,1.16s1.35-.52,1.35-1.13c0-.71-.6-1.27-1.35-1.27s-1.26,.5-1.26,1.24Z"/><path class="cls-5" d="M312.94,159.39v1.63h.92v.28h-.92v3.38c0,.43,.13,.61,.42,.61,.16,0,.26-.04,.5-.19v.31c-.24,.13-.35,.17-.54,.17-.48,0-.71-.29-.71-.9v-3.38h-.63v-.28h.63v-1.45l.32-.18Z"/><path class="cls-5" d="M318.8,161.02v1.49h-.31c-.07-.82-.62-1.29-1.5-1.29-1.07,0-1.8,.82-1.8,1.99s.79,2.09,1.82,2.09c.92,0,1.46-.43,1.47-1.17h.31v.54c-.48,.6-1.1,.92-1.8,.92-1.22,0-2.13-1-2.13-2.31s.89-2.33,2.16-2.33c.64,0,1.08,.18,1.46,.59l.08-.5h.23Z"/><path class="cls-5" d="M320.86,157.5v4.31c.47-.61,.89-.86,1.49-.86,.89,0,1.52,.65,1.52,1.54v2.75h.67v.28h-1.63v-.28h.65v-2.55c0-.95-.43-1.45-1.24-1.45-.55,0-1.09,.37-1.32,.9-.1,.2-.14,.49-.14,.88v2.23h.66v.28h-1.65v-.28h.68v-7.44h-.68v-.29h1Z"/><path class="cls-5" d="M333.01,163.21h-3.69c.04,1.28,.75,2.09,1.85,2.09,.8,0,1.37-.4,1.54-1.1h.31v.36c-.5,.7-1.09,1.03-1.88,1.03-1.24,0-2.16-1.02-2.16-2.36s.88-2.28,2.04-2.28,2,.9,2,2.27Zm-.3-.28c-.02-.97-.75-1.71-1.69-1.71s-1.55,.66-1.7,1.71h3.39Z"/><path class="cls-5" d="M338.57,157.5v7.72h.68v.28h-1.01v-.89c-.54,.66-1.13,.97-1.86,.97-1.24,0-2.19-1.01-2.19-2.33s.93-2.31,2.19-2.31c.82,0,1.37,.3,1.86,1v-4.15h-.67v-.29h1Zm-4.09,5.76c0,1.16,.83,2.04,1.91,2.04s1.87-.8,1.87-1.99c0-1.25-.74-2.09-1.85-2.09s-1.93,.86-1.93,2.04Z"/><path class="cls-5" d="M341.52,161.02v4.2h.68v.28h-1.67v-.28h.66v-3.92h-.66v-.28h.98Zm-.47-2c0-.18,.14-.32,.32-.32s.32,.14,.32,.32-.14,.32-.32,.32-.32-.14-.32-.32Z"/><path class="cls-5" d="M344.46,159.39v1.63h.92v.28h-.92v3.38c0,.43,.13,.61,.42,.61,.16,0,.26-.04,.5-.19v.31c-.24,.13-.35,.17-.54,.17-.48,0-.71-.29-.71-.9v-3.38h-.63v-.28h.63v-1.45l.32-.18Z"/><path class="cls-5" d="M346.36,163.25c0-1.29,1.02-2.31,2.34-2.31s2.33,1.02,2.33,2.31-1.02,2.33-2.33,2.33-2.34-1.02-2.34-2.33Zm.35,0c0,1.14,.9,2.06,1.99,2.06s1.99-.92,1.99-2.06-.9-2.05-1.99-2.05-1.99,.92-1.99,2.05Z"/><path class="cls-5" d="M353.32,161.02v1.02c.42-.78,.95-1.12,1.73-1.13v.38c-.1-.01-.16-.01-.22-.01-.98,0-1.51,.74-1.51,2.16v1.78h.65v.28h-1.64v-.28h.68v-3.92h-.68v-.28h1Z"/></g><g><path class="cls-8" d="M19.6,11.49v3.46h-.86c-.13-.99-.36-1.53-.81-1.96-.41-.4-1.04-.63-1.62-.63-1.15,0-1.96,.83-1.96,2.02,0,1.06,.67,1.69,2.75,2.58,1.39,.59,1.85,.88,2.29,1.46,.4,.52,.59,1.17,.59,1.96,0,1.93-1.42,3.33-3.38,3.33-1.03,0-1.71-.32-2.63-1.24l-.25,.99h-.7v-3.48h.86c.11,1.04,.32,1.55,.94,2.05,.47,.41,1.04,.63,1.64,.63,1.3,0,2.27-.97,2.27-2.23,0-.5-.14-.97-.43-1.33-.34-.41-.76-.67-2-1.19-2.36-.95-3.19-1.85-3.19-3.42,0-1.82,1.31-3.17,3.08-3.17,1.01,0,1.82,.38,2.56,1.24l.18-1.06h.68Z"/><path class="cls-8" d="M28.31,20.06h-5.46c.04,1.67,.99,2.7,2.48,2.7,1.26,0,1.8-.43,1.91-1.49h1.06v.88c-.5,.94-1.62,1.48-3.01,1.48-2.12,0-3.62-1.51-3.62-3.66s1.44-3.66,3.44-3.66,3.19,1.42,3.19,3.62v.13Zm-1.06-.74c-.13-1.3-.99-2.16-2.14-2.16s-2,.83-2.23,2.16h4.38Z"/><path class="cls-8" d="M31.98,13.96v2.5h1.35v.95h-1.35v4.23c0,.68,.2,.97,.61,.97,.23,0,.4-.05,.74-.27v1.01c-.47,.22-.67,.27-1.04,.27-.94,0-1.44-.5-1.44-1.44v-4.77h-.94v-.95h.94v-1.98l1.13-.52Z"/><path class="cls-8" d="M37.17,13.96v2.5h1.35v.95h-1.35v4.23c0,.68,.2,.97,.61,.97,.23,0,.4-.05,.74-.27v1.01c-.47,.22-.67,.27-1.04,.27-.94,0-1.44-.5-1.44-1.44v-4.77h-.94v-.95h.94v-1.98l1.13-.52Z"/><path class="cls-8" d="M42.5,16.46v6.09h.95v.95h-3.04v-.95h.94v-5.15h-.94v-.94h2.09Zm-.85-3.69c.36,0,.65,.27,.65,.59,0,.36-.27,.65-.59,.65-.36,0-.65-.27-.65-.61s.25-.63,.59-.63Z"/><path class="cls-8" d="M47.37,16.46v.97c.65-.77,1.31-1.12,2.25-1.12,1.49,0,2.49,.99,2.49,2.5v3.73h.95v.95h-2.11v-4.21c0-1.31-.56-1.98-1.66-1.98-1.19,0-1.93,.88-1.93,2.3v2.94h.92v.95h-3.01v-.95h.94v-5.11h-.94v-.97h2.09Z"/><path class="cls-8" d="M60.73,16.46h2.05v.95h-.96v5.78c0,2.29-1.35,3.62-3.65,3.62-1.28,0-2.25-.42-2.79-1.19-.31-.43-.41-.74-.61-1.58h1.08c.25,1.22,1.06,1.84,2.39,1.84,1.53,0,2.49-.9,2.49-2.36v-1.28c-.88,.88-1.69,1.26-2.72,1.26-1.96,0-3.42-1.51-3.42-3.55s1.46-3.64,3.44-3.64c1.15,0,1.87,.34,2.7,1.26v-1.12Zm-4.97,3.57c.05,1.44,1.15,2.54,2.5,2.54s2.5-1.15,2.5-2.63-1.08-2.63-2.48-2.63-2.52,1.15-2.52,2.61v.11Z"/><path class="cls-8" d="M69.3,16.46v2.12h-.67c-.2-.97-.74-1.5-1.58-1.5-.7,0-1.22,.47-1.22,1.1s.36,.9,1.48,1.19c1.71,.45,2.3,1.01,2.3,2.18,0,1.24-.94,2.07-2.34,2.07-.77,0-1.3-.18-1.96-.72l-.18,.59h-.58v-2.3h.76c.16,1.06,.77,1.62,1.78,1.62,.83,0,1.31-.43,1.31-1.17,0-.68-.29-.94-1.53-1.28-1.76-.5-2.21-.92-2.21-2.02,0-1.22,.9-2.04,2.27-2.04,.76,0,1.17,.18,1.71,.7l.13-.56h.54Z"/></g><g><rect class="cls-18" x="380.17" y="62.17" width="78" height="16"/><g><path class="cls-5" d="M387.77,70.02v.78c.47-.61,.89-.86,1.49-.86,.89,0,1.52,.65,1.52,1.54v2.75h.67v.28h-1.63v-.28h.65v-2.55c0-.95-.43-1.45-1.24-1.45-.55,0-1.09,.37-1.32,.9-.1,.2-.14,.49-.14,.88v2.23h.66v.28h-1.66v-.28h.68v-3.92h-.68v-.28h1Z"/><path class="cls-5" d="M392.71,72.25c0-1.29,1.02-2.31,2.34-2.31s2.33,1.02,2.33,2.31-1.02,2.33-2.33,2.33-2.34-1.02-2.34-2.33Zm.35,0c0,1.14,.9,2.06,1.99,2.06s1.99-.92,1.99-2.06-.9-2.05-1.99-2.05-1.99,.92-1.99,2.05Z"/><path class="cls-5" d="M399.66,70.02v.78c.47-.61,.89-.86,1.49-.86,.89,0,1.52,.65,1.52,1.54v2.75h.67v.28h-1.63v-.28h.65v-2.55c0-.95-.43-1.45-1.24-1.45-.55,0-1.09,.37-1.32,.9-.1,.2-.14,.49-.14,.88v2.23h.66v.28h-1.66v-.28h.68v-3.92h-.68v-.28h1Z"/><path class="cls-5" d="M408.64,72.21h-3.69c.04,1.28,.75,2.09,1.85,2.09,.8,0,1.37-.4,1.54-1.1h.31v.36c-.5,.7-1.09,1.03-1.88,1.03-1.24,0-2.16-1.02-2.16-2.36s.88-2.28,2.04-2.28,2,.9,2,2.27Zm-.3-.28c-.02-.97-.75-1.71-1.69-1.71s-1.55,.66-1.7,1.71h3.39Z"/></g></g><g><rect class="cls-18" x="380.17" y="80.17" width="78" height="16"/><g><path class="cls-5" d="M389.61,88.02v1.27h-.24c-.12-.71-.5-1.08-1.14-1.08-.56,0-.98,.38-.98,.88s.26,.68,1.14,.92c1.04,.26,1.4,.6,1.4,1.29,0,.77-.55,1.27-1.42,1.27-.52,0-.86-.13-1.27-.47l-.06,.38h-.22v-1.34h.22c.06,.72,.54,1.14,1.28,1.14s1.14-.36,1.14-1.01c0-.52-.26-.76-1.08-.98l-.44-.12c-.7-.19-1.02-.53-1.02-1.06,0-.71,.58-1.19,1.4-1.19,.48,0,.74,.12,1.04,.48v-.4h.24Z"/><path class="cls-5" d="M392.01,84.5v4.31c.47-.61,.89-.86,1.49-.86,.89,0,1.52,.65,1.52,1.54v2.75h.67v.28h-1.63v-.28h.65v-2.55c0-.95-.43-1.45-1.24-1.45-.55,0-1.09,.37-1.32,.9-.1,.2-.14,.49-.14,.88v2.23h.66v.28h-1.65v-.28h.68v-7.44h-.68v-.29h1Z"/><path class="cls-5" d="M398.04,88.02v4.2h.68v.28h-1.67v-.28h.66v-3.92h-.66v-.28h.98Zm-.47-2c0-.18,.14-.32,.32-.32s.32,.14,.32,.32-.14,.32-.32,.32-.32-.14-.32-.32Z"/><path class="cls-5" d="M401.08,88.02h.8v.28h-.8v3.92h.8v.28h-1.78v-.28h.65v-3.92h-.65v-.28h.65v-2.34c0-.88,.25-1.19,.98-1.19h.14v.29h-.24c-.43,0-.56,.2-.56,.9v2.34Z"/><path class="cls-5" d="M404.03,86.39v1.63h.92v.28h-.92v3.38c0,.43,.13,.61,.42,.61,.16,0,.26-.04,.5-.19v.31c-.24,.13-.35,.17-.54,.17-.48,0-.71-.29-.71-.9v-3.38h-.63v-.28h.63v-1.45l.32-.18Z"/><path class="cls-5" d="M409.36,88.42h2.45v-2.22h.31v2.22h2.45v.3h-2.45v2.22h-.31v-2.22h-2.45v-.3Z"/><path class="cls-5" d="M419.1,88.92v-.64c.44-.26,.78-.35,1.38-.35,1.09,0,1.64,.46,1.64,1.36v2.93h.68v.28h-1v-.52c-.41,.4-.88,.6-1.4,.6-.85,0-1.49-.64-1.49-1.48s.66-1.5,1.57-1.5c.54,0,.91,.19,1.32,.66v-.97c0-.68-.47-1.08-1.27-1.08-.76,0-1.1,.22-1.15,.71h-.29Zm.12,2.21c0,.66,.55,1.16,1.26,1.16s1.35-.52,1.35-1.13c0-.71-.6-1.27-1.35-1.27s-1.26,.5-1.26,1.24Z"/><path class="cls-5" d="M424.99,84.5v7.72h.68v.28h-1.67v-.28h.67v-7.44h-.67v-.29h.98Z"/><path class="cls-5" d="M427.8,86.39v1.63h.92v.28h-.92v3.38c0,.43,.13,.61,.42,.61,.16,0,.26-.04,.5-.19v.31c-.24,.13-.35,.17-.54,.17-.48,0-.71-.29-.71-.9v-3.38h-.63v-.28h.63v-1.45l.32-.18Z"/></g></g><g><rect class="cls-18" x="380.17" y="98.17" width="78" height="16"/><g><path class="cls-5" d="M390.59,106.02v1.49h-.31c-.07-.82-.62-1.29-1.5-1.29-1.07,0-1.8,.82-1.8,1.99s.79,2.09,1.82,2.09c.92,0,1.46-.43,1.47-1.17h.31v.54c-.48,.6-1.1,.92-1.8,.92-1.22,0-2.13-1-2.13-2.31s.89-2.33,2.16-2.33c.64,0,1.08,.18,1.46,.59l.08-.5h.23Z"/><path class="cls-5" d="M392.84,106.02v.85c.38-.61,.89-.94,1.45-.94,.6,0,1.1,.37,1.28,.94,.38-.65,.82-.94,1.4-.94,.8,0,1.32,.61,1.32,1.55v2.74h.65v.28h-1.54v-.28h.58v-2.66c0-.86-.38-1.34-1.07-1.34-.83,0-1.34,.68-1.34,1.77v2.23h.56v.28h-1.46v-.28h.59v-2.76c0-.76-.43-1.25-1.1-1.25-.47,0-.91,.32-1.13,.79-.16,.32-.19,.56-.19,1.18v2.04h.59v.28h-1.54v-.28h.64v-3.92h-.64v-.28h.95Z"/><path class="cls-5" d="M404.57,102.5v7.72h.68v.28h-1.01v-.89c-.54,.66-1.13,.97-1.86,.97-1.24,0-2.19-1.01-2.19-2.33s.93-2.31,2.19-2.31c.82,0,1.37,.3,1.86,1v-4.15h-.67v-.29h1Zm-4.09,5.76c0,1.16,.83,2.04,1.91,2.04s1.87-.8,1.87-1.99c0-1.25-.74-2.09-1.85-2.09s-1.93,.86-1.93,2.04Z"/></g></g><g><rect class="cls-18" x="380.17" y="116.17" width="78" height="16"/><g><path class="cls-5" d="M389.61,124.02v1.27h-.24c-.12-.71-.5-1.08-1.14-1.08-.56,0-.98,.38-.98,.88s.26,.68,1.14,.92c1.04,.26,1.4,.6,1.4,1.29,0,.77-.55,1.27-1.42,1.27-.52,0-.86-.13-1.27-.47l-.06,.38h-.22v-1.34h.22c.06,.72,.54,1.14,1.28,1.14s1.14-.36,1.14-1.01c0-.52-.26-.76-1.08-.98l-.44-.12c-.7-.19-1.02-.53-1.02-1.06,0-.71,.58-1.19,1.4-1.19,.48,0,.74,.12,1.04,.48v-.4h.24Z"/><path class="cls-5" d="M392.01,120.5v4.31c.47-.61,.89-.86,1.49-.86,.89,0,1.52,.65,1.52,1.54v2.75h.67v.28h-1.63v-.28h.65v-2.55c0-.95-.43-1.45-1.24-1.45-.55,0-1.09,.37-1.32,.9-.1,.2-.14,.49-.14,.88v2.23h.66v.28h-1.65v-.28h.68v-7.44h-.68v-.29h1Z"/><path class="cls-5" d="M398.04,124.02v4.2h.68v.28h-1.67v-.28h.66v-3.92h-.66v-.28h.98Zm-.47-2c0-.18,.14-.32,.32-.32s.32,.14,.32,.32-.14,.32-.32,.32-.32-.14-.32-.32Z"/><path class="cls-5" d="M401.08,124.02h.8v.28h-.8v3.92h.8v.28h-1.78v-.28h.65v-3.92h-.65v-.28h.65v-2.34c0-.88,.25-1.19,.98-1.19h.14v.29h-.24c-.43,0-.56,.2-.56,.9v2.34Z"/><path class="cls-5" d="M404.03,122.39v1.63h.92v.28h-.92v3.38c0,.43,.13,.61,.42,.61,.16,0,.26-.04,.5-.19v.31c-.24,.13-.35,.17-.54,.17-.48,0-.71-.29-.71-.9v-3.38h-.63v-.28h.63v-1.45l.32-.18Z"/></g></g><g><rect class="cls-18" x="380.17" y="134.17" width="78" height="16"/><g><path class="cls-5" d="M386.95,142.92v-.64c.44-.26,.78-.35,1.38-.35,1.09,0,1.64,.46,1.64,1.36v2.93h.68v.28h-1v-.52c-.41,.4-.88,.6-1.4,.6-.85,0-1.49-.64-1.49-1.48s.66-1.5,1.57-1.5c.54,0,.91,.19,1.32,.66v-.97c0-.68-.47-1.08-1.27-1.08-.76,0-1.1,.22-1.15,.71h-.29Zm.12,2.21c0,.66,.55,1.16,1.26,1.16s1.35-.52,1.35-1.13c0-.71-.6-1.27-1.35-1.27s-1.26,.5-1.26,1.24Z"/><path class="cls-5" d="M392.84,138.5v7.72h.68v.28h-1.67v-.28h.67v-7.44h-.67v-.29h.98Z"/><path class="cls-5" d="M395.65,140.39v1.63h.92v.28h-.92v3.38c0,.43,.13,.61,.42,.61,.16,0,.26-.04,.5-.19v.31c-.24,.13-.35,.17-.54,.17-.48,0-.71-.29-.71-.9v-3.38h-.63v-.28h.63v-1.45l.32-.18Z"/></g></g><g><rect class="cls-18" x="380.17" y="152.17" width="78" height="16"/><path class="cls-5" d="M390.7,162.21h-3.69c.04,1.28,.75,2.09,1.85,2.09,.8,0,1.37-.4,1.54-1.1h.31v.36c-.5,.7-1.09,1.03-1.88,1.03-1.24,0-2.16-1.02-2.16-2.36s.88-2.28,2.04-2.28,2,.9,2,2.27Zm-.3-.28c-.02-.97-.75-1.71-1.69-1.71s-1.55,.66-1.7,1.71h3.39Z"/></g><g><path class="cls-5" d="M17.47,67.5v1.87h-.24l-.11-1.58h-2.05v7.44h.73v.28h-1.74v-.28h.68v-7.44h-2.03l-.13,1.58h-.22v-1.87h5.1Z"/><path class="cls-5" d="M19.34,67.5v4.31c.47-.61,.89-.86,1.49-.86,.89,0,1.52,.65,1.52,1.54v2.75h.67v.28h-1.63v-.28h.65v-2.55c0-.95-.43-1.45-1.24-1.45-.55,0-1.09,.37-1.32,.9-.1,.2-.14,.49-.14,.88v2.23h.66v.28h-1.65v-.28h.68v-7.44h-.68v-.29h1Z"/><path class="cls-5" d="M28.32,73.21h-3.69c.04,1.28,.75,2.09,1.85,2.09,.8,0,1.37-.4,1.54-1.1h.31v.36c-.5,.7-1.09,1.03-1.88,1.03-1.24,0-2.16-1.02-2.16-2.36s.88-2.28,2.04-2.28,2,.9,2,2.27Zm-.3-.28c-.02-.97-.75-1.71-1.69-1.71s-1.55,.66-1.7,1.71h3.39Z"/><path class="cls-5" d="M30.56,71.02v.85c.38-.61,.89-.94,1.45-.94,.6,0,1.1,.37,1.28,.94,.38-.65,.82-.94,1.4-.94,.8,0,1.32,.61,1.32,1.55v2.74h.65v.28h-1.54v-.28h.58v-2.66c0-.86-.38-1.34-1.07-1.34-.83,0-1.34,.68-1.34,1.77v2.23h.56v.28h-1.46v-.28h.59v-2.76c0-.76-.43-1.25-1.1-1.25-.47,0-.91,.32-1.13,.79-.16,.32-.19,.56-.19,1.18v2.04h.59v.28h-1.54v-.28h.64v-3.92h-.64v-.28h.95Z"/><path class="cls-5" d="M41.96,73.21h-3.69c.04,1.28,.75,2.09,1.85,2.09,.8,0,1.37-.4,1.54-1.1h.31v.36c-.5,.7-1.09,1.03-1.88,1.03-1.24,0-2.16-1.02-2.16-2.36s.88-2.28,2.04-2.28,2,.9,2,2.27Zm-.3-.28c-.02-.97-.75-1.71-1.69-1.71s-1.55,.66-1.7,1.71h3.39Z"/></g><g><rect class="cls-18" x="65.26" y="62.17" width="154" height="16"/><g><path class="cls-5" d="M75.94,74.22l-3-6.96v6.61c0,.3,.06,.35,.47,.35h.26v.28h-1.67v-.28h.14c.41,0,.47-.05,.47-.35v-7.09h-.61v-.29h.95l2.99,6.92,2.93-6.92h1.09v.29h-.67v7.44h.67v.28h-1.76v-.28h.77v-7.14l-3.02,7.14Z"/><path class="cls-5" d="M81.76,70.92v-.64c.44-.26,.78-.35,1.38-.35,1.09,0,1.64,.46,1.64,1.36v2.93h.68v.28h-1v-.52c-.41,.4-.88,.6-1.4,.6-.85,0-1.49-.64-1.49-1.48s.66-1.5,1.57-1.5c.54,0,.91,.19,1.32,.66v-.97c0-.68-.47-1.08-1.27-1.08-.76,0-1.1,.22-1.15,.71h-.29Zm.12,2.21c0,.66,.55,1.16,1.26,1.16s1.35-.52,1.35-1.13c0-.71-.6-1.27-1.35-1.27s-1.26,.5-1.26,1.24Z"/><path class="cls-5" d="M87.63,68.39v1.63h.92v.28h-.92v3.38c0,.43,.13,.61,.42,.61,.16,0,.26-.04,.5-.19v.31c-.24,.13-.35,.17-.54,.17-.48,0-.71-.29-.71-.9v-3.38h-.63v-.28h.63v-1.45l.32-.18Z"/><path class="cls-5" d="M93.6,72.21h-3.69c.04,1.28,.75,2.09,1.85,2.09,.8,0,1.37-.4,1.54-1.1h.31v.36c-.5,.7-1.09,1.03-1.88,1.03-1.24,0-2.16-1.02-2.16-2.36s.88-2.28,2.04-2.28,2,.9,2,2.27Zm-.3-.28c-.02-.97-.75-1.71-1.69-1.71s-1.55,.66-1.7,1.71h3.39Z"/><path class="cls-5" d="M95.9,70.02v1.02c.42-.78,.95-1.12,1.73-1.13v.38c-.1-.01-.16-.01-.22-.01-.98,0-1.51,.74-1.51,2.16v1.78h.65v.28h-1.64v-.28h.68v-3.92h-.68v-.28h1Z"/><path class="cls-5" d="M99.46,70.02v4.2h.68v.28h-1.67v-.28h.66v-3.92h-.66v-.28h.98Zm-.47-2c0-.18,.14-.32,.32-.32s.32,.14,.32,.32-.14,.32-.32,.32-.32-.14-.32-.32Z"/><path class="cls-5" d="M101.73,70.92v-.64c.44-.26,.78-.35,1.38-.35,1.09,0,1.64,.46,1.64,1.36v2.93h.68v.28h-1v-.52c-.41,.4-.88,.6-1.4,.6-.85,0-1.49-.64-1.49-1.48s.66-1.5,1.57-1.5c.54,0,.91,.19,1.32,.66v-.97c0-.68-.47-1.08-1.27-1.08-.76,0-1.1,.22-1.15,.71h-.29Zm.12,2.21c0,.66,.55,1.16,1.26,1.16s1.35-.52,1.35-1.13c0-.71-.6-1.27-1.35-1.27s-1.26,.5-1.26,1.24Z"/><path class="cls-5" d="M107.62,66.5v7.72h.68v.28h-1.67v-.28h.67v-7.44h-.67v-.29h.98Z"/></g><polyline class="cls-5" points="212.79 69.35 209.17 72.97 205.54 69.35"/></g><g><path class="cls-5" d="M32.78,159.27v2.11h-.23c-.07-.73-.23-1.13-.56-1.45-.29-.28-.73-.46-1.13-.46-.92,0-1.56,.68-1.56,1.66,0,.36,.08,.66,.26,.94,.25,.4,.65,.66,1.45,1,1.03,.43,1.4,.66,1.68,1.03,.22,.3,.34,.72,.34,1.16,0,1.21-.86,2.1-2.05,2.1-.7,0-1.16-.24-1.73-.88l-.1,.73h-.22v-2.06h.22c.06,.73,.24,1.12,.68,1.49,.34,.29,.73,.43,1.15,.43,1,0,1.71-.77,1.71-1.81,0-.36-.08-.71-.25-.95-.24-.36-.58-.58-1.5-.95-.88-.35-1.33-.66-1.63-1.08-.23-.31-.35-.68-.35-1.13,0-1.15,.77-1.96,1.87-1.96,.66,0,1.16,.26,1.61,.86l.1-.79h.23Z"/><path class="cls-5" d="M35.39,159.27v4.31c.47-.61,.89-.86,1.49-.86,.89,0,1.52,.65,1.52,1.54v2.75h.67v.28h-1.63v-.28h.65v-2.55c0-.95-.43-1.45-1.24-1.45-.55,0-1.09,.37-1.32,.9-.1,.2-.14,.49-.14,.88v2.23h.66v.28h-1.65v-.28h.68v-7.44h-.68v-.29h1Z"/><path class="cls-5" d="M40.32,165.03c0-1.29,1.02-2.31,2.34-2.31s2.33,1.02,2.33,2.31-1.02,2.33-2.33,2.33-2.34-1.02-2.34-2.33Zm.35,0c0,1.14,.9,2.06,1.99,2.06s1.99-.92,1.99-2.06-.9-2.05-1.99-2.05-1.99,.92-1.99,2.05Z"/><path class="cls-5" d="M49.42,162.8l1.33,4.01,1.5-3.73h-.66v-.28h1.57v.28h-.56l-1.7,4.2h-.32l-1.29-3.9-1.25,3.9h-.36l-1.69-4.2h-.62v-.28h1.59v.28h-.62l1.51,3.78,1.29-4.05h.29Z"/><path class="cls-5" d="M57.95,159.27v7.72h.68v.28h-1.67v-.28h.67v-7.44h-.67v-.29h.98Z"/><path class="cls-5" d="M60.08,163.7v-.64c.44-.26,.78-.35,1.38-.35,1.09,0,1.64,.46,1.64,1.36v2.93h.68v.28h-1v-.52c-.41,.4-.88,.6-1.4,.6-.85,0-1.49-.64-1.49-1.48s.66-1.5,1.57-1.5c.54,0,.91,.19,1.32,.66v-.97c0-.68-.47-1.08-1.27-1.08-.76,0-1.1,.22-1.15,.71h-.29Zm.12,2.21c0,.66,.55,1.16,1.26,1.16s1.35-.52,1.35-1.13c0-.71-.6-1.27-1.35-1.27s-1.26,.5-1.26,1.24Z"/><path class="cls-5" d="M65.66,167v-7.44h-.67v-.29h1v4.49c.49-.74,1.02-1.04,1.83-1.04,1.32,0,2.23,.94,2.23,2.3s-.88,2.34-2.18,2.34c-.83,0-1.32-.29-1.88-1.08v1h-1v-.28h.67Zm.31-1.99s-.01,.08-.01,.13c0,1.1,.83,1.93,1.91,1.93s1.86-.85,1.86-2.03-.79-2.05-1.91-2.05c-1.06,0-1.79,.79-1.85,2.01Z"/><path class="cls-5" d="M75.26,164.98h-3.69c.04,1.28,.75,2.09,1.85,2.09,.8,0,1.37-.4,1.54-1.1h.31v.36c-.5,.7-1.09,1.03-1.88,1.03-1.24,0-2.16-1.02-2.16-2.36s.88-2.28,2.04-2.28,2,.9,2,2.27Zm-.3-.28c-.02-.97-.75-1.71-1.69-1.71s-1.55,.66-1.7,1.71h3.39Z"/><path class="cls-5" d="M77.42,159.27v7.72h.68v.28h-1.67v-.28h.67v-7.44h-.67v-.29h.98Z"/><path class="cls-5" d="M83.57,162.8v.78c.47-.61,.89-.86,1.49-.86,.89,0,1.52,.65,1.52,1.54v2.75h.67v.28h-1.63v-.28h.65v-2.55c0-.95-.43-1.45-1.24-1.45-.55,0-1.09,.37-1.32,.9-.1,.2-.14,.49-.14,.88v2.23h.66v.28h-1.66v-.28h.68v-3.92h-.68v-.28h1Z"/><path class="cls-5" d="M88.79,163.7v-.64c.44-.26,.78-.35,1.38-.35,1.09,0,1.64,.46,1.64,1.36v2.93h.68v.28h-1v-.52c-.41,.4-.88,.6-1.4,.6-.85,0-1.49-.64-1.49-1.48s.66-1.5,1.57-1.5c.54,0,.91,.19,1.32,.66v-.97c0-.68-.47-1.08-1.27-1.08-.76,0-1.1,.22-1.15,.71h-.29Zm.12,2.21c0,.66,.55,1.16,1.26,1.16s1.35-.52,1.35-1.13c0-.71-.6-1.27-1.35-1.27s-1.26,.5-1.26,1.24Z"/><path class="cls-5" d="M94.76,162.8v.85c.38-.61,.89-.94,1.45-.94,.6,0,1.1,.37,1.28,.94,.38-.65,.82-.94,1.4-.94,.8,0,1.32,.61,1.32,1.55v2.74h.65v.28h-1.54v-.28h.58v-2.66c0-.86-.38-1.34-1.07-1.34-.83,0-1.34,.68-1.34,1.77v2.23h.56v.28h-1.46v-.28h.59v-2.76c0-.76-.43-1.25-1.1-1.25-.47,0-.91,.32-1.13,.79-.16,.32-.19,.56-.19,1.18v2.04h.59v.28h-1.54v-.28h.64v-3.92h-.64v-.28h.95Z"/><path class="cls-5" d="M106.16,164.98h-3.69c.04,1.28,.75,2.09,1.85,2.09,.8,0,1.37-.4,1.54-1.1h.31v.36c-.5,.7-1.09,1.03-1.88,1.03-1.24,0-2.16-1.02-2.16-2.36s.88-2.28,2.04-2.28,2,.9,2,2.27Zm-.3-.28c-.02-.97-.75-1.71-1.69-1.71s-1.55,.66-1.7,1.71h3.39Z"/><path class="cls-5" d="M111.62,162.8v4.2h.68v.28h-1.67v-.28h.66v-3.92h-.66v-.28h.98Zm-.47-2c0-.18,.14-.32,.32-.32s.32,.14,.32,.32-.14,.32-.32,.32-.32-.14-.32-.32Z"/><path class="cls-5" d="M114.72,162.8v.78c.47-.61,.89-.86,1.49-.86,.89,0,1.52,.65,1.52,1.54v2.75h.67v.28h-1.63v-.28h.65v-2.55c0-.95-.43-1.45-1.24-1.45-.55,0-1.09,.37-1.32,.9-.1,.2-.14,.49-.14,.88v2.23h.66v.28h-1.66v-.28h.68v-3.92h-.68v-.28h1Z"/><path class="cls-5" d="M123.79,161.17v1.63h.92v.28h-.92v3.38c0,.43,.13,.61,.42,.61,.16,0,.26-.04,.5-.19v.31c-.24,.13-.35,.17-.54,.17-.48,0-.71-.29-.71-.9v-3.38h-.63v-.28h.63v-1.45l.32-.18Z"/><path class="cls-5" d="M125.69,165.03c0-1.29,1.02-2.31,2.34-2.31s2.33,1.02,2.33,2.31-1.02,2.33-2.33,2.33-2.34-1.02-2.34-2.33Zm.35,0c0,1.14,.9,2.06,1.99,2.06s1.99-.92,1.99-2.06-.9-2.05-1.99-2.05-1.99,.92-1.99,2.05Z"/><path class="cls-5" d="M131.54,165.03c0-1.29,1.02-2.31,2.34-2.31s2.33,1.02,2.33,2.31-1.02,2.33-2.33,2.33-2.34-1.02-2.34-2.33Zm.35,0c0,1.14,.9,2.06,1.99,2.06s1.99-.92,1.99-2.06-.9-2.05-1.99-2.05-1.99,.92-1.99,2.05Z"/><path class="cls-5" d="M138.36,159.27v7.72h.68v.28h-1.67v-.28h.67v-7.44h-.67v-.29h.98Z"/><path class="cls-5" d="M141.17,161.17v1.63h.92v.28h-.92v3.38c0,.43,.13,.61,.42,.61,.16,0,.26-.04,.5-.19v.31c-.24,.13-.35,.17-.54,.17-.48,0-.71-.29-.71-.9v-3.38h-.63v-.28h.63v-1.45l.32-.18Z"/><path class="cls-5" d="M144.52,162.8v4.2h.68v.28h-1.67v-.28h.66v-3.92h-.66v-.28h.98Zm-.47-2c0-.18,.14-.32,.32-.32s.32,.14,.32,.32-.14,.32-.32,.32-.32-.14-.32-.32Z"/><path class="cls-5" d="M147.55,162.8v.94c.52-.7,1.12-1.02,1.88-1.02,1.27,0,2.18,.98,2.18,2.36,0,1.28-.95,2.28-2.18,2.28-.82,0-1.38-.32-1.88-1.08v2.79h.65v.28h-1.7v-.28h.72v-6h-.65v-.28h.98Zm-.02,2.17c0,1.21,.78,2.1,1.85,2.1s1.92-.86,1.92-2.01-.78-2.06-1.86-2.06-1.91,.84-1.91,1.98Z"/></g><g><path class="cls-5" d="M32.78,177.27v2.11h-.23c-.07-.73-.23-1.13-.56-1.45-.29-.28-.73-.46-1.13-.46-.92,0-1.56,.68-1.56,1.66,0,.36,.08,.66,.26,.94,.25,.4,.65,.66,1.45,1,1.03,.43,1.4,.66,1.68,1.03,.22,.3,.34,.72,.34,1.16,0,1.21-.86,2.1-2.05,2.1-.7,0-1.16-.24-1.73-.88l-.1,.73h-.22v-2.06h.22c.06,.73,.24,1.12,.68,1.49,.34,.29,.73,.43,1.15,.43,1,0,1.71-.77,1.71-1.81,0-.36-.08-.71-.25-.95-.24-.36-.58-.58-1.5-.95-.88-.35-1.33-.66-1.63-1.08-.23-.31-.35-.68-.35-1.13,0-1.15,.77-1.96,1.87-1.96,.66,0,1.16,.26,1.61,.86l.1-.79h.23Z"/><path class="cls-5" d="M35.39,177.27v4.31c.47-.61,.89-.86,1.49-.86,.89,0,1.52,.65,1.52,1.54v2.75h.67v.28h-1.63v-.28h.65v-2.55c0-.95-.43-1.45-1.24-1.45-.55,0-1.09,.37-1.32,.9-.1,.2-.14,.49-.14,.88v2.23h.66v.28h-1.65v-.28h.68v-7.44h-.68v-.29h1Z"/><path class="cls-5" d="M40.32,183.03c0-1.29,1.02-2.31,2.34-2.31s2.33,1.02,2.33,2.31-1.02,2.33-2.33,2.33-2.34-1.02-2.34-2.33Zm.35,0c0,1.14,.9,2.06,1.99,2.06s1.99-.92,1.99-2.06-.9-2.05-1.99-2.05-1.99,.92-1.99,2.05Z"/><path class="cls-5" d="M49.42,180.8l1.33,4.01,1.5-3.73h-.66v-.28h1.57v.28h-.56l-1.7,4.2h-.32l-1.29-3.9-1.25,3.9h-.36l-1.69-4.2h-.62v-.28h1.59v.28h-.62l1.51,3.78,1.29-4.05h.29Z"/><path class="cls-5" d="M58.02,180.8h.8v.28h-.8v3.92h.8v.28h-1.78v-.28h.65v-3.92h-.65v-.28h.65v-2.34c0-.88,.25-1.19,.98-1.19h.14v.29h-.24c-.43,0-.56,.2-.56,.9v2.34Z"/><path class="cls-5" d="M61.05,180.8v4.2h.68v.28h-1.67v-.28h.66v-3.92h-.66v-.28h.98Zm-.47-2c0-.18,.14-.32,.32-.32s.32,.14,.32,.32-.14,.32-.32,.32-.32-.14-.32-.32Z"/><path class="cls-5" d="M64.01,177.27v7.72h.68v.28h-1.67v-.28h.67v-7.44h-.67v-.29h.98Z"/><path class="cls-5" d="M66.82,179.17v1.63h.92v.28h-.92v3.38c0,.43,.13,.61,.42,.61,.16,0,.26-.04,.5-.19v.31c-.24,.13-.35,.17-.54,.17-.48,0-.71-.29-.71-.9v-3.38h-.63v-.28h.63v-1.45l.32-.18Z"/><path class="cls-5" d="M72.79,182.98h-3.69c.04,1.28,.75,2.09,1.85,2.09,.8,0,1.37-.4,1.54-1.1h.31v.36c-.5,.7-1.09,1.03-1.88,1.03-1.24,0-2.16-1.02-2.16-2.36s.88-2.28,2.04-2.28,2,.9,2,2.27Zm-.3-.28c-.02-.97-.75-1.71-1.69-1.71s-1.55,.66-1.7,1.71h3.39Z"/><path class="cls-5" d="M75.09,180.8v1.02c.42-.78,.95-1.12,1.73-1.13v.38c-.1-.01-.16-.01-.22-.01-.98,0-1.51,.74-1.51,2.16v1.78h.65v.28h-1.64v-.28h.68v-3.92h-.68v-.28h1Z"/><path class="cls-5" d="M81.4,185v-7.44h-.67v-.29h1v4.49c.49-.74,1.02-1.04,1.83-1.04,1.32,0,2.23,.94,2.23,2.3s-.88,2.34-2.18,2.34c-.83,0-1.32-.29-1.88-1.08v1h-1v-.28h.67Zm.31-1.99s-.01,.08-.01,.13c0,1.1,.83,1.93,1.91,1.93s1.86-.85,1.86-2.03-.79-2.05-1.91-2.05c-1.06,0-1.79,.79-1.85,2.01Z"/><path class="cls-5" d="M90.55,185.27v-.79c-.46,.62-.89,.88-1.49,.88-.88,0-1.52-.65-1.52-1.54v-2.75h-.67v-.28h1v2.83c0,.95,.42,1.44,1.22,1.44,.55,0,1.1-.36,1.33-.89,.08-.2,.13-.49,.13-.88v-2.23h-.66v-.28h.98v4.2h.67v.28h-1Z"/><path class="cls-5" d="M93.8,179.17v1.63h.92v.28h-.92v3.38c0,.43,.13,.61,.42,.61,.16,0,.26-.04,.5-.19v.31c-.24,.13-.35,.17-.54,.17-.48,0-.71-.29-.71-.9v-3.38h-.63v-.28h.63v-1.45l.32-.18Z"/><path class="cls-5" d="M97,179.17v1.63h.92v.28h-.92v3.38c0,.43,.13,.61,.42,.61,.16,0,.26-.04,.5-.19v.31c-.24,.13-.35,.17-.54,.17-.48,0-.71-.29-.71-.9v-3.38h-.63v-.28h.63v-1.45l.32-.18Z"/><path class="cls-5" d="M98.9,183.03c0-1.29,1.02-2.31,2.34-2.31s2.33,1.02,2.33,2.31-1.02,2.33-2.33,2.33-2.34-1.02-2.34-2.33Zm.35,0c0,1.14,.9,2.06,1.99,2.06s1.99-.92,1.99-2.06-.9-2.05-1.99-2.05-1.99,.92-1.99,2.05Z"/><path class="cls-5" d="M105.86,180.8v.78c.47-.61,.89-.86,1.49-.86,.89,0,1.52,.65,1.52,1.54v2.75h.67v.28h-1.63v-.28h.65v-2.55c0-.95-.43-1.45-1.24-1.45-.55,0-1.09,.37-1.32,.9-.1,.2-.14,.49-.14,.88v2.23h.66v.28h-1.66v-.28h.68v-3.92h-.68v-.28h1Z"/></g><rect class="cls-22" x="13.76" y="156.44" width="11" height="11"/><rect class="cls-22" x="13.76" y="174.44" width="11" height="11"/><rect class="cls-23" x="13.17" y="81.17" width="50" height="14" rx=".01" ry=".01"/><rect class="cls-23" x="65.17" y="81.17" width="50" height="14" rx=".01" ry=".01"/><rect class="cls-23" x="117.17" y="81.17" width="50" height="14" rx=".01" ry=".01"/><rect class="cls-23" x="169.17" y="81.17" width="50" height="14" rx=".01" ry=".01"/><g><path class="cls-5" d="M25.52,84.16h2.29c.71,0,.95,.02,1.4,.14,.46,.12,.89,.35,1.25,.67,.74,.65,1.12,1.64,1.12,2.86,0,1.54-.7,2.79-1.88,3.34-.5,.24-.92,.32-1.67,.32h-2.51v-.25h.67v-6.82h-.67v-.26Zm.97,7.08h1.1c.3,0,.52,0,.64-.01,.47-.01,.92-.1,1.3-.28s.73-.45,1.01-.81c.52-.64,.75-1.38,.75-2.31,0-2.19-1.21-3.41-3.38-3.41h-1.42v6.82Z"/><path class="cls-5" d="M36.31,89.4h-3.39c.03,1.18,.69,1.91,1.69,1.91,.74,0,1.25-.36,1.41-1.01h.29v.33c-.46,.64-1,.95-1.73,.95-1.13,0-1.98-.94-1.98-2.17s.8-2.09,1.87-2.09,1.84,.83,1.84,2.08Zm-.27-.25c-.02-.89-.69-1.57-1.55-1.57s-1.42,.61-1.56,1.57h3.11Z"/><path class="cls-5" d="M38.29,84.16v7.08h.63v.25h-1.53v-.25h.62v-6.82h-.62v-.26h.9Z"/><path class="cls-5" d="M43.69,89.4h-3.39c.03,1.18,.69,1.91,1.69,1.91,.74,0,1.25-.36,1.41-1.01h.29v.33c-.46,.64-1,.95-1.73,.95-1.13,0-1.98-.94-1.98-2.17s.8-2.09,1.87-2.09,1.84,.83,1.84,2.08Zm-.27-.25c-.02-.89-.69-1.57-1.55-1.57s-1.42,.61-1.56,1.57h3.11Z"/><path class="cls-5" d="M45.65,85.9v1.5h.85v.25h-.85v3.1c0,.4,.12,.56,.38,.56,.14,0,.24-.03,.46-.18v.29c-.22,.12-.32,.15-.5,.15-.44,0-.65-.26-.65-.83v-3.1h-.58v-.25h.58v-1.33l.3-.17Z"/><path class="cls-5" d="M51.12,89.4h-3.39c.03,1.18,.69,1.91,1.69,1.91,.74,0,1.25-.36,1.41-1.01h.29v.33c-.46,.64-1,.95-1.73,.95-1.13,0-1.98-.94-1.98-2.17s.8-2.09,1.87-2.09,1.84,.83,1.84,2.08Zm-.27-.25c-.02-.89-.69-1.57-1.55-1.57s-1.42,.61-1.56,1.57h3.11Z"/></g><g><path class="cls-5" d="M81.28,84.16v1.72h-.21l-.13-1.45h-2.89v3.17h1.84v-.86h.25v1.99h-.25v-.91h-1.84v3.43h2.96l.12-1.49h.23v1.74h-4.26v-.25h.65v-6.82h-.65v-.26h4.18Z"/><path class="cls-5" d="M84.46,89.4l1.46,1.85h.64v.25h-1.55v-.25h.53l-1.25-1.63-1.36,1.63h.61v.25h-1.53v-.25h.56l1.54-1.85-1.4-1.75h-.54v-.25h1.54v.25h-.62l1.2,1.51,1.25-1.51h-.6v-.25h1.55v.25h-.56l-1.46,1.75Z"/><path class="cls-5" d="M88.07,87.39v.86c.47-.64,1.02-.94,1.73-.94,1.17,0,2,.9,2,2.17,0,1.18-.87,2.09-2,2.09-.75,0-1.27-.3-1.73-.99v2.56h.59v.25h-1.56v-.25h.66v-5.5h-.59v-.25h.9Zm-.02,1.99c0,1.11,.71,1.92,1.69,1.92s1.76-.79,1.76-1.85-.71-1.89-1.71-1.89-1.75,.77-1.75,1.82Z"/><path class="cls-5" d="M92.87,89.44c0-1.19,.93-2.12,2.15-2.12s2.13,.94,2.13,2.12-.93,2.13-2.13,2.13-2.15-.94-2.15-2.13Zm.32,0c0,1.05,.83,1.89,1.83,1.89s1.83-.85,1.83-1.89-.83-1.88-1.83-1.88-1.83,.85-1.83,1.88Z"/><path class="cls-5" d="M99.25,87.39v.93c.38-.71,.87-1.02,1.58-1.03v.35c-.09-.01-.14-.01-.2-.01-.9,0-1.39,.68-1.39,1.98v1.63h.59v.25h-1.51v-.25h.63v-3.6h-.63v-.25h.91Z"/><path class="cls-5" d="M102.56,85.9v1.5h.85v.25h-.85v3.1c0,.4,.12,.56,.38,.56,.14,0,.24-.03,.46-.18v.29c-.22,.12-.32,.15-.5,.15-.44,0-.65-.26-.65-.83v-3.1h-.58v-.25h.58v-1.33l.3-.17Z"/></g><g><path class="cls-5" d="M129.85,91.25h.65v.25h-1.57v-.25h.63v-6.82h-.63v-.26h1.57v.26h-.65v6.82Z"/><path class="cls-5" d="M132.94,87.39v.78c.35-.56,.81-.86,1.33-.86,.55,0,1.01,.34,1.18,.86,.35-.59,.75-.86,1.29-.86,.74,0,1.21,.56,1.21,1.42v2.51h.59v.25h-1.41v-.25h.53v-2.44c0-.79-.35-1.23-.98-1.23-.76,0-1.23,.63-1.23,1.63v2.05h.52v.25h-1.34v-.25h.54v-2.53c0-.69-.4-1.14-1.01-1.14-.43,0-.84,.3-1.03,.73-.14,.3-.18,.52-.18,1.08v1.87h.54v.25h-1.41v-.25h.58v-3.6h-.58v-.25h.87Z"/><path class="cls-5" d="M140.32,87.39v.86c.47-.64,1.02-.94,1.73-.94,1.17,0,2,.9,2,2.17,0,1.18-.87,2.09-2,2.09-.75,0-1.27-.3-1.73-.99v2.56h.59v.25h-1.56v-.25h.66v-5.5h-.59v-.25h.9Zm-.02,1.99c0,1.11,.71,1.92,1.69,1.92s1.76-.79,1.76-1.85-.71-1.89-1.71-1.89-1.75,.77-1.75,1.82Z"/><path class="cls-5" d="M145.12,89.44c0-1.19,.93-2.12,2.15-2.12s2.13,.94,2.13,2.12-.93,2.13-2.13,2.13-2.15-.94-2.15-2.13Zm.32,0c0,1.05,.83,1.89,1.83,1.89s1.83-.85,1.83-1.89-.83-1.88-1.83-1.88-1.83,.85-1.83,1.88Z"/><path class="cls-5" d="M151.5,87.39v.93c.38-.71,.87-1.02,1.58-1.03v.35c-.09-.01-.14-.01-.2-.01-.9,0-1.39,.68-1.39,1.98v1.63h.59v.25h-1.51v-.25h.63v-3.6h-.63v-.25h.91Z"/><path class="cls-5" d="M154.81,85.9v1.5h.85v.25h-.85v3.1c0,.4,.12,.56,.38,.56,.14,0,.24-.03,.46-.18v.29c-.22,.12-.32,.15-.5,.15-.44,0-.65-.26-.65-.83v-3.1h-.58v-.25h.58v-1.33l.3-.17Z"/></g><g><path class="cls-5" d="M187.96,84.16v1.94h-.21c-.07-.67-.21-1.03-.52-1.33-.26-.25-.67-.42-1.03-.42-.85,0-1.43,.63-1.43,1.52,0,.33,.08,.61,.24,.86,.23,.36,.59,.6,1.33,.91,.95,.4,1.29,.6,1.54,.95,.2,.27,.31,.66,.31,1.07,0,1.11-.79,1.93-1.88,1.93-.64,0-1.07-.22-1.58-.8l-.09,.67h-.2v-1.89h.2c.05,.67,.22,1.02,.63,1.36,.31,.26,.67,.4,1.06,.4,.91,0,1.57-.7,1.57-1.66,0-.33-.08-.65-.23-.87-.22-.33-.53-.53-1.38-.87-.8-.32-1.22-.6-1.5-.99-.21-.29-.32-.63-.32-1.03,0-1.06,.7-1.79,1.72-1.79,.61,0,1.07,.24,1.47,.79l.09-.73h.21Z"/><path class="cls-5" d="M189.69,88.22v-.58c.41-.24,.72-.32,1.27-.32,1,0,1.51,.42,1.51,1.24v2.68h.63v.25h-.91v-.47c-.37,.36-.8,.55-1.29,.55-.78,0-1.36-.58-1.36-1.35s.61-1.38,1.44-1.38c.5,0,.84,.18,1.21,.61v-.89c0-.63-.43-.99-1.17-.99-.69,0-1.01,.2-1.06,.65h-.26Zm.11,2.02c0,.6,.51,1.07,1.16,1.07s1.24-.47,1.24-1.03c0-.65-.55-1.17-1.24-1.17s-1.16,.46-1.16,1.13Z"/><path class="cls-5" d="M195.68,91.01l1.39-3.37h-.62v-.25h1.47v.25h-.55l-1.58,3.85h-.23l-1.6-3.85h-.55v-.25h1.43v.25h-.56l1.4,3.37Z"/><path class="cls-5" d="M202.06,89.4h-3.39c.03,1.18,.69,1.91,1.69,1.91,.74,0,1.25-.36,1.41-1.01h.29v.33c-.46,.64-1,.95-1.73,.95-1.13,0-1.98-.94-1.98-2.17s.8-2.09,1.87-2.09,1.84,.83,1.84,2.08Zm-.27-.25c-.02-.89-.69-1.57-1.55-1.57s-1.42,.61-1.56,1.57h3.11Z"/></g><g><path class="cls-5" d="M13.01,103.5h2.49c.78,0,1.03,.02,1.52,.16,.5,.13,.97,.38,1.37,.73,.8,.71,1.22,1.79,1.22,3.12,0,1.68-.77,3.05-2.05,3.65-.54,.26-1.01,.35-1.82,.35h-2.73v-.28h.73v-7.44h-.73v-.29Zm1.05,7.72h1.2c.32,0,.56,0,.7-.01,.52-.01,1.01-.11,1.42-.3,.41-.19,.79-.49,1.1-.89,.56-.7,.82-1.5,.82-2.52,0-2.39-1.32-3.72-3.68-3.72h-1.55v7.44Z"/><path class="cls-5" d="M24.78,109.21h-3.69c.04,1.28,.75,2.09,1.85,2.09,.8,0,1.37-.4,1.54-1.1h.31v.36c-.5,.7-1.09,1.03-1.88,1.03-1.24,0-2.16-1.02-2.16-2.36s.88-2.28,2.04-2.28,2,.9,2,2.27Zm-.3-.28c-.02-.97-.75-1.71-1.69-1.71s-1.55,.66-1.7,1.71h3.39Z"/><path class="cls-5" d="M28.9,107.02v1.27h-.24c-.12-.71-.5-1.08-1.14-1.08-.56,0-.98,.38-.98,.88s.26,.68,1.14,.92c1.04,.26,1.4,.6,1.4,1.29,0,.77-.55,1.27-1.42,1.27-.52,0-.86-.13-1.27-.47l-.06,.38h-.22v-1.34h.22c.06,.72,.54,1.14,1.28,1.14s1.14-.36,1.14-1.01c0-.52-.26-.76-1.08-.98l-.44-.12c-.7-.19-1.02-.53-1.02-1.06,0-.71,.58-1.19,1.4-1.19,.48,0,.74,.12,1.04,.48v-.4h.24Z"/><path class="cls-5" d="M31.41,107.02v4.2h.68v.28h-1.67v-.28h.66v-3.92h-.66v-.28h.98Zm-.47-2c0-.18,.14-.32,.32-.32s.32,.14,.32,.32-.14,.32-.32,.32-.32-.14-.32-.32Z"/><path class="cls-5" d="M37.48,107.02h1v.28h-.68v4.31c0,1.23-.86,2.05-2.18,2.05-.77,0-1.45-.34-1.76-.86-.13-.24-.18-.4-.23-.82h.32c.13,.91,.73,1.4,1.74,1.4,1.08,0,1.8-.64,1.8-1.59v-1.22c-.59,.73-1.12,1.02-1.87,1.02-1.26,0-2.22-1-2.22-2.29s.93-2.35,2.21-2.35c.8,0,1.28,.26,1.88,1.04v-.96Zm-3.78,2.24c0,1.14,.83,2.03,1.88,2.03s1.91-.88,1.91-2.03-.85-2.05-1.94-2.05-1.85,.9-1.85,2.05Z"/><path class="cls-5" d="M40.76,107.02v.78c.47-.61,.89-.86,1.49-.86,.89,0,1.52,.65,1.52,1.54v2.75h.67v.28h-1.63v-.28h.65v-2.55c0-.95-.43-1.45-1.24-1.45-.55,0-1.09,.37-1.32,.9-.1,.2-.14,.49-.14,.88v2.23h.66v.28h-1.66v-.28h.68v-3.92h-.68v-.28h1Z"/><path class="cls-5" d="M49.73,109.21h-3.69c.04,1.28,.75,2.09,1.85,2.09,.8,0,1.37-.4,1.54-1.1h.31v.36c-.5,.7-1.09,1.03-1.88,1.03-1.24,0-2.16-1.02-2.16-2.36s.88-2.28,2.04-2.28,2,.9,2,2.27Zm-.3-.28c-.02-.97-.75-1.71-1.69-1.71s-1.55,.66-1.7,1.71h3.39Z"/><path class="cls-5" d="M52.03,107.02v1.02c.42-.78,.95-1.12,1.73-1.13v.38c-.1-.01-.16-.01-.22-.01-.98,0-1.51,.74-1.51,2.16v1.78h.65v.28h-1.64v-.28h.68v-3.92h-.68v-.28h1Z"/><path class="cls-5" d="M55.1,107.32c0-.17,.13-.3,.3-.3,.16,0,.3,.13,.3,.3s-.14,.3-.3,.3c-.17,0-.3-.13-.3-.3Zm0,3.96c0-.17,.13-.3,.3-.3,.16,0,.3,.13,.3,.3s-.14,.3-.3,.3c-.17,0-.3-.13-.3-.3Z"/><path class="cls-5" d="M64.67,103.5v2.11h-.23c-.07-.73-.23-1.13-.56-1.45-.29-.28-.73-.46-1.13-.46-.92,0-1.56,.68-1.56,1.66,0,.36,.08,.66,.26,.94,.25,.4,.65,.66,1.45,1,1.03,.43,1.4,.66,1.68,1.03,.22,.3,.34,.72,.34,1.16,0,1.21-.86,2.1-2.05,2.1-.7,0-1.16-.24-1.73-.88l-.1,.73h-.22v-2.06h.22c.06,.73,.24,1.12,.68,1.49,.34,.29,.73,.43,1.15,.43,1,0,1.71-.77,1.71-1.81,0-.36-.08-.71-.25-.95-.24-.36-.58-.58-1.5-.95-.88-.35-1.33-.66-1.63-1.08-.23-.31-.35-.68-.35-1.13,0-1.15,.77-1.96,1.87-1.96,.66,0,1.16,.26,1.61,.86l.1-.79h.23Z"/><path class="cls-5" d="M66.29,109.25c0-1.29,1.02-2.31,2.34-2.31s2.33,1.02,2.33,2.31-1.02,2.33-2.33,2.33-2.34-1.02-2.34-2.33Zm.35,0c0,1.14,.9,2.06,1.99,2.06s1.99-.92,1.99-2.06-.9-2.05-1.99-2.05-1.99,.92-1.99,2.05Z"/><path class="cls-5" d="M73.2,107.02v.85c.38-.61,.89-.94,1.45-.94,.6,0,1.1,.37,1.28,.94,.38-.65,.82-.94,1.4-.94,.8,0,1.32,.61,1.32,1.55v2.74h.65v.28h-1.54v-.28h.58v-2.66c0-.86-.38-1.34-1.07-1.34-.83,0-1.34,.68-1.34,1.77v2.23h.56v.28h-1.46v-.28h.59v-2.76c0-.76-.43-1.25-1.1-1.25-.47,0-.91,.32-1.13,.79-.16,.32-.19,.56-.19,1.18v2.04h.59v.28h-1.54v-.28h.64v-3.92h-.64v-.28h.95Z"/><path class="cls-5" d="M84.59,109.21h-3.69c.04,1.28,.75,2.09,1.85,2.09,.8,0,1.37-.4,1.54-1.1h.31v.36c-.5,.7-1.09,1.03-1.88,1.03-1.24,0-2.16-1.02-2.16-2.36s.88-2.28,2.04-2.28,2,.9,2,2.27Zm-.3-.28c-.02-.97-.75-1.71-1.69-1.71s-1.55,.66-1.7,1.71h3.39Z"/><path class="cls-5" d="M85.77,109.25c0-1.29,1.02-2.31,2.34-2.31s2.33,1.02,2.33,2.31-1.02,2.33-2.33,2.33-2.34-1.02-2.34-2.33Zm.35,0c0,1.14,.9,2.06,1.99,2.06s1.99-.92,1.99-2.06-.9-2.05-1.99-2.05-1.99,.92-1.99,2.05Z"/><path class="cls-5" d="M92.73,107.02v.78c.47-.61,.89-.86,1.49-.86,.89,0,1.52,.65,1.52,1.54v2.75h.67v.28h-1.63v-.28h.65v-2.55c0-.95-.43-1.45-1.24-1.45-.55,0-1.09,.37-1.32,.9-.1,.2-.14,.49-.14,.88v2.23h.66v.28h-1.66v-.28h.68v-3.92h-.68v-.28h1Z"/><path class="cls-5" d="M101.71,109.21h-3.69c.04,1.28,.75,2.09,1.85,2.09,.8,0,1.37-.4,1.54-1.1h.31v.36c-.5,.7-1.09,1.03-1.88,1.03-1.24,0-2.16-1.02-2.16-2.36s.88-2.28,2.04-2.28,2,.9,2,2.27Zm-.3-.28c-.02-.97-.75-1.71-1.69-1.71s-1.55,.66-1.7,1.71h3.39Z"/><path class="cls-5" d="M106.35,107.92v-.64c.44-.26,.78-.35,1.38-.35,1.09,0,1.64,.46,1.64,1.36v2.93h.68v.28h-1v-.52c-.41,.4-.88,.6-1.4,.6-.85,0-1.49-.64-1.49-1.48s.66-1.5,1.57-1.5c.54,0,.91,.19,1.32,.66v-.97c0-.68-.47-1.08-1.27-1.08-.76,0-1.1,.22-1.15,.71h-.29Zm.12,2.21c0,.66,.55,1.16,1.26,1.16s1.35-.52,1.35-1.13c0-.71-.6-1.27-1.35-1.27s-1.26,.5-1.26,1.24Z"/><path class="cls-5" d="M112.22,105.39v1.63h.92v.28h-.92v3.38c0,.43,.13,.61,.42,.61,.16,0,.26-.04,.5-.19v.31c-.24,.13-.35,.17-.54,.17-.48,0-.71-.29-.71-.9v-3.38h-.63v-.28h.63v-1.45l.32-.18Z"/><path class="cls-5" d="M122.63,108.03h1.7v3.27h-.22l-.1-.93c-.28,.4-.42,.54-.74,.73-.53,.31-1.16,.48-1.85,.48-2.25,0-3.84-1.68-3.84-4.05s1.51-4.1,3.71-4.1c.82,0,1.63,.26,2.1,.67,.07,.07,.17,.18,.31,.32l.08-.92h.23v2.22h-.23c-.05-.68-.16-.98-.46-1.28-.46-.47-1.19-.73-2.03-.73-.92,0-1.8,.34-2.36,.9-.64,.65-1.04,1.8-1.04,2.95,0,2.21,1.46,3.74,3.56,3.74,1.38,0,2.39-.66,2.53-1.67,.04-.2,.06-.5,.06-.71,0-.47-.11-.61-.43-.61h-1v-.28Z"/><path class="cls-5" d="M125.73,109.25c0-1.29,1.02-2.31,2.34-2.31s2.33,1.02,2.33,2.31-1.02,2.33-2.33,2.33-2.34-1.02-2.34-2.33Zm.35,0c0,1.14,.9,2.06,1.99,2.06s1.99-.92,1.99-2.06-.9-2.05-1.99-2.05-1.99,.92-1.99,2.05Z"/><path class="cls-5" d="M131.58,109.25c0-1.29,1.02-2.31,2.34-2.31s2.33,1.02,2.33,2.31-1.02,2.33-2.33,2.33-2.34-1.02-2.34-2.33Zm.35,0c0,1.14,.9,2.06,1.99,2.06s1.99-.92,1.99-2.06-.9-2.05-1.99-2.05-1.99,.92-1.99,2.05Z"/><path class="cls-5" d="M141.51,107.02h1v.28h-.68v4.31c0,1.23-.86,2.05-2.18,2.05-.77,0-1.45-.34-1.76-.86-.13-.24-.18-.4-.23-.82h.32c.13,.91,.73,1.4,1.74,1.4,1.08,0,1.8-.64,1.8-1.59v-1.22c-.59,.73-1.12,1.02-1.87,1.02-1.26,0-2.22-1-2.22-2.29s.93-2.35,2.21-2.35c.8,0,1.28,.26,1.88,1.04v-.96Zm-3.78,2.24c0,1.14,.83,2.03,1.88,2.03s1.91-.88,1.91-2.03-.85-2.05-1.94-2.05-1.85,.9-1.85,2.05Z"/><path class="cls-5" d="M144.4,103.5v7.72h.68v.28h-1.67v-.28h.67v-7.44h-.67v-.29h.98Z"/><path class="cls-5" d="M150.29,109.21h-3.69c.04,1.28,.75,2.09,1.85,2.09,.8,0,1.37-.4,1.54-1.1h.31v.36c-.5,.7-1.09,1.03-1.88,1.03-1.24,0-2.16-1.02-2.16-2.36s.88-2.28,2.04-2.28,2,.9,2,2.27Zm-.3-.28c-.02-.97-.75-1.71-1.69-1.71s-1.55,.66-1.7,1.71h3.39Z"/></g><g><path class="cls-5" d="M17.62,121.5h1.79v.29h-.71v4.81c0,1.07-.14,1.58-.56,2.08-.49,.58-1.22,.91-2,.91-1.08,0-2.12-.71-2.4-1.63-.11-.34-.16-.77-.16-1.36v-4.81h-.71v-.29h1.79v.29h-.76v4.79c0,1.02,.13,1.51,.52,1.94,.43,.48,1.09,.78,1.73,.78,.95,0,1.87-.65,2.1-1.5,.1-.34,.13-.65,.13-1.22v-4.79h-.76v-.29Z"/><path class="cls-5" d="M22.11,125.61v3.61h.71v.28h-1.68v-.28h.66v-7.44h-.66v-.29h2.04c.77,0,1.21,.13,1.59,.47,.4,.35,.61,.89,.61,1.5,0,1.32-.78,2.06-2.22,2.13l2.54,3.62h.76v.28h-.96l-2.69-3.89h-.71Zm0-.26h.71c.8,0,1.31-.14,1.67-.46,.38-.35,.59-.83,.59-1.43,0-1.12-.64-1.68-1.89-1.68h-1.07v3.56Z"/><path class="cls-5" d="M31.46,127.41v2.09h-3.85v-.28h.68v-7.44h-.68v-.29h1.71v.29h-.71v7.44h2.45l.19-1.81h.2Z"/><path class="cls-5" d="M33.13,125.32c0-.17,.13-.3,.3-.3,.16,0,.3,.13,.3,.3s-.14,.3-.3,.3c-.17,0-.3-.13-.3-.3Zm0,3.96c0-.17,.13-.3,.3-.3,.16,0,.3,.13,.3,.3s-.14,.3-.3,.3c-.17,0-.3-.13-.3-.3Z"/><path class="cls-19" d="M39.67,121.5v4.31c.47-.61,.89-.86,1.49-.86,.89,0,1.52,.65,1.52,1.54v2.75h.67v.28h-1.63v-.28h.65v-2.55c0-.95-.43-1.45-1.24-1.45-.55,0-1.09,.37-1.32,.9-.1,.2-.14,.49-.14,.88v2.23h.66v.28h-1.65v-.28h.68v-7.44h-.68v-.29h1Z"/><path class="cls-19" d="M45.56,123.39v1.63h.92v.28h-.92v3.38c0,.43,.13,.61,.42,.61,.16,0,.26-.04,.5-.19v.31c-.24,.13-.35,.17-.54,.17-.48,0-.71-.29-.71-.9v-3.38h-.63v-.28h.63v-1.45l.32-.18Z"/><path class="cls-19" d="M48.76,123.39v1.63h.92v.28h-.92v3.38c0,.43,.13,.61,.42,.61,.16,0,.26-.04,.5-.19v.31c-.24,.13-.35,.17-.54,.17-.48,0-.71-.29-.71-.9v-3.38h-.63v-.28h.63v-1.45l.32-.18Z"/><path class="cls-19" d="M52.06,125.02v.94c.52-.7,1.12-1.02,1.88-1.02,1.27,0,2.18,.98,2.18,2.36,0,1.28-.95,2.28-2.18,2.28-.82,0-1.38-.32-1.88-1.08v2.79h.65v.28h-1.7v-.28h.72v-6h-.65v-.28h.98Zm-.02,2.17c0,1.21,.78,2.1,1.85,2.1s1.92-.86,1.92-2.01-.78-2.06-1.86-2.06-1.91,.84-1.91,1.98Z"/><path class="cls-19" d="M60.25,125.02v1.27h-.24c-.12-.71-.5-1.08-1.14-1.08-.56,0-.98,.38-.98,.88s.26,.68,1.14,.92c1.04,.26,1.4,.6,1.4,1.29,0,.77-.55,1.27-1.42,1.27-.52,0-.86-.13-1.27-.47l-.06,.38h-.22v-1.34h.22c.06,.72,.54,1.14,1.28,1.14s1.14-.36,1.14-1.01c0-.52-.26-.76-1.08-.98l-.44-.12c-.7-.19-1.02-.53-1.02-1.06,0-.71,.58-1.19,1.4-1.19,.48,0,.74,.12,1.04,.48v-.4h.24Z"/><path class="cls-19" d="M62.26,125.32c0-.17,.13-.3,.3-.3,.16,0,.3,.13,.3,.3s-.14,.3-.3,.3c-.17,0-.3-.13-.3-.3Zm0,3.96c0-.17,.13-.3,.3-.3,.16,0,.3,.13,.3,.3s-.14,.3-.3,.3c-.17,0-.3-.13-.3-.3Z"/><path class="cls-19" d="M69.13,121.52l-4.7,9.65-.29-.13,4.7-9.67,.29,.14Z"/><path class="cls-19" d="M74.78,121.52l-4.7,9.65-.29-.13,4.7-9.67,.29,.14Z"/><path class="cls-19" d="M77,125.02v.85c.38-.61,.89-.94,1.45-.94,.6,0,1.1,.37,1.28,.94,.38-.65,.82-.94,1.4-.94,.8,0,1.32,.61,1.32,1.55v2.74h.65v.28h-1.54v-.28h.58v-2.66c0-.86-.38-1.34-1.07-1.34-.83,0-1.34,.68-1.34,1.77v2.23h.56v.28h-1.46v-.28h.59v-2.76c0-.76-.43-1.25-1.1-1.25-.47,0-.91,.32-1.13,.79-.16,.32-.19,.56-.19,1.18v2.04h.59v.28h-1.54v-.28h.64v-3.92h-.64v-.28h.95Z"/><path class="cls-19" d="M84.64,125.92v-.64c.44-.26,.78-.35,1.38-.35,1.09,0,1.64,.46,1.64,1.36v2.93h.68v.28h-1v-.52c-.41,.4-.88,.6-1.4,.6-.85,0-1.49-.64-1.49-1.48s.66-1.5,1.57-1.5c.54,0,.91,.19,1.32,.66v-.97c0-.68-.47-1.08-1.27-1.08-.76,0-1.1,.22-1.15,.71h-.29Zm.12,2.21c0,.66,.55,1.16,1.26,1.16s1.35-.52,1.35-1.13c0-.71-.6-1.27-1.35-1.27s-1.26,.5-1.26,1.24Z"/><path class="cls-19" d="M90.51,123.39v1.63h.92v.28h-.92v3.38c0,.43,.13,.61,.42,.61,.16,0,.26-.04,.5-.19v.31c-.24,.13-.35,.17-.54,.17-.48,0-.71-.29-.71-.9v-3.38h-.63v-.28h.63v-1.45l.32-.18Z"/><path class="cls-19" d="M96.48,127.21h-3.69c.04,1.28,.75,2.09,1.85,2.09,.8,0,1.37-.4,1.54-1.1h.31v.36c-.5,.7-1.09,1.03-1.88,1.03-1.24,0-2.16-1.02-2.16-2.36s.88-2.28,2.04-2.28,2,.9,2,2.27Zm-.3-.28c-.02-.97-.75-1.71-1.69-1.71s-1.55,.66-1.7,1.71h3.39Z"/><path class="cls-19" d="M98.78,125.02v1.02c.42-.78,.95-1.12,1.73-1.13v.38c-.1-.01-.16-.01-.22-.01-.98,0-1.51,.74-1.51,2.16v1.78h.65v.28h-1.64v-.28h.68v-3.92h-.68v-.28h1Z"/><path class="cls-19" d="M102.34,125.02v4.2h.68v.28h-1.67v-.28h.66v-3.92h-.66v-.28h.98Zm-.47-2c0-.18,.14-.32,.32-.32s.32,.14,.32,.32-.14,.32-.32,.32-.32-.14-.32-.32Z"/><path class="cls-19" d="M104.61,125.92v-.64c.44-.26,.78-.35,1.38-.35,1.09,0,1.64,.46,1.64,1.36v2.93h.68v.28h-1v-.52c-.41,.4-.88,.6-1.4,.6-.85,0-1.49-.64-1.49-1.48s.66-1.5,1.57-1.5c.54,0,.91,.19,1.32,.66v-.97c0-.68-.47-1.08-1.27-1.08-.76,0-1.1,.22-1.15,.71h-.29Zm.12,2.21c0,.66,.55,1.16,1.26,1.16s1.35-.52,1.35-1.13c0-.71-.6-1.27-1.35-1.27s-1.26,.5-1.26,1.24Z"/><path class="cls-19" d="M110.5,121.5v7.72h.68v.28h-1.67v-.28h.67v-7.44h-.67v-.29h.98Z"/><path class="cls-19" d="M112.96,129.28c0-.17,.13-.3,.3-.3,.16,0,.3,.13,.3,.3s-.14,.3-.3,.3c-.17,0-.3-.13-.3-.3Z"/><path class="cls-19" d="M116.43,125.02v4.2h.68v.28h-1.67v-.28h.66v-3.92h-.66v-.28h.98Zm-.47-2c0-.18,.14-.32,.32-.32s.32,.14,.32,.32-.14,.32-.32,.32-.32-.14-.32-.32Z"/><path class="cls-19" d="M118.41,127.25c0-1.29,1.02-2.31,2.34-2.31s2.33,1.02,2.33,2.31-1.02,2.33-2.33,2.33-2.34-1.02-2.34-2.33Zm.35,0c0,1.14,.9,2.06,1.99,2.06s1.99-.92,1.99-2.06-.9-2.05-1.99-2.05-1.99,.92-1.99,2.05Z"/></g><g><rect class="cls-23" x="248.76" y="201.17" width="209" height="22" rx=".01" ry=".01"/><g><path class="cls-5" d="M310.02,211.83c0-2.08,1.64-3.74,3.69-3.74s3.71,1.66,3.71,3.74-1.65,3.74-3.71,3.74-3.69-1.67-3.69-3.74Zm3.7-3.49c-1.88,0-3.41,1.56-3.41,3.49s1.53,3.48,3.41,3.48,3.41-1.56,3.4-3.48c0-1.94-1.52-3.49-3.4-3.49Z"/><path class="cls-5" d="M319.4,211.39v.86c.47-.64,1.02-.94,1.73-.94,1.17,0,2,.9,2,2.17,0,1.18-.87,2.09-2,2.09-.75,0-1.27-.3-1.73-.99v2.56h.59v.25h-1.56v-.25h.66v-5.5h-.59v-.25h.9Zm-.02,1.99c0,1.11,.71,1.92,1.69,1.92s1.76-.79,1.76-1.85-.71-1.89-1.71-1.89-1.75,.77-1.75,1.82Z"/><path class="cls-5" d="M327.91,213.4h-3.39c.03,1.18,.69,1.91,1.69,1.91,.74,0,1.25-.36,1.41-1.01h.29v.33c-.46,.64-1,.95-1.73,.95-1.13,0-1.98-.94-1.98-2.17s.8-2.09,1.87-2.09,1.84,.83,1.84,2.08Zm-.27-.25c-.02-.89-.69-1.57-1.55-1.57s-1.42,.61-1.56,1.57h3.11Z"/><path class="cls-5" d="M330.01,211.39v.71c.43-.56,.81-.79,1.36-.79,.81,0,1.4,.59,1.4,1.41v2.52h.62v.25h-1.5v-.25h.59v-2.34c0-.87-.4-1.33-1.13-1.33-.51,0-1,.34-1.21,.83-.09,.19-.13,.45-.13,.8v2.05h.6v.25h-1.52v-.25h.63v-3.6h-.63v-.25h.91Z"/><path class="cls-5" d="M340.15,211.39v1.17h-.22c-.11-.65-.46-.99-1.04-.99-.52,0-.9,.35-.9,.8s.24,.63,1.04,.85c.96,.24,1.29,.55,1.29,1.19,0,.7-.51,1.17-1.3,1.17-.47,0-.79-.12-1.17-.43l-.06,.35h-.2v-1.23h.2c.06,.66,.5,1.04,1.18,1.04s1.04-.33,1.04-.92c0-.47-.24-.69-.99-.9l-.41-.11c-.64-.18-.93-.48-.93-.97,0-.65,.53-1.09,1.29-1.09,.44,0,.68,.11,.96,.44v-.36h.22Z"/><path class="cls-5" d="M342.46,211.39v.71c.43-.56,.81-.79,1.36-.79,.81,0,1.4,.59,1.4,1.41v2.52h.62v.25h-1.5v-.25h.59v-2.34c0-.87-.4-1.33-1.13-1.33-.51,0-1,.34-1.21,.83-.09,.19-.13,.45-.13,.8v2.05h.6v.25h-1.52v-.25h.63v-3.6h-.63v-.25h.91Z"/><path class="cls-5" d="M347.99,211.39v3.85h.63v.25h-1.53v-.25h.6v-3.6h-.6v-.25h.9Zm-.43-1.84c0-.17,.13-.3,.3-.3s.3,.13,.3,.3-.13,.3-.3,.3-.3-.13-.3-.3Z"/><path class="cls-5" d="M350.77,211.39v.86c.47-.64,1.02-.94,1.73-.94,1.17,0,2,.9,2,2.17,0,1.18-.87,2.09-2,2.09-.75,0-1.27-.3-1.73-.99v2.56h.59v.25h-1.56v-.25h.66v-5.5h-.59v-.25h.9Zm-.02,1.99c0,1.11,.71,1.92,1.69,1.92s1.76-.79,1.76-1.85-.71-1.89-1.71-1.89-1.75,.77-1.75,1.82Z"/><path class="cls-5" d="M356.54,211.39v.86c.47-.64,1.02-.94,1.73-.94,1.17,0,2,.9,2,2.17,0,1.18-.87,2.09-2,2.09-.75,0-1.27-.3-1.73-.99v2.56h.59v.25h-1.56v-.25h.66v-5.5h-.59v-.25h.9Zm-.02,1.99c0,1.11,.71,1.92,1.69,1.92s1.76-.79,1.76-1.85-.71-1.89-1.71-1.89-1.75,.77-1.75,1.82Z"/><path class="cls-5" d="M365.04,213.4h-3.39c.03,1.18,.69,1.91,1.69,1.91,.74,0,1.25-.36,1.41-1.01h.29v.33c-.46,.64-1,.95-1.73,.95-1.13,0-1.98-.94-1.98-2.17s.8-2.09,1.87-2.09,1.84,.83,1.84,2.08Zm-.27-.25c-.02-.89-.69-1.57-1.55-1.57s-1.42,.61-1.56,1.57h3.11Z"/><path class="cls-5" d="M367,209.9v1.5h.85v.25h-.85v3.1c0,.4,.12,.56,.38,.56,.14,0,.24-.03,.46-.18v.29c-.22,.12-.32,.15-.5,.15-.44,0-.65-.26-.65-.83v-3.1h-.58v-.25h.58v-1.33l.3-.17Z"/><path class="cls-5" d="M375.68,213.4h-3.39c.03,1.18,.69,1.91,1.69,1.91,.74,0,1.25-.36,1.41-1.01h.29v.33c-.46,.64-1,.95-1.73,.95-1.13,0-1.98-.94-1.98-2.17s.8-2.09,1.87-2.09,1.84,.83,1.84,2.08Zm-.27-.25c-.02-.89-.69-1.57-1.55-1.57s-1.42,.61-1.56,1.57h3.11Z"/><path class="cls-5" d="M380.77,208.16v7.08h.63v.25h-.92v-.81c-.5,.61-1.03,.89-1.71,.89-1.13,0-2.01-.92-2.01-2.13s.86-2.12,2.01-2.12c.75,0,1.25,.28,1.71,.91v-3.81h-.62v-.26h.91Zm-3.75,5.28c0,1.07,.76,1.87,1.75,1.87s1.72-.74,1.72-1.83c0-1.14-.68-1.91-1.69-1.91s-1.77,.79-1.77,1.87Z"/><path class="cls-5" d="M383.48,211.39v3.85h.63v.25h-1.53v-.25h.6v-3.6h-.6v-.25h.9Zm-.43-1.84c0-.17,.13-.3,.3-.3s.3,.13,.3,.3-.13,.3-.3,.3-.3-.13-.3-.3Z"/><path class="cls-5" d="M386.17,209.9v1.5h.85v.25h-.85v3.1c0,.4,.12,.56,.38,.56,.14,0,.24-.03,.46-.18v.29c-.22,.12-.32,.15-.5,.15-.44,0-.65-.26-.65-.83v-3.1h-.58v-.25h.58v-1.33l.3-.17Z"/><path class="cls-5" d="M387.91,213.44c0-1.19,.93-2.12,2.15-2.12s2.13,.94,2.13,2.12-.93,2.13-2.13,2.13-2.15-.94-2.15-2.13Zm.32,0c0,1.05,.83,1.89,1.83,1.89s1.83-.85,1.83-1.89-.83-1.88-1.83-1.88-1.83,.85-1.83,1.88Z"/><path class="cls-5" d="M394.3,211.39v.93c.38-.71,.87-1.02,1.58-1.03v.35c-.09-.01-.14-.01-.2-.01-.9,0-1.39,.68-1.39,1.98v1.63h.59v.25h-1.51v-.25h.63v-3.6h-.63v-.25h.91Z"/></g></g><g><rect class="cls-23" x="248.76" y="173.17" width="209" height="22" rx=".01" ry=".01"/><g><path class="cls-5" d="M325.6,183.93v3.31h.65v.25h-1.54v-.25h.6v-6.82h-.6v-.26h1.87c.7,0,1.11,.12,1.46,.43,.36,.32,.56,.81,.56,1.38,0,1.21-.72,1.89-2.04,1.96l2.33,3.32h.69v.25h-.88l-2.46-3.56h-.65Zm0-.24h.65c.74,0,1.2-.13,1.53-.42,.35-.32,.54-.76,.54-1.31,0-1.02-.58-1.54-1.74-1.54h-.98v3.27Z"/><path class="cls-5" d="M333.77,185.4h-3.39c.03,1.18,.69,1.91,1.69,1.91,.74,0,1.25-.36,1.41-1.01h.29v.33c-.46,.64-1,.95-1.73,.95-1.13,0-1.98-.94-1.98-2.17s.8-2.09,1.87-2.09,1.84,.83,1.84,2.08Zm-.27-.25c-.02-.89-.69-1.57-1.55-1.57s-1.42,.61-1.56,1.57h3.11Z"/><path class="cls-5" d="M337.55,183.39v1.17h-.22c-.11-.65-.46-.99-1.04-.99-.52,0-.9,.35-.9,.8s.24,.63,1.04,.85c.96,.24,1.29,.55,1.29,1.19,0,.7-.51,1.17-1.3,1.17-.47,0-.79-.12-1.17-.43l-.06,.35h-.2v-1.23h.2c.06,.66,.5,1.04,1.18,1.04s1.04-.33,1.04-.92c0-.47-.24-.69-.99-.9l-.41-.11c-.64-.18-.93-.48-.93-.97,0-.65,.53-1.09,1.29-1.09,.44,0,.68,.11,.96,.44v-.36h.22Z"/><path class="cls-5" d="M342.55,185.4h-3.39c.03,1.18,.69,1.91,1.69,1.91,.74,0,1.25-.36,1.41-1.01h.29v.33c-.46,.64-1,.95-1.73,.95-1.13,0-1.98-.94-1.98-2.17s.8-2.09,1.87-2.09,1.84,.83,1.84,2.08Zm-.27-.25c-.02-.89-.69-1.57-1.55-1.57s-1.42,.61-1.56,1.57h3.11Z"/><path class="cls-5" d="M344.5,181.9v1.5h.85v.25h-.85v3.1c0,.4,.12,.56,.38,.56,.14,0,.24-.03,.46-.18v.29c-.22,.12-.32,.15-.5,.15-.44,0-.65-.26-.65-.83v-3.1h-.58v-.25h.58v-1.33l.3-.17Z"/><path class="cls-5" d="M352.18,183.39v1.17h-.22c-.11-.65-.46-.99-1.04-.99-.52,0-.9,.35-.9,.8s.24,.63,1.04,.85c.96,.24,1.29,.55,1.29,1.19,0,.7-.51,1.17-1.3,1.17-.47,0-.79-.12-1.17-.43l-.06,.35h-.2v-1.23h.2c.06,.66,.5,1.04,1.18,1.04s1.04-.33,1.04-.92c0-.47-.24-.69-.99-.9l-.41-.11c-.64-.18-.93-.48-.93-.97,0-.65,.53-1.09,1.29-1.09,.44,0,.68,.11,.96,.44v-.36h.22Z"/><path class="cls-5" d="M357.18,185.4h-3.39c.03,1.18,.69,1.91,1.69,1.91,.74,0,1.25-.36,1.41-1.01h.29v.33c-.46,.64-1,.95-1.73,.95-1.13,0-1.98-.94-1.98-2.17s.8-2.09,1.87-2.09,1.84,.83,1.84,2.08Zm-.27-.25c-.02-.89-.69-1.57-1.55-1.57s-1.42,.61-1.56,1.57h3.11Z"/><path class="cls-5" d="M359.13,181.9v1.5h.85v.25h-.85v3.1c0,.4,.12,.56,.38,.56,.14,0,.24-.03,.46-.18v.29c-.22,.12-.32,.15-.5,.15-.44,0-.65-.26-.65-.83v-3.1h-.58v-.25h.58v-1.33l.3-.17Z"/><path class="cls-5" d="M362.07,181.9v1.5h.85v.25h-.85v3.1c0,.4,.12,.56,.38,.56,.14,0,.24-.03,.46-.18v.29c-.22,.12-.32,.15-.5,.15-.44,0-.65-.26-.65-.83v-3.1h-.58v-.25h.58v-1.33l.3-.17Z"/><path class="cls-5" d="M365.14,183.39v3.85h.63v.25h-1.53v-.25h.6v-3.6h-.6v-.25h.9Zm-.43-1.84c0-.17,.13-.3,.3-.3s.3,.13,.3,.3-.13,.3-.3,.3-.3-.13-.3-.3Z"/><path class="cls-5" d="M367.98,183.39v.71c.43-.56,.81-.79,1.36-.79,.81,0,1.4,.59,1.4,1.41v2.52h.62v.25h-1.5v-.25h.59v-2.34c0-.87-.4-1.33-1.13-1.33-.51,0-1,.34-1.21,.83-.09,.19-.13,.45-.13,.8v2.05h.6v.25h-1.52v-.25h.63v-3.6h-.63v-.25h.91Z"/><path class="cls-5" d="M376.25,183.39h.91v.25h-.63v3.95c0,1.13-.79,1.88-2,1.88-.7,0-1.33-.31-1.62-.79-.12-.22-.17-.36-.21-.75h.3c.12,.84,.67,1.29,1.6,1.29,.99,0,1.65-.58,1.65-1.46v-1.12c-.54,.67-1.02,.94-1.72,.94-1.16,0-2.04-.91-2.04-2.1s.86-2.16,2.02-2.16c.74,0,1.18,.24,1.73,.96v-.88Zm-3.46,2.06c0,1.04,.76,1.86,1.73,1.86s1.75-.8,1.75-1.86-.78-1.88-1.78-1.88-1.69,.83-1.69,1.88Z"/><path class="cls-5" d="M380.94,183.39v1.17h-.22c-.11-.65-.46-.99-1.04-.99-.52,0-.9,.35-.9,.8s.24,.63,1.04,.85c.96,.24,1.29,.55,1.29,1.19,0,.7-.51,1.17-1.3,1.17-.47,0-.79-.12-1.17-.43l-.06,.35h-.2v-1.23h.2c.06,.66,.5,1.04,1.18,1.04s1.04-.33,1.04-.92c0-.47-.24-.69-.99-.9l-.41-.11c-.64-.18-.93-.48-.93-.97,0-.65,.53-1.09,1.29-1.09,.44,0,.68,.11,.96,.44v-.36h.22Z"/></g></g><g><g><path class="cls-5" d="M32.78,195.27v2.11h-.23c-.07-.73-.23-1.13-.56-1.45-.29-.28-.73-.46-1.13-.46-.92,0-1.56,.68-1.56,1.66,0,.36,.08,.66,.26,.94,.25,.4,.65,.66,1.45,1,1.03,.43,1.4,.66,1.68,1.03,.22,.3,.34,.72,.34,1.16,0,1.21-.86,2.1-2.05,2.1-.7,0-1.16-.24-1.73-.88l-.1,.73h-.22v-2.06h.22c.06,.73,.24,1.12,.68,1.49,.34,.29,.73,.43,1.15,.43,1,0,1.71-.77,1.71-1.81,0-.36-.08-.71-.25-.95-.24-.36-.58-.58-1.5-.95-.88-.35-1.33-.66-1.63-1.08-.23-.31-.35-.68-.35-1.13,0-1.15,.77-1.96,1.87-1.96,.66,0,1.16,.26,1.61,.86l.1-.79h.23Z"/><path class="cls-5" d="M38.43,200.98h-3.69c.04,1.28,.75,2.09,1.85,2.09,.8,0,1.37-.4,1.54-1.1h.31v.36c-.5,.7-1.09,1.03-1.88,1.03-1.24,0-2.16-1.02-2.16-2.36s.88-2.28,2.04-2.28,2,.9,2,2.27Zm-.3-.28c-.02-.97-.75-1.71-1.69-1.71s-1.55,.66-1.7,1.71h3.39Z"/><path class="cls-5" d="M40.6,195.27v7.72h.68v.28h-1.67v-.28h.67v-7.44h-.67v-.29h.98Z"/><path class="cls-5" d="M46.49,200.98h-3.69c.04,1.28,.75,2.09,1.85,2.09,.8,0,1.37-.4,1.54-1.1h.31v.36c-.5,.7-1.09,1.03-1.88,1.03-1.24,0-2.16-1.02-2.16-2.36s.88-2.28,2.04-2.28,2,.9,2,2.27Zm-.3-.28c-.02-.97-.75-1.71-1.69-1.71s-1.55,.66-1.7,1.71h3.39Z"/><path class="cls-5" d="M51.6,198.8v1.49h-.31c-.07-.82-.62-1.29-1.5-1.29-1.07,0-1.8,.82-1.8,1.99s.79,2.09,1.82,2.09c.92,0,1.46-.43,1.47-1.17h.31v.54c-.48,.6-1.1,.92-1.8,.92-1.22,0-2.13-1-2.13-2.31s.89-2.33,2.16-2.33c.64,0,1.08,.18,1.46,.59l.08-.5h.23Z"/><path class="cls-5" d="M53.74,197.17v1.63h.92v.28h-.92v3.38c0,.43,.13,.61,.42,.61,.16,0,.26-.04,.5-.19v.31c-.24,.13-.35,.17-.54,.17-.48,0-.71-.29-.71-.9v-3.38h-.63v-.28h.63v-1.45l.32-.18Z"/><path class="cls-5" d="M60.14,195.27v7.72h.68v.28h-1.67v-.28h.67v-7.44h-.67v-.29h.98Z"/><path class="cls-5" d="M61.99,201.03c0-1.29,1.02-2.31,2.34-2.31s2.33,1.02,2.33,2.31-1.02,2.33-2.33,2.33-2.34-1.02-2.34-2.33Zm.35,0c0,1.14,.9,2.06,1.99,2.06s1.99-.92,1.99-2.06-.9-2.05-1.99-2.05-1.99,.92-1.99,2.05Z"/><path class="cls-5" d="M71.77,198.8v1.49h-.31c-.07-.82-.62-1.29-1.5-1.29-1.07,0-1.8,.82-1.8,1.99s.79,2.09,1.82,2.09c.92,0,1.46-.43,1.47-1.17h.31v.54c-.48,.6-1.1,.92-1.8,.92-1.22,0-2.13-1-2.13-2.31s.89-2.33,2.16-2.33c.64,0,1.08,.18,1.46,.59l.08-.5h.23Z"/><path class="cls-5" d="M73.84,195.27v5.66l1.8-1.86h-.64v-.28h1.76v.28h-.73l-1.91,1.94,1.91,1.98h.73v.28h-.9l-2.03-2.09v1.81h.67v.28h-1.68v-.28h.68v-7.44h-.68v-.29h1.01Z"/><path class="cls-5" d="M81.34,200.98h-3.69c.04,1.28,.75,2.09,1.85,2.09,.8,0,1.37-.4,1.54-1.1h.31v.36c-.5,.7-1.09,1.03-1.88,1.03-1.24,0-2.16-1.02-2.16-2.36s.88-2.28,2.04-2.28,2,.9,2,2.27Zm-.3-.28c-.02-.97-.75-1.71-1.69-1.71s-1.55,.66-1.7,1.71h3.39Z"/><path class="cls-5" d="M86.9,195.27v7.72h.68v.28h-1.01v-.89c-.54,.66-1.13,.97-1.86,.97-1.24,0-2.19-1.01-2.19-2.33s.93-2.31,2.19-2.31c.82,0,1.37,.3,1.86,1v-4.15h-.67v-.29h1Zm-4.09,5.76c0,1.16,.83,2.04,1.91,2.04s1.87-.8,1.87-1.99c0-1.25-.74-2.09-1.85-2.09s-1.93,.86-1.93,2.04Z"/><path class="cls-5" d="M92.91,195.27v7.72h.68v.28h-1.67v-.28h.67v-7.44h-.67v-.29h.98Z"/><path class="cls-5" d="M95.05,199.7v-.64c.44-.26,.78-.35,1.38-.35,1.09,0,1.64,.46,1.64,1.36v2.93h.68v.28h-1v-.52c-.41,.4-.88,.6-1.4,.6-.85,0-1.49-.64-1.49-1.48s.66-1.5,1.57-1.5c.54,0,.91,.19,1.32,.66v-.97c0-.68-.47-1.08-1.27-1.08-.76,0-1.1,.22-1.15,.71h-.29Zm.12,2.21c0,.66,.55,1.16,1.26,1.16s1.35-.52,1.35-1.13c0-.71-.6-1.27-1.35-1.27s-1.26,.5-1.26,1.24Z"/><path class="cls-5" d="M101.5,202.87l1.56-3.79h-.66v-.28h1.64v.28h-.66l-2.51,6.12h1.22v.28h-1.68l.9-2.19-1.61-4.2h-.61v-.28h1.62v.28h-.67l1.45,3.79Z"/><path class="cls-5" d="M108.52,200.98h-3.69c.04,1.28,.75,2.09,1.85,2.09,.8,0,1.37-.4,1.54-1.1h.31v.36c-.5,.7-1.09,1.03-1.88,1.03-1.24,0-2.16-1.02-2.16-2.36s.88-2.28,2.04-2.28,2,.9,2,2.27Zm-.3-.28c-.02-.97-.75-1.71-1.69-1.71s-1.55,.66-1.7,1.71h3.39Z"/><path class="cls-5" d="M110.82,198.8v1.02c.42-.78,.95-1.12,1.73-1.13v.38c-.1-.01-.16-.01-.22-.01-.98,0-1.51,.74-1.51,2.16v1.78h.65v.28h-1.64v-.28h.68v-3.92h-.68v-.28h1Z"/><path class="cls-5" d="M116.16,198.8v1.27h-.24c-.12-.71-.5-1.08-1.14-1.08-.56,0-.98,.38-.98,.88s.26,.68,1.14,.92c1.04,.26,1.4,.6,1.4,1.29,0,.77-.55,1.27-1.42,1.27-.52,0-.86-.13-1.27-.47l-.06,.38h-.22v-1.34h.22c.06,.72,.54,1.14,1.28,1.14s1.14-.36,1.14-1.01c0-.52-.26-.76-1.08-.98l-.44-.12c-.7-.19-1.02-.53-1.02-1.06,0-.71,.58-1.19,1.4-1.19,.48,0,.74,.12,1.04,.48v-.4h.24Z"/></g><rect class="cls-22" x="13.76" y="192.44" width="11" height="11"/><rect class="cls-5" x="17.26" y="195.94" width="4" height="4"/></g><g><g><path class="cls-5" d="M31.74,213.27l2.7,7.72h.79v.28h-1.83v-.28h.72l-.89-2.55h-3.19l-.71,2.03-.07,.2c-.02,.07-.04,.12-.04,.17,0,.11,.08,.16,.26,.16h.42v.28h-1.81v-.28h.3c.3,0,.4-.06,.49-.28l.07-.2,.05-.13,2.4-6.82h-.82v-.29h1.15Zm1.4,4.94l-1.52-4.33-1.51,4.33h3.03Z"/><path class="cls-5" d="M36.79,216.8v.94c.52-.7,1.12-1.02,1.88-1.02,1.27,0,2.18,.98,2.18,2.36,0,1.28-.95,2.28-2.18,2.28-.82,0-1.38-.32-1.88-1.08v2.79h.65v.28h-1.7v-.28h.72v-6h-.65v-.28h.98Zm-.02,2.17c0,1.21,.78,2.1,1.85,2.1s1.92-.86,1.92-2.01-.78-2.06-1.86-2.06-1.91,.84-1.91,1.98Z"/><path class="cls-5" d="M43.08,216.8v.94c.52-.7,1.12-1.02,1.88-1.02,1.27,0,2.18,.98,2.18,2.36,0,1.28-.95,2.28-2.18,2.28-.82,0-1.38-.32-1.88-1.08v2.79h.65v.28h-1.7v-.28h.72v-6h-.65v-.28h.98Zm-.02,2.17c0,1.21,.78,2.1,1.85,2.1s1.92-.86,1.92-2.01-.78-2.06-1.86-2.06-1.91,.84-1.91,1.98Z"/><path class="cls-5" d="M52.35,218.98h-3.69c.04,1.28,.75,2.09,1.85,2.09,.8,0,1.37-.4,1.54-1.1h.31v.36c-.5,.7-1.09,1.03-1.88,1.03-1.24,0-2.16-1.02-2.16-2.36s.88-2.28,2.04-2.28,2,.9,2,2.27Zm-.3-.28c-.02-.97-.75-1.71-1.69-1.71s-1.55,.66-1.7,1.71h3.39Z"/><path class="cls-5" d="M54.65,216.8v.78c.47-.61,.89-.86,1.49-.86,.89,0,1.52,.65,1.52,1.54v2.75h.67v.28h-1.63v-.28h.65v-2.55c0-.95-.43-1.45-1.24-1.45-.55,0-1.09,.37-1.32,.9-.1,.2-.14,.49-.14,.88v2.23h.66v.28h-1.66v-.28h.68v-3.92h-.68v-.28h1Z"/><path class="cls-5" d="M63.96,213.27v7.72h.68v.28h-1.01v-.89c-.54,.66-1.13,.97-1.86,.97-1.24,0-2.19-1.01-2.19-2.33s.93-2.31,2.19-2.31c.82,0,1.37,.3,1.86,1v-4.15h-.67v-.29h1Zm-4.09,5.76c0,1.16,.83,2.04,1.91,2.04s1.87-.8,1.87-1.99c0-1.25-.74-2.09-1.85-2.09s-1.93,.86-1.93,2.04Z"/><path class="cls-5" d="M69.95,215.17v1.63h.92v.28h-.92v3.38c0,.43,.13,.61,.42,.61,.16,0,.26-.04,.5-.19v.31c-.24,.13-.35,.17-.54,.17-.48,0-.71-.29-.71-.9v-3.38h-.63v-.28h.63v-1.45l.32-.18Z"/><path class="cls-5" d="M71.85,219.03c0-1.29,1.02-2.31,2.34-2.31s2.33,1.02,2.33,2.31-1.02,2.33-2.33,2.33-2.34-1.02-2.34-2.33Zm.35,0c0,1.14,.9,2.06,1.99,2.06s1.99-.92,1.99-2.06-.9-2.05-1.99-2.05-1.99,.92-1.99,2.05Z"/><path class="cls-5" d="M83.82,216.8v1.27h-.24c-.12-.71-.5-1.08-1.14-1.08-.56,0-.98,.38-.98,.88s.26,.68,1.14,.92c1.04,.26,1.4,.6,1.4,1.29,0,.77-.55,1.27-1.42,1.27-.52,0-.86-.13-1.27-.47l-.06,.38h-.22v-1.34h.22c.06,.72,.54,1.14,1.28,1.14s1.14-.36,1.14-1.01c0-.52-.26-.76-1.08-.98l-.44-.12c-.7-.19-1.02-.53-1.02-1.06,0-.71,.58-1.19,1.4-1.19,.48,0,.74,.12,1.04,.48v-.4h.24Z"/><path class="cls-5" d="M89.27,218.98h-3.69c.04,1.28,.75,2.09,1.85,2.09,.8,0,1.37-.4,1.54-1.1h.31v.36c-.5,.7-1.09,1.03-1.88,1.03-1.24,0-2.16-1.02-2.16-2.36s.88-2.28,2.04-2.28,2,.9,2,2.27Zm-.3-.28c-.02-.97-.75-1.71-1.69-1.71s-1.55,.66-1.7,1.71h3.39Z"/><path class="cls-5" d="M91.43,213.27v7.72h.68v.28h-1.67v-.28h.67v-7.44h-.67v-.29h.98Z"/><path class="cls-5" d="M97.32,218.98h-3.69c.04,1.28,.75,2.09,1.85,2.09,.8,0,1.37-.4,1.54-1.1h.31v.36c-.5,.7-1.09,1.03-1.88,1.03-1.24,0-2.16-1.02-2.16-2.36s.88-2.28,2.04-2.28,2,.9,2,2.27Zm-.3-.28c-.02-.97-.75-1.71-1.69-1.71s-1.55,.66-1.7,1.71h3.39Z"/><path class="cls-5" d="M102.43,216.8v1.49h-.31c-.07-.82-.62-1.29-1.5-1.29-1.07,0-1.8,.82-1.8,1.99s.79,2.09,1.82,2.09c.92,0,1.46-.43,1.47-1.17h.31v.54c-.48,.6-1.1,.92-1.8,.92-1.22,0-2.13-1-2.13-2.31s.89-2.33,2.16-2.33c.64,0,1.08,.18,1.46,.59l.08-.5h.23Z"/><path class="cls-5" d="M104.57,215.17v1.63h.92v.28h-.92v3.38c0,.43,.13,.61,.42,.61,.16,0,.26-.04,.5-.19v.31c-.24,.13-.35,.17-.54,.17-.48,0-.71-.29-.71-.9v-3.38h-.63v-.28h.63v-1.45l.32-.18Z"/><path class="cls-5" d="M107.92,216.8v4.2h.68v.28h-1.67v-.28h.66v-3.92h-.66v-.28h.98Zm-.47-2c0-.18,.14-.32,.32-.32s.32,.14,.32,.32-.14,.32-.32,.32-.32-.14-.32-.32Z"/><path class="cls-5" d="M109.9,219.03c0-1.29,1.02-2.31,2.34-2.31s2.33,1.02,2.33,2.31-1.02,2.33-2.33,2.33-2.34-1.02-2.34-2.33Zm.35,0c0,1.14,.9,2.06,1.99,2.06s1.99-.92,1.99-2.06-.9-2.05-1.99-2.05-1.99,.92-1.99,2.05Z"/><path class="cls-5" d="M116.86,216.8v.78c.47-.61,.89-.86,1.49-.86,.89,0,1.52,.65,1.52,1.54v2.75h.67v.28h-1.63v-.28h.65v-2.55c0-.95-.43-1.45-1.24-1.45-.55,0-1.09,.37-1.32,.9-.1,.2-.14,.49-.14,.88v2.23h.66v.28h-1.66v-.28h.68v-3.92h-.68v-.28h1Z"/><path class="cls-5" d="M128.4,216.8l1.33,4.01,1.5-3.73h-.66v-.28h1.57v.28h-.56l-1.7,4.2h-.32l-1.29-3.9-1.25,3.9h-.36l-1.69-4.2h-.62v-.28h1.59v.28h-.62l1.51,3.78,1.29-4.05h.29Z"/><path class="cls-5" d="M133.76,213.27v4.31c.47-.61,.89-.86,1.49-.86,.89,0,1.52,.65,1.52,1.54v2.75h.67v.28h-1.63v-.28h.65v-2.55c0-.95-.43-1.45-1.24-1.45-.55,0-1.09,.37-1.32,.9-.1,.2-.14,.49-.14,.88v2.23h.66v.28h-1.65v-.28h.68v-7.44h-.68v-.29h1Z"/><path class="cls-5" d="M142.73,218.98h-3.69c.04,1.28,.75,2.09,1.85,2.09,.8,0,1.37-.4,1.54-1.1h.31v.36c-.5,.7-1.09,1.03-1.88,1.03-1.24,0-2.16-1.02-2.16-2.36s.88-2.28,2.04-2.28,2,.9,2,2.27Zm-.3-.28c-.02-.97-.75-1.71-1.69-1.71s-1.55,.66-1.7,1.71h3.39Z"/><path class="cls-5" d="M145.02,216.8v.78c.47-.61,.89-.86,1.49-.86,.89,0,1.52,.65,1.52,1.54v2.75h.67v.28h-1.63v-.28h.65v-2.55c0-.95-.43-1.45-1.24-1.45-.55,0-1.09,.37-1.32,.9-.1,.2-.14,.49-.14,.88v2.23h.66v.28h-1.66v-.28h.68v-3.92h-.68v-.28h1Z"/><path class="cls-5" d="M156.09,216.8v1.27h-.24c-.12-.71-.5-1.08-1.14-1.08-.56,0-.98,.38-.98,.88s.26,.68,1.14,.92c1.04,.26,1.4,.6,1.4,1.29,0,.77-.55,1.27-1.42,1.27-.52,0-.86-.13-1.27-.47l-.06,.38h-.22v-1.34h.22c.06,.72,.54,1.14,1.28,1.14s1.14-.36,1.14-1.01c0-.52-.26-.76-1.08-.98l-.44-.12c-.7-.19-1.02-.53-1.02-1.06,0-.71,.58-1.19,1.4-1.19,.48,0,.74,.12,1.04,.48v-.4h.24Z"/><path class="cls-5" d="M161.53,218.98h-3.69c.04,1.28,.75,2.09,1.85,2.09,.8,0,1.37-.4,1.54-1.1h.31v.36c-.5,.7-1.09,1.03-1.88,1.03-1.24,0-2.16-1.02-2.16-2.36s.88-2.28,2.04-2.28,2,.9,2,2.27Zm-.3-.28c-.02-.97-.75-1.71-1.69-1.71s-1.55,.66-1.7,1.71h3.39Z"/><path class="cls-5" d="M163.7,213.27v7.72h.68v.28h-1.67v-.28h.67v-7.44h-.67v-.29h.98Z"/><path class="cls-5" d="M169.58,218.98h-3.69c.04,1.28,.75,2.09,1.85,2.09,.8,0,1.37-.4,1.54-1.1h.31v.36c-.5,.7-1.09,1.03-1.88,1.03-1.24,0-2.16-1.02-2.16-2.36s.88-2.28,2.04-2.28,2,.9,2,2.27Zm-.3-.28c-.02-.97-.75-1.71-1.69-1.71s-1.55,.66-1.7,1.71h3.39Z"/><path class="cls-5" d="M174.7,216.8v1.49h-.31c-.07-.82-.62-1.29-1.5-1.29-1.07,0-1.8,.82-1.8,1.99s.79,2.09,1.82,2.09c.92,0,1.46-.43,1.47-1.17h.31v.54c-.48,.6-1.1,.92-1.8,.92-1.22,0-2.13-1-2.13-2.31s.89-2.33,2.16-2.33c.64,0,1.08,.18,1.46,.59l.08-.5h.23Z"/><path class="cls-5" d="M176.83,215.17v1.63h.92v.28h-.92v3.38c0,.43,.13,.61,.42,.61,.16,0,.26-.04,.5-.19v.31c-.24,.13-.35,.17-.54,.17-.48,0-.71-.29-.71-.9v-3.38h-.63v-.28h.63v-1.45l.32-.18Z"/><path class="cls-5" d="M180.18,216.8v4.2h.68v.28h-1.67v-.28h.66v-3.92h-.66v-.28h.98Zm-.47-2c0-.18,.14-.32,.32-.32s.32,.14,.32,.32-.14,.32-.32,.32-.32-.14-.32-.32Z"/><path class="cls-5" d="M183.28,216.8v.78c.47-.61,.89-.86,1.49-.86,.89,0,1.52,.65,1.52,1.54v2.75h.67v.28h-1.63v-.28h.65v-2.55c0-.95-.43-1.45-1.24-1.45-.55,0-1.09,.37-1.32,.9-.1,.2-.14,.49-.14,.88v2.23h.66v.28h-1.66v-.28h.68v-3.92h-.68v-.28h1Z"/><path class="cls-5" d="M192.3,216.8h1v.28h-.68v4.31c0,1.23-.86,2.05-2.18,2.05-.77,0-1.45-.34-1.76-.86-.13-.24-.18-.4-.23-.82h.32c.13,.91,.73,1.4,1.74,1.4,1.08,0,1.8-.64,1.8-1.59v-1.22c-.59,.73-1.12,1.02-1.87,1.02-1.26,0-2.22-1-2.22-2.29s.93-2.35,2.21-2.35c.8,0,1.28,.26,1.88,1.04v-.96Zm-3.78,2.24c0,1.14,.83,2.03,1.88,2.03s1.91-.88,1.91-2.03-.85-2.05-1.94-2.05-1.85,.9-1.85,2.05Z"/></g><rect class="cls-22" x="13.76" y="210.44" width="11" height="11"/><rect class="cls-5" x="17.26" y="213.94" width="4" height="4"/></g><rect class="cls-5" x="17.26" y="177.94" width="4" height="4"/><rect class="cls-5" x="17.26" y="159.94" width="4" height="4"/><rect class="cls-22" x="248.67" y="65.67" width="11" height="11"/><rect class="cls-22" x="248.67" y="83.67" width="11" height="11"/><rect class="cls-22" x="248.67" y="101.67" width="11" height="11"/><rect class="cls-5" x="252.17" y="105.17" width="4" height="4"/><rect class="cls-5" x="252.17" y="87.17" width="4" height="4"/><rect class="cls-5" x="252.17" y="69.17" width="4" height="4"/><rect class="cls-22" x="248.67" y="119.67" width="11" height="11"/><rect class="cls-5" x="252.17" y="123.17" width="4" height="4"/><rect class="cls-22" x="248.67" y="137.67" width="11" height="11"/><rect class="cls-5" x="252.17" y="141.17" width="4" height="4"/><rect class="cls-22" x="248.67" y="155.67" width="11" height="11"/><rect class="cls-5" x="252.17" y="159.17" width="4" height="4"/><g id="Layer_2-2"><rect class="cls-7" x="13.26" y="42.94" width="27.81" height="10"/><rect class="cls-10" x="41.07" y="42.94" width="27.81" height="10"/><rect class="cls-17" x="68.89" y="42.94" width="27.81" height="10"/><rect class="cls-12" x="96.7" y="42.94" width="27.81" height="10"/><rect class="cls-16" x="124.51" y="42.94" width="27.81" height="10"/><rect class="cls-15" x="152.32" y="42.94" width="27.81" height="10"/><rect class="cls-2" x="180.14" y="42.94" width="27.81" height="10"/><rect class="cls-1" x="207.95" y="42.94" width="27.81" height="10"/><rect class="cls-3" x="235.76" y="42.94" width="27.81" height="10"/><rect class="cls-20" x="263.57" y="42.94" width="27.81" height="10"/><rect class="cls-13" x="291.39" y="42.94" width="27.81" height="10"/><rect class="cls-14" x="319.2" y="42.94" width="27.81" height="10"/><rect class="cls-6" x="347.01" y="42.94" width="27.81" height="10"/><rect class="cls-9" x="374.82" y="42.94" width="27.81" height="10"/><rect class="cls-11" x="402.64" y="42.94" width="27.81" height="10"/><rect class="cls-4" x="430.45" y="42.94" width="27.81" height="10"/></g></g></svg>