<?xml version="1.0" encoding="UTF-8"?><svg id="Layer_2" xmlns="http://www.w3.org/2000/svg" viewBox="0 0 469.67 196.67"><defs><style>.cls-1{fill:#01bcd4;}.cls-2{fill:#03a9f4;}.cls-3{fill:#019688;}.cls-4{fill:#ff5722;}.cls-5,.cls-6{fill:#fff;}.cls-7{fill:#ffeb3b;}.cls-8{fill:#f44336;}.cls-9{fill:#efc64a;}.cls-10{fill:#ffc107;}.cls-11{fill:#e91e63;}.cls-12{fill:#ff9801;}.cls-13{fill:#673ab7;}.cls-14{fill:#8bc34a;}.cls-15{fill:#cddc39;}.cls-16{fill:#2196f3;}.cls-17{fill:#3f51b5;}.cls-18{fill:#9c27b0;}.cls-19{fill:#262626;}.cls-20{fill:#4caf50;}.cls-21{fill:#404040;stroke:#41b0d6;}.cls-21,.cls-22,.cls-23,.cls-24{stroke-miterlimit:10;}.cls-25{fill:#727272;}.cls-25,.cls-6{fill-rule:evenodd;}.cls-22{stroke:#fff;}.cls-22,.cls-23,.cls-24{fill:none;stroke-width:.5px;}.cls-23{stroke:#d6d6d6;}.cls-24{stroke:#727272;}</style></defs><g id="Snippet_editor"><polygon class="cls-21" points=".5 .5 .5 196.17 469.17 196.17 469.17 32.5 130.83 32.5 130.83 .5 .5 .5"/><g><path class="cls-9" d="M19.6,11.49v3.46h-.86c-.13-.99-.36-1.53-.81-1.96-.41-.4-1.04-.63-1.62-.63-1.15,0-1.96,.83-1.96,2.02,0,1.06,.67,1.69,2.75,2.58,1.39,.59,1.85,.88,2.29,1.46,.4,.52,.59,1.17,.59,1.96,0,1.93-1.42,3.33-3.38,3.33-1.03,0-1.71-.32-2.63-1.24l-.25,.99h-.7v-3.48h.86c.11,1.04,.32,1.55,.94,2.05,.47,.41,1.04,.63,1.64,.63,1.3,0,2.27-.97,2.27-2.23,0-.5-.14-.97-.43-1.33-.34-.41-.76-.67-2-1.19-2.36-.95-3.19-1.85-3.19-3.42,0-1.82,1.31-3.17,3.08-3.17,1.01,0,1.82,.38,2.56,1.24l.18-1.06h.68Z"/><path class="cls-9" d="M23.99,16.46v.97c.65-.77,1.31-1.12,2.25-1.12,1.49,0,2.48,.99,2.48,2.5v3.73h.96v.95h-2.11v-4.21c0-1.31-.56-1.98-1.66-1.98-1.19,0-1.93,.88-1.93,2.3v2.94h.92v.95h-3.01v-.95h.94v-5.11h-.94v-.97h2.09Z"/><path class="cls-9" d="M33.55,16.46v6.09h.96v.95h-3.04v-.95h.94v-5.15h-.94v-.94h2.09Zm-.85-3.69c.36,0,.65,.27,.65,.59,0,.36-.27,.65-.59,.65-.36,0-.65-.27-.65-.61s.25-.63,.59-.63Z"/><path class="cls-9" d="M38.3,16.46v1.19c.7-.94,1.51-1.33,2.7-1.33,2.03,0,3.49,1.55,3.49,3.71s-1.48,3.6-3.42,3.6c-1.13,0-1.87-.34-2.77-1.31v3.33h1.01v.95h-3.13v-.95h.97v-8.23h-.97v-.95h2.12Zm-.04,3.42c0,1.58,1.08,2.75,2.52,2.75s2.54-1.17,2.54-2.67c0-1.6-1.08-2.75-2.52-2.75s-2.54,1.13-2.54,2.67Z"/><path class="cls-9" d="M48.13,16.46v1.19c.7-.94,1.51-1.33,2.7-1.33,2.03,0,3.49,1.55,3.49,3.71s-1.48,3.6-3.42,3.6c-1.13,0-1.87-.34-2.77-1.31v3.33h1.01v.95h-3.13v-.95h.97v-8.23h-.97v-.95h2.12Zm-.04,3.42c0,1.58,1.08,2.75,2.52,2.75s2.54-1.17,2.54-2.67c0-1.6-1.08-2.75-2.52-2.75s-2.54,1.13-2.54,2.67Z"/><path class="cls-9" d="M62.41,20.06h-5.46c.04,1.67,.99,2.7,2.48,2.7,1.26,0,1.8-.43,1.91-1.49h1.06v.88c-.5,.94-1.62,1.48-3.01,1.48-2.12,0-3.62-1.51-3.62-3.66s1.44-3.66,3.44-3.66,3.19,1.42,3.19,3.62v.13Zm-1.06-.74c-.13-1.3-.99-2.16-2.14-2.16s-2,.83-2.23,2.16h4.38Z"/><path class="cls-9" d="M66.08,13.96v2.5h1.35v.95h-1.35v4.23c0,.68,.2,.97,.61,.97,.23,0,.4-.05,.74-.27v1.01c-.47,.22-.67,.27-1.04,.27-.94,0-1.44-.5-1.44-1.44v-4.77h-.94v-.95h.94v-1.98l1.13-.52Z"/><path class="cls-9" d="M80.46,20.06h-5.46c.04,1.67,.99,2.7,2.48,2.7,1.26,0,1.8-.43,1.91-1.49h1.06v.88c-.5,.94-1.62,1.48-3.01,1.48-2.12,0-3.62-1.51-3.62-3.66s1.44-3.66,3.44-3.66,3.19,1.42,3.19,3.62v.13Zm-1.06-.74c-.13-1.3-.99-2.16-2.14-2.16s-2,.83-2.23,2.16h4.38Z"/><path class="cls-9" d="M89.28,11.49v11.06h.95v.95h-2.09v-1.08c-.88,.86-1.66,1.21-2.7,1.21-2,0-3.51-1.57-3.51-3.67s1.44-3.64,3.49-3.64c1.17,0,1.98,.38,2.72,1.22v-5.08h-1.03v-.97h2.16Zm-6.19,8.46c0,1.53,1.1,2.7,2.56,2.7s2.52-1.1,2.52-2.7-1.03-2.72-2.5-2.72-2.58,1.15-2.58,2.72Z"/><path class="cls-9" d="M94.12,16.46v6.09h.95v.95h-3.04v-.95h.94v-5.15h-.94v-.94h2.09Zm-.85-3.69c.36,0,.65,.27,.65,.59,0,.36-.27,.65-.59,.65-.36,0-.65-.27-.65-.61s.25-.63,.59-.63Z"/><path class="cls-9" d="M98.89,13.96v2.5h1.35v.95h-1.35v4.23c0,.68,.2,.97,.61,.97,.23,0,.4-.05,.74-.27v1.01c-.47,.22-.67,.27-1.04,.27-.94,0-1.44-.5-1.44-1.44v-4.77h-.94v-.95h.94v-1.98l1.13-.52Z"/><path class="cls-9" d="M101.53,19.97c0-2.03,1.64-3.66,3.69-3.66s3.67,1.62,3.67,3.66-1.62,3.66-3.67,3.66-3.69-1.62-3.69-3.66Zm1.19,0c0,1.46,1.12,2.63,2.5,2.63s2.5-1.17,2.5-2.63-1.12-2.61-2.5-2.61-2.5,1.17-2.5,2.61Z"/><path class="cls-9" d="M112.67,16.46v1.49c.68-1.22,1.28-1.64,2.45-1.69v1.15c-.23-.04-.36-.04-.49-.04-1.28,0-1.96,.92-1.96,2.61v2.56h.96v.95h-3.04v-.95h.95v-5.13h-.95v-.95h2.09Z"/></g><g id="Colors"><rect class="cls-8" x="13.26" y="42.94" width="27.81" height="10"/><rect class="cls-11" x="41.07" y="42.94" width="27.81" height="10"/><rect class="cls-18" x="68.89" y="42.94" width="27.81" height="10"/><rect class="cls-13" x="96.7" y="42.94" width="27.81" height="10"/><rect class="cls-17" x="124.51" y="42.94" width="27.81" height="10"/><rect class="cls-16" x="152.32" y="42.94" width="27.81" height="10"/><rect class="cls-2" x="180.14" y="42.94" width="27.81" height="10"/><rect class="cls-1" x="207.95" y="42.94" width="27.81" height="10"/><rect class="cls-3" x="235.76" y="42.94" width="27.81" height="10"/><rect class="cls-20" x="263.57" y="42.94" width="27.81" height="10"/><rect class="cls-14" x="291.39" y="42.94" width="27.81" height="10"/><rect class="cls-15" x="319.2" y="42.94" width="27.81" height="10"/><rect class="cls-7" x="347.01" y="42.94" width="27.81" height="10"/><rect class="cls-10" x="374.82" y="42.94" width="27.81" height="10"/><rect class="cls-12" x="402.64" y="42.94" width="27.81" height="10"/><rect class="cls-4" x="430.45" y="42.94" width="27.81" height="10"/></g><g id="Line"><g><path class="cls-5" d="M17.69,67.5v2.11h-.23c-.07-.73-.23-1.13-.56-1.45-.29-.28-.73-.46-1.13-.46-.92,0-1.56,.68-1.56,1.66,0,.36,.08,.66,.26,.94,.25,.4,.65,.66,1.45,1,1.03,.43,1.4,.66,1.68,1.03,.22,.3,.34,.72,.34,1.16,0,1.21-.86,2.1-2.05,2.1-.7,0-1.16-.24-1.73-.88l-.1,.73h-.22v-2.06h.22c.06,.73,.24,1.12,.68,1.49,.34,.29,.73,.43,1.15,.43,1,0,1.71-.77,1.71-1.81,0-.36-.08-.71-.25-.95-.24-.36-.58-.58-1.5-.95-.88-.35-1.33-.66-1.63-1.08-.23-.31-.35-.68-.35-1.13,0-1.15,.77-1.96,1.87-1.96,.66,0,1.16,.26,1.61,.86l.1-.79h.23Z"/><path class="cls-5" d="M23.23,71.02v1.49h-.31c-.07-.82-.62-1.29-1.5-1.29-1.07,0-1.8,.82-1.8,1.99s.79,2.09,1.82,2.09c.92,0,1.46-.43,1.47-1.17h.31v.54c-.48,.6-1.1,.92-1.8,.92-1.22,0-2.13-1-2.13-2.31s.89-2.33,2.16-2.33c.64,0,1.08,.18,1.46,.59l.08-.5h.23Z"/><path class="cls-5" d="M25.53,71.02v1.02c.42-.78,.95-1.12,1.73-1.13v.38c-.1-.01-.16-.01-.22-.01-.98,0-1.51,.74-1.51,2.16v1.78h.65v.28h-1.64v-.28h.68v-3.92h-.68v-.28h1Z"/><path class="cls-5" d="M29.09,71.02v4.2h.68v.28h-1.67v-.28h.66v-3.92h-.66v-.28h.98Zm-.47-2c0-.18,.14-.32,.32-.32s.32,.14,.32,.32-.14,.32-.32,.32-.32-.14-.32-.32Z"/><path class="cls-5" d="M32.12,71.02v.94c.52-.7,1.12-1.02,1.88-1.02,1.27,0,2.18,.98,2.18,2.36,0,1.28-.95,2.28-2.18,2.28-.82,0-1.38-.32-1.88-1.08v2.79h.65v.28h-1.7v-.28h.72v-6h-.65v-.28h.98Zm-.02,2.17c0,1.21,.78,2.1,1.85,2.1s1.92-.86,1.92-2.01-.78-2.06-1.86-2.06-1.91,.84-1.91,1.98Z"/><path class="cls-5" d="M38.32,69.39v1.63h.92v.28h-.92v3.38c0,.43,.13,.61,.42,.61,.16,0,.26-.04,.5-.19v.31c-.24,.13-.35,.17-.54,.17-.48,0-.71-.29-.71-.9v-3.38h-.63v-.28h.63v-1.45l.32-.18Z"/><path class="cls-5" d="M44.86,71.02v.78c.47-.61,.89-.86,1.49-.86,.89,0,1.52,.65,1.52,1.54v2.75h.67v.28h-1.63v-.28h.65v-2.55c0-.95-.43-1.45-1.24-1.45-.55,0-1.09,.37-1.32,.9-.1,.2-.14,.49-.14,.88v2.23h.66v.28h-1.66v-.28h.68v-3.92h-.68v-.28h1Z"/><path class="cls-5" d="M50.08,71.92v-.64c.44-.26,.78-.35,1.38-.35,1.09,0,1.64,.46,1.64,1.36v2.93h.68v.28h-1v-.52c-.41,.4-.88,.6-1.4,.6-.85,0-1.49-.64-1.49-1.48s.66-1.5,1.57-1.5c.54,0,.91,.19,1.32,.66v-.97c0-.68-.47-1.08-1.27-1.08-.76,0-1.1,.22-1.15,.71h-.29Zm.12,2.21c0,.66,.55,1.16,1.26,1.16s1.35-.52,1.35-1.13c0-.71-.6-1.27-1.35-1.27s-1.26,.5-1.26,1.24Z"/><path class="cls-5" d="M56.05,71.02v.85c.38-.61,.89-.94,1.45-.94,.6,0,1.1,.37,1.28,.94,.38-.65,.82-.94,1.4-.94,.8,0,1.32,.61,1.32,1.55v2.74h.65v.28h-1.54v-.28h.58v-2.66c0-.86-.38-1.34-1.07-1.34-.83,0-1.34,.68-1.34,1.77v2.23h.56v.28h-1.46v-.28h.59v-2.76c0-.76-.43-1.25-1.1-1.25-.47,0-.91,.32-1.13,.79-.16,.32-.19,.56-.19,1.18v2.04h.59v.28h-1.54v-.28h.64v-3.92h-.64v-.28h.95Z"/><path class="cls-5" d="M67.45,73.21h-3.69c.04,1.28,.75,2.09,1.85,2.09,.8,0,1.37-.4,1.54-1.1h.31v.36c-.5,.7-1.09,1.03-1.88,1.03-1.24,0-2.16-1.02-2.16-2.36s.88-2.28,2.04-2.28,2,.9,2,2.27Zm-.3-.28c-.02-.97-.75-1.71-1.69-1.71s-1.55,.66-1.7,1.71h3.39Z"/><path class="cls-5" d="M69.24,71.32c0-.17,.13-.3,.3-.3,.16,0,.3,.13,.3,.3s-.14,.3-.3,.3c-.17,0-.3-.13-.3-.3Zm0,3.96c0-.17,.13-.3,.3-.3,.16,0,.3,.13,.3,.3s-.14,.3-.3,.3c-.17,0-.3-.13-.3-.3Z"/></g><g id="Line-2"><g><path class="cls-5" d="M156.34,71.35l3.92,3.87h.72v.28h-.9l-4.04-3.98v3.71h.77v.28h-1.8v-.28h.72v-7.44h-.72v-.29h1.8v.29h-.77v3.49l3.25-3.23c.08-.08,.11-.12,.11-.17,0-.07-.04-.1-.14-.1h-.55v-.29h2.02v.29h-.46c-.26,0-.37,.05-.68,.36l-3.24,3.2Z"/><path class="cls-5" d="M165.41,73.21h-3.69c.04,1.28,.75,2.09,1.85,2.09,.8,0,1.37-.4,1.54-1.1h.31v.36c-.5,.7-1.09,1.03-1.88,1.03-1.24,0-2.16-1.02-2.16-2.36s.88-2.28,2.04-2.28,2,.9,2,2.27Zm-.3-.28c-.02-.97-.75-1.71-1.69-1.71s-1.55,.66-1.7,1.71h3.39Z"/><path class="cls-5" d="M168.28,75.09l1.56-3.79h-.66v-.28h1.64v.28h-.66l-2.51,6.12h1.22v.28h-1.68l.9-2.19-1.61-4.2h-.61v-.28h1.62v.28h-.67l1.45,3.79Z"/><path class="cls-5" d="M171.97,71.32c0-.17,.13-.3,.3-.3,.16,0,.3,.13,.3,.3s-.14,.3-.3,.3c-.17,0-.3-.13-.3-.3Zm0,3.96c0-.17,.13-.3,.3-.3,.16,0,.3,.13,.3,.3s-.14,.3-.3,.3c-.17,0-.3-.13-.3-.3Z"/></g><g id="Line-3"><g><path class="cls-5" d="M199.01,67.5h1.82c.89,0,1.46,.19,1.88,.62,.37,.38,.58,.89,.58,1.46,0,.91-.53,1.7-1.31,1.97-.29,.1-.7,.16-1.08,.16h-.9v3.51h.77v.28h-1.76v-.28h.68v-7.44h-.68v-.29Zm1,3.92h.77c.82,0,1.18-.08,1.56-.38,.41-.32,.64-.83,.64-1.42,0-1.19-.74-1.83-2.09-1.83h-.88v3.63Z"/><path class="cls-5" d="M204.12,71.92v-.64c.44-.26,.78-.35,1.38-.35,1.09,0,1.64,.46,1.64,1.36v2.93h.68v.28h-1v-.52c-.41,.4-.88,.6-1.4,.6-.85,0-1.49-.64-1.49-1.48s.66-1.5,1.57-1.5c.54,0,.91,.19,1.32,.66v-.97c0-.68-.47-1.08-1.27-1.08-.76,0-1.1,.22-1.15,.71h-.29Zm.12,2.21c0,.66,.55,1.16,1.26,1.16s1.35-.52,1.35-1.13c0-.71-.6-1.27-1.35-1.27s-1.26,.5-1.26,1.24Z"/><path class="cls-5" d="M209.99,69.39v1.63h.92v.28h-.92v3.38c0,.43,.13,.61,.42,.61,.16,0,.26-.04,.5-.19v.31c-.24,.13-.35,.17-.54,.17-.48,0-.71-.29-.71-.9v-3.38h-.63v-.28h.63v-1.45l.32-.18Z"/><path class="cls-5" d="M213.13,67.5v4.31c.47-.61,.89-.86,1.49-.86,.89,0,1.52,.65,1.52,1.54v2.75h.67v.28h-1.63v-.28h.65v-2.55c0-.95-.43-1.45-1.24-1.45-.55,0-1.09,.37-1.32,.9-.1,.2-.14,.49-.14,.88v2.23h.66v.28h-1.65v-.28h.68v-7.44h-.68v-.29h1Z"/><path class="cls-5" d="M222.2,69.39v1.63h.92v.28h-.92v3.38c0,.43,.13,.61,.42,.61,.16,0,.26-.04,.5-.19v.31c-.24,.13-.35,.17-.54,.17-.48,0-.71-.29-.71-.9v-3.38h-.63v-.28h.63v-1.45l.32-.18Z"/><path class="cls-5" d="M224.1,73.25c0-1.29,1.02-2.31,2.34-2.31s2.33,1.02,2.33,2.31-1.02,2.33-2.33,2.33-2.34-1.02-2.34-2.33Zm.35,0c0,1.14,.9,2.06,1.99,2.06s1.99-.92,1.99-2.06-.9-2.05-1.99-2.05-1.99,.92-1.99,2.05Z"/><path class="cls-5" d="M236.08,71.02v1.27h-.24c-.12-.71-.5-1.08-1.14-1.08-.56,0-.98,.38-.98,.88s.26,.68,1.14,.92c1.04,.26,1.4,.6,1.4,1.29,0,.77-.55,1.27-1.42,1.27-.52,0-.86-.13-1.27-.47l-.06,.38h-.22v-1.34h.22c.06,.72,.54,1.14,1.28,1.14s1.14-.36,1.14-1.01c0-.52-.26-.76-1.08-.98l-.44-.12c-.7-.19-1.02-.53-1.02-1.06,0-.71,.58-1.19,1.4-1.19,.48,0,.74,.12,1.04,.48v-.4h.24Z"/><path class="cls-5" d="M241.42,71.02v1.49h-.31c-.07-.82-.62-1.29-1.5-1.29-1.07,0-1.8,.82-1.8,1.99s.79,2.09,1.82,2.09c.92,0,1.46-.43,1.47-1.17h.31v.54c-.48,.6-1.1,.92-1.8,.92-1.22,0-2.13-1-2.13-2.31s.89-2.33,2.16-2.33c.64,0,1.08,.18,1.46,.59l.08-.5h.23Z"/><path class="cls-5" d="M243.71,71.02v1.02c.42-.78,.95-1.12,1.73-1.13v.38c-.1-.01-.16-.01-.22-.01-.98,0-1.51,.74-1.51,2.16v1.78h.65v.28h-1.64v-.28h.68v-3.92h-.68v-.28h1Z"/><path class="cls-5" d="M247.27,71.02v4.2h.68v.28h-1.67v-.28h.66v-3.92h-.66v-.28h.98Zm-.47-2c0-.18,.14-.32,.32-.32s.32,.14,.32,.32-.14,.32-.32,.32-.32-.14-.32-.32Z"/><path class="cls-5" d="M250.31,71.02v.94c.52-.7,1.12-1.02,1.88-1.02,1.27,0,2.18,.98,2.18,2.36,0,1.28-.95,2.28-2.18,2.28-.82,0-1.38-.32-1.88-1.08v2.79h.65v.28h-1.7v-.28h.72v-6h-.65v-.28h.98Zm-.02,2.17c0,1.21,.78,2.1,1.85,2.1s1.92-.86,1.92-2.01-.78-2.06-1.86-2.06-1.91,.84-1.91,1.98Z"/><path class="cls-5" d="M256.5,69.39v1.63h.92v.28h-.92v3.38c0,.43,.13,.61,.42,.61,.16,0,.26-.04,.5-.19v.31c-.24,.13-.35,.17-.54,.17-.48,0-.71-.29-.71-.9v-3.38h-.63v-.28h.63v-1.45l.32-.18Z"/><path class="cls-5" d="M262.98,71.02h.8v.28h-.8v3.92h.8v.28h-1.77v-.28h.65v-3.92h-.65v-.28h.65v-2.34c0-.88,.25-1.19,.98-1.19h.14v.29h-.24c-.43,0-.56,.2-.56,.9v2.34Z"/><path class="cls-5" d="M266.01,71.02v4.2h.68v.28h-1.67v-.28h.66v-3.92h-.66v-.28h.98Zm-.47-2c0-.18,.14-.32,.32-.32s.32,.14,.32,.32-.14,.32-.32,.32-.32-.14-.32-.32Z"/><path class="cls-5" d="M268.98,67.5v7.72h.68v.28h-1.67v-.28h.67v-7.44h-.67v-.29h.98Z"/><path class="cls-5" d="M274.87,73.21h-3.69c.04,1.28,.75,2.09,1.85,2.09,.8,0,1.37-.4,1.54-1.1h.31v.36c-.5,.7-1.09,1.03-1.88,1.03-1.24,0-2.16-1.02-2.16-2.36s.88-2.28,2.04-2.28,2,.9,2,2.27Zm-.3-.28c-.02-.97-.75-1.71-1.69-1.71s-1.55,.66-1.7,1.71h3.39Z"/><path class="cls-5" d="M276.66,71.32c0-.17,.13-.3,.3-.3,.16,0,.3,.13,.3,.3s-.14,.3-.3,.3c-.17,0-.3-.13-.3-.3Zm0,3.96c0-.17,.13-.3,.3-.3,.16,0,.3,.13,.3,.3s-.14,.3-.3,.3c-.17,0-.3-.13-.3-.3Z"/></g></g></g></g><g id="Line-4"><g><path class="cls-5" d="M36.04,91.62v1.07c-.76,.62-1.47,.9-2.41,.9-2.35,0-4.02-1.68-4.02-4.03s1.58-4.14,3.74-4.14c.47,0,.92,.07,1.34,.22,.49,.17,.68,.31,1.07,.77v-.75h.28v1.88h-.17c-.08-.68-.28-1.06-.74-1.37-.46-.3-1.01-.46-1.69-.46-2.08,0-3.51,1.58-3.51,3.87s1.56,3.72,3.79,3.72c.78,0,1.58-.3,1.92-.74,.14-.19,.22-.47,.24-.94h.17Z"/><path class="cls-5" d="M37.15,91.25c0-1.29,1.02-2.31,2.34-2.31s2.33,1.02,2.33,2.31-1.02,2.33-2.33,2.33-2.34-1.02-2.34-2.33Zm.35,0c0,1.14,.9,2.06,1.99,2.06s1.99-.92,1.99-2.06-.9-2.05-1.99-2.05-1.99,.92-1.99,2.05Z"/><path class="cls-5" d="M44.04,89.02v.94c.52-.7,1.12-1.02,1.88-1.02,1.27,0,2.18,.98,2.18,2.36,0,1.28-.95,2.28-2.18,2.28-.82,0-1.38-.32-1.88-1.08v2.79h.65v.28h-1.7v-.28h.72v-6h-.65v-.28h.98Zm-.02,2.17c0,1.21,.78,2.1,1.85,2.1s1.92-.86,1.92-2.01-.78-2.06-1.86-2.06-1.91,.84-1.91,1.98Z"/><path class="cls-5" d="M50.91,93.09l1.56-3.79h-.66v-.28h1.64v.28h-.66l-2.51,6.12h1.22v.28h-1.68l.9-2.19-1.61-4.2h-.61v-.28h1.62v.28h-.67l1.45,3.79Z"/><path class="cls-5" d="M61.1,89.02v1.49h-.31c-.07-.82-.62-1.29-1.5-1.29-1.07,0-1.8,.82-1.8,1.99s.79,2.09,1.82,2.09c.92,0,1.46-.43,1.47-1.17h.31v.54c-.48,.6-1.1,.92-1.8,.92-1.22,0-2.13-1-2.13-2.31s.89-2.33,2.16-2.33c.64,0,1.08,.18,1.46,.59l.08-.5h.23Z"/><path class="cls-5" d="M62.28,91.25c0-1.29,1.02-2.31,2.34-2.31s2.33,1.02,2.33,2.31-1.02,2.33-2.33,2.33-2.34-1.02-2.34-2.33Zm.35,0c0,1.14,.9,2.06,1.99,2.06s1.99-.92,1.99-2.06-.9-2.05-1.99-2.05-1.99,.92-1.99,2.05Z"/><path class="cls-5" d="M69.11,85.5v7.72h.68v.28h-1.67v-.28h.67v-7.44h-.67v-.29h.98Z"/><path class="cls-5" d="M70.96,91.25c0-1.29,1.02-2.31,2.34-2.31s2.33,1.02,2.33,2.31-1.02,2.33-2.33,2.33-2.34-1.02-2.34-2.33Zm.35,0c0,1.14,.9,2.06,1.99,2.06s1.99-.92,1.99-2.06-.9-2.05-1.99-2.05-1.99,.92-1.99,2.05Z"/><path class="cls-5" d="M77.91,89.02v1.02c.42-.78,.95-1.12,1.73-1.13v.38c-.1-.01-.16-.01-.22-.01-.98,0-1.51,.74-1.51,2.16v1.78h.65v.28h-1.64v-.28h.68v-3.92h-.68v-.28h1Z"/><path class="cls-5" d="M84.51,87.39v1.63h.92v.28h-.92v3.38c0,.43,.13,.61,.42,.61,.16,0,.26-.04,.5-.19v.31c-.24,.13-.35,.17-.54,.17-.48,0-.71-.29-.71-.9v-3.38h-.63v-.28h.63v-1.45l.32-.18Z"/><path class="cls-5" d="M86.42,91.25c0-1.29,1.02-2.31,2.34-2.31s2.33,1.02,2.33,2.31-1.02,2.33-2.33,2.33-2.34-1.02-2.34-2.33Zm.35,0c0,1.14,.9,2.06,1.99,2.06s1.99-.92,1.99-2.06-.9-2.05-1.99-2.05-1.99,.92-1.99,2.05Z"/><path class="cls-5" d="M99.37,89.02v1.49h-.31c-.07-.82-.62-1.29-1.5-1.29-1.07,0-1.8,.82-1.8,1.99s.79,2.09,1.82,2.09c.92,0,1.46-.43,1.47-1.17h.31v.54c-.48,.6-1.1,.92-1.8,.92-1.22,0-2.13-1-2.13-2.31s.89-2.33,2.16-2.33c.64,0,1.08,.18,1.46,.59l.08-.5h.23Z"/><path class="cls-5" d="M101.54,85.5v7.72h.68v.28h-1.67v-.28h.67v-7.44h-.67v-.29h.98Z"/><path class="cls-5" d="M104.49,89.02v4.2h.68v.28h-1.67v-.28h.66v-3.92h-.66v-.28h.98Zm-.47-2c0-.18,.14-.32,.32-.32s.32,.14,.32,.32-.14,.32-.32,.32-.32-.14-.32-.32Z"/><path class="cls-5" d="M107.52,89.02v.94c.52-.7,1.12-1.02,1.88-1.02,1.27,0,2.18,.98,2.18,2.36,0,1.28-.95,2.28-2.18,2.28-.82,0-1.38-.32-1.88-1.08v2.79h.65v.28h-1.7v-.28h.72v-6h-.65v-.28h.98Zm-.02,2.17c0,1.21,.78,2.1,1.85,2.1s1.92-.86,1.92-2.01-.78-2.06-1.86-2.06-1.91,.84-1.91,1.98Z"/><path class="cls-5" d="M113.43,93.22v-7.44h-.67v-.29h1v4.49c.49-.74,1.02-1.04,1.83-1.04,1.32,0,2.23,.94,2.23,2.3s-.88,2.34-2.18,2.34c-.83,0-1.32-.29-1.88-1.08v1h-1v-.28h.67Zm.31-1.99s-.01,.08-.01,.13c0,1.1,.83,1.93,1.91,1.93s1.86-.85,1.86-2.03-.79-2.05-1.91-2.05c-1.06,0-1.79,.79-1.85,2.01Z"/><path class="cls-5" d="M118.98,91.25c0-1.29,1.02-2.31,2.34-2.31s2.33,1.02,2.33,2.31-1.02,2.33-2.33,2.33-2.34-1.02-2.34-2.33Zm.35,0c0,1.14,.9,2.06,1.99,2.06s1.99-.92,1.99-2.06-.9-2.05-1.99-2.05-1.99,.92-1.99,2.05Z"/><path class="cls-5" d="M125.11,89.92v-.64c.44-.26,.78-.35,1.38-.35,1.09,0,1.64,.46,1.64,1.36v2.93h.68v.28h-1v-.52c-.41,.4-.88,.6-1.4,.6-.85,0-1.49-.64-1.49-1.48s.66-1.5,1.57-1.5c.54,0,.91,.19,1.32,.66v-.97c0-.68-.47-1.08-1.27-1.08-.76,0-1.1,.22-1.15,.71h-.29Zm.12,2.21c0,.66,.55,1.16,1.26,1.16s1.35-.52,1.35-1.13c0-.71-.6-1.27-1.35-1.27s-1.26,.5-1.26,1.24Z"/><path class="cls-5" d="M131.14,89.02v1.02c.42-.78,.95-1.12,1.73-1.13v.38c-.1-.01-.16-.01-.22-.01-.98,0-1.51,.74-1.51,2.16v1.78h.65v.28h-1.64v-.28h.68v-3.92h-.68v-.28h1Z"/><path class="cls-5" d="M137.75,85.5v7.72h.68v.28h-1.01v-.89c-.54,.66-1.13,.97-1.86,.97-1.24,0-2.19-1.01-2.19-2.33s.93-2.31,2.19-2.31c.82,0,1.37,.3,1.86,1v-4.15h-.67v-.29h1Zm-4.09,5.76c0,1.16,.83,2.04,1.91,2.04s1.87-.8,1.87-1.99c0-1.25-.74-2.09-1.85-2.09s-1.93,.86-1.93,2.04Z"/></g><g><rect class="cls-19" x="155.17" y="82.17" width="41" height="14"/><path class="cls-5" d="M164.59,89.02v1.49h-.31c-.07-.82-.62-1.29-1.5-1.29-1.07,0-1.8,.82-1.8,1.99s.79,2.09,1.82,2.09c.92,0,1.46-.43,1.47-1.17h.31v.54c-.48,.6-1.1,.92-1.8,.92-1.22,0-2.13-1-2.13-2.31s.89-2.33,2.16-2.33c.64,0,1.08,.18,1.46,.59l.08-.5h.23Z"/></g><rect class="cls-22" x="13.67" y="83.67" width="11" height="11"/><rect class="cls-5" x="17.17" y="87.17" width="4" height="4"/><g><rect class="cls-19" x="199.17" y="82.17" width="155" height="14"/><g><path class="cls-5" d="M209.27,93.28c0-.17,.13-.3,.3-.3,.16,0,.3,.13,.3,.3s-.14,.3-.3,.3c-.17,0-.3-.13-.3-.3Z"/><path class="cls-5" d="M212.25,93.28c0-.17,.13-.3,.3-.3,.16,0,.3,.13,.3,.3s-.14,.3-.3,.3c-.17,0-.3-.13-.3-.3Z"/><path class="cls-5" d="M219.11,85.52l-4.7,9.65-.29-.13,4.7-9.67,.29,.14Z"/><path class="cls-5" d="M220.87,93.28c0-.17,.13-.3,.3-.3,.16,0,.3,.13,.3,.3s-.14,.3-.3,.3c-.17,0-.3-.13-.3-.3Z"/><path class="cls-5" d="M223.85,93.28c0-.17,.13-.3,.3-.3,.16,0,.3,.13,.3,.3s-.14,.3-.3,.3c-.17,0-.3-.13-.3-.3Z"/><path class="cls-5" d="M230.71,85.52l-4.7,9.65-.29-.13,4.7-9.67,.29,.14Z"/><path class="cls-5" d="M232.48,93.28c0-.17,.13-.3,.3-.3,.16,0,.3,.13,.3,.3s-.14,.3-.3,.3c-.17,0-.3-.13-.3-.3Z"/><path class="cls-5" d="M235.45,93.28c0-.17,.13-.3,.3-.3,.16,0,.3,.13,.3,.3s-.14,.3-.3,.3c-.17,0-.3-.13-.3-.3Z"/><path class="cls-5" d="M242.31,85.52l-4.7,9.65-.29-.13,4.7-9.67,.29,.14Z"/><path class="cls-5" d="M244.52,89.02v.94c.52-.7,1.12-1.02,1.88-1.02,1.27,0,2.18,.98,2.18,2.36,0,1.28-.95,2.28-2.18,2.28-.82,0-1.38-.32-1.88-1.08v2.79h.65v.28h-1.7v-.28h.72v-6h-.65v-.28h.98Zm-.02,2.17c0,1.21,.78,2.1,1.85,2.1s1.92-.86,1.92-2.01-.78-2.06-1.86-2.06-1.91,.84-1.91,1.98Z"/><path class="cls-5" d="M250.04,89.92v-.64c.44-.26,.78-.35,1.38-.35,1.09,0,1.64,.46,1.64,1.36v2.93h.68v.28h-1v-.52c-.41,.4-.88,.6-1.4,.6-.85,0-1.49-.64-1.49-1.48s.66-1.5,1.57-1.5c.54,0,.91,.19,1.32,.66v-.97c0-.68-.47-1.08-1.27-1.08-.76,0-1.1,.22-1.15,.71h-.29Zm.12,2.21c0,.66,.55,1.16,1.26,1.16s1.35-.52,1.35-1.13c0-.71-.6-1.27-1.35-1.27s-1.26,.5-1.26,1.24Z"/><path class="cls-5" d="M255.91,87.39v1.63h.92v.28h-.92v3.38c0,.43,.13,.61,.42,.61,.16,0,.26-.04,.5-.19v.31c-.24,.13-.35,.17-.54,.17-.48,0-.71-.29-.71-.9v-3.38h-.63v-.28h.63v-1.45l.32-.18Z"/><path class="cls-5" d="M259.05,85.5v4.31c.47-.61,.89-.86,1.49-.86,.89,0,1.52,.65,1.52,1.54v2.75h.67v.28h-1.63v-.28h.65v-2.55c0-.95-.43-1.45-1.24-1.45-.55,0-1.09,.37-1.32,.9-.1,.2-.14,.49-.14,.88v2.23h.66v.28h-1.65v-.28h.68v-7.44h-.68v-.29h1Z"/><path class="cls-5" d="M268.79,85.5v1.87h-.24l-.11-1.58h-2.05v7.44h.73v.28h-1.74v-.28h.68v-7.44h-2.03l-.13,1.58h-.22v-1.87h5.1Z"/><path class="cls-5" d="M268.89,91.25c0-1.29,1.02-2.31,2.34-2.31s2.33,1.02,2.33,2.31-1.02,2.33-2.33,2.33-2.34-1.02-2.34-2.33Zm.35,0c0,1.14,.9,2.06,1.99,2.06s1.99-.92,1.99-2.06-.9-2.05-1.99-2.05-1.99,.92-1.99,2.05Z"/><path class="cls-5" d="M278.76,85.5v2.11h-.23c-.07-.73-.23-1.13-.56-1.45-.29-.28-.73-.46-1.13-.46-.92,0-1.56,.68-1.56,1.66,0,.36,.08,.66,.26,.94,.25,.4,.65,.66,1.45,1,1.03,.43,1.4,.66,1.68,1.03,.22,.3,.34,.72,.34,1.16,0,1.21-.86,2.1-2.05,2.1-.7,0-1.16-.24-1.73-.88l-.1,.73h-.22v-2.06h.22c.06,.73,.24,1.12,.68,1.49,.34,.29,.73,.43,1.15,.43,1,0,1.71-.77,1.71-1.81,0-.36-.08-.71-.25-.95-.24-.36-.58-.58-1.5-.95-.88-.35-1.33-.66-1.63-1.08-.23-.31-.35-.68-.35-1.13,0-1.15,.77-1.96,1.87-1.96,.66,0,1.16,.26,1.61,.86l.1-.79h.23Z"/><path class="cls-5" d="M284.3,89.02v1.49h-.31c-.07-.82-.62-1.29-1.5-1.29-1.07,0-1.8,.82-1.8,1.99s.79,2.09,1.82,2.09c.92,0,1.46-.43,1.47-1.17h.31v.54c-.48,.6-1.1,.92-1.8,.92-1.22,0-2.13-1-2.13-2.31s.89-2.33,2.16-2.33c.64,0,1.08,.18,1.46,.59l.08-.5h.23Z"/><path class="cls-5" d="M286.6,89.02v1.02c.42-.78,.95-1.12,1.73-1.13v.38c-.1-.01-.16-.01-.22-.01-.98,0-1.51,.74-1.51,2.16v1.78h.65v.28h-1.64v-.28h.68v-3.92h-.68v-.28h1Z"/><path class="cls-5" d="M290.16,89.02v4.2h.68v.28h-1.67v-.28h.66v-3.92h-.66v-.28h.98Zm-.47-2c0-.18,.14-.32,.32-.32s.32,.14,.32,.32-.14,.32-.32,.32-.32-.14-.32-.32Z"/><path class="cls-5" d="M293.2,89.02v.94c.52-.7,1.12-1.02,1.88-1.02,1.27,0,2.18,.98,2.18,2.36,0,1.28-.95,2.28-2.18,2.28-.82,0-1.38-.32-1.88-1.08v2.79h.65v.28h-1.7v-.28h.72v-6h-.65v-.28h.98Zm-.02,2.17c0,1.21,.78,2.1,1.85,2.1s1.92-.86,1.92-2.01-.78-2.06-1.86-2.06-1.91,.84-1.91,1.98Z"/><path class="cls-5" d="M299.39,87.39v1.63h.92v.28h-.92v3.38c0,.43,.13,.61,.42,.61,.16,0,.26-.04,.5-.19v.31c-.24,.13-.35,.17-.54,.17-.48,0-.71-.29-.71-.9v-3.38h-.63v-.28h.63v-1.45l.32-.18Z"/><path class="cls-5" d="M302.25,93.28c0-.17,.13-.3,.3-.3,.16,0,.3,.13,.3,.3s-.14,.3-.3,.3c-.17,0-.3-.13-.3-.3Z"/><path class="cls-5" d="M305.7,89.02v5.22c0,.84-.32,1.33-1.01,1.51v-.34c.46-.12,.68-.53,.68-1.19v-4.93h-.68v-.28h1.01Zm-.59-2c0-.18,.14-.32,.32-.32s.32,.14,.32,.32-.14,.32-.32,.32-.32-.14-.32-.32Z"/><path class="cls-5" d="M310.18,89.02v1.27h-.24c-.12-.71-.5-1.08-1.14-1.08-.56,0-.98,.38-.98,.88s.26,.68,1.14,.92c1.04,.26,1.4,.6,1.4,1.29,0,.77-.55,1.27-1.42,1.27-.52,0-.86-.13-1.27-.47l-.06,.38h-.22v-1.34h.22c.06,.72,.54,1.14,1.28,1.14s1.14-.36,1.14-1.01c0-.52-.26-.76-1.08-.98l-.44-.12c-.7-.19-1.02-.53-1.02-1.06,0-.71,.58-1.19,1.4-1.19,.48,0,.74,.12,1.04,.48v-.4h.24Z"/><path class="cls-5" d="M313.72,91.21l1.59,2.02h.7v.28h-1.69v-.28h.58l-1.37-1.78-1.49,1.78h.66v.28h-1.67v-.28h.61l1.68-2.02-1.52-1.91h-.59v-.28h1.68v.28h-.67l1.31,1.64,1.37-1.64h-.66v-.28h1.69v.28h-.61l-1.59,1.91Z"/></g></g><rect class="cls-23" x="357.76" y="81.44" width="28" height="14" rx=".01" ry=".01"/><rect class="cls-24" x="389.76" y="81.44" width="14" height="14" rx=".01" ry=".01"/><rect class="cls-23" x="407.76" y="81.44" width="14" height="14" rx=".01" ry=".01"/><rect class="cls-23" x="425.76" y="81.44" width="14" height="14" rx=".01" ry=".01"/><rect class="cls-23" x="443.76" y="81.44" width="14" height="14" rx=".01" ry=".01"/><path id="BIN" class="cls-6" d="M429.76,85.82c0-.21,.17-.38,.37-.38h1.87v-.37c0-.21,.17-.37,.37-.37h.75c.21,0,.37,.17,.37,.37v.37h1.87c.21,0,.38,.17,.38,.38v.37h-6v-.37Zm5.62,1.12v4.62c0,.21-.17,.37-.37,.37h-4.5c-.21,0-.37-.17-.37-.37v-5h5.25v.37Zm-3.75,.75c0-.21-.17-.37-.37-.37s-.37,.17-.37,.37v3.12c0,.21,.17,.38,.37,.38s.37-.17,.37-.38v-3.12Zm1.5,0c0-.21-.17-.37-.37-.37s-.37,.17-.37,.37v3.12c0,.21,.17,.38,.37,.38s.37-.17,.37-.38v-3.12Zm1.5,0c0-.21-.17-.37-.38-.37s-.37,.17-.37,.37v3.12c0,.21,.17,.38,.37,.38s.38-.17,.38-.38v-3.12Z"/><path id="ARROW___UP" class="cls-25" d="M394.8,89.69l1.96-1.96,1.99,1.99h0c.07,.06,.16,.11,.26,.11,.21,0,.37-.17,.37-.37,0-.1-.04-.19-.11-.26h0l-2.25-2.25h0c-.07-.07-.16-.11-.27-.11h0c-.11,0-.2,.04-.27,.11h0l-2.25,2.25h0c-.06,.07-.1,.16-.1,.26,0,.21,.17,.37,.37,.37,.11,0,.22-.05,.28-.13Z"/><path id="ARROW___DOWN" class="cls-6" d="M412.8,87.57l1.96,1.96,1.99-1.99h0c.07-.06,.16-.11,.26-.11,.21,0,.37,.17,.37,.37,0,.1-.04,.19-.11,.26h0l-2.25,2.25h0c-.07,.07-.16,.11-.27,.11h0c-.11,0-.2-.04-.27-.11h0l-2.25-2.25h0c-.06-.07-.1-.16-.1-.26,0-.21,.17-.37,.37-.37,.11,0,.22,.05,.28,.13Z"/><path id="PLUS" class="cls-6" d="M453.26,88.69h-2.12v2.12c0,.21-.17,.38-.37,.38s-.37-.17-.37-.38v-2.12h-2.12c-.21,0-.37-.17-.37-.37s.17-.38,.37-.38h2.12v-2.12c0-.21,.17-.38,.37-.38s.37,.17,.37,.38v2.12h2.12c.21,0,.38,.17,.38,.38s-.17,.37-.38,.37Z"/><path id="MORE_2" class="cls-6" d="M369.31,90.35c.46,0,.84,.38,.84,.84s-.38,.84-.84,.84-.84-.38-.84-.84,.38-.84,.84-.84Zm2.66,0c.46,0,.84,.38,.84,.84s-.38,.84-.84,.84-.84-.38-.84-.84,.38-.84,.84-.84Zm2.66,0c.46,0,.84,.38,.84,.84s-.38,.84-.84,.84-.84-.38-.84-.84,.38-.84,.84-.84Z"/></g><g id="Line-5"><g><path class="cls-5" d="M36.04,109.62v1.07c-.76,.62-1.47,.9-2.41,.9-2.35,0-4.02-1.68-4.02-4.03s1.58-4.14,3.74-4.14c.47,0,.92,.07,1.34,.22,.49,.17,.68,.31,1.07,.77v-.75h.28v1.88h-.17c-.08-.68-.28-1.06-.74-1.37-.46-.3-1.01-.46-1.69-.46-2.08,0-3.51,1.58-3.51,3.87s1.56,3.72,3.79,3.72c.78,0,1.58-.3,1.92-.74,.14-.19,.22-.47,.24-.94h.17Z"/><path class="cls-5" d="M38.26,107.02v1.02c.42-.78,.95-1.12,1.73-1.13v.38c-.1-.01-.16-.01-.22-.01-.98,0-1.51,.74-1.51,2.16v1.78h.65v.28h-1.64v-.28h.68v-3.92h-.68v-.28h1Z"/><path class="cls-5" d="M44.57,109.21h-3.69c.04,1.28,.75,2.09,1.85,2.09,.8,0,1.37-.4,1.54-1.1h.31v.36c-.5,.7-1.09,1.03-1.88,1.03-1.24,0-2.16-1.02-2.16-2.36s.88-2.28,2.04-2.28,2,.9,2,2.27Zm-.3-.28c-.02-.97-.75-1.71-1.69-1.71s-1.55,.66-1.7,1.71h3.39Z"/><path class="cls-5" d="M46.03,107.92v-.64c.44-.26,.78-.35,1.38-.35,1.09,0,1.64,.46,1.64,1.36v2.93h.68v.28h-1v-.52c-.41,.4-.88,.6-1.4,.6-.85,0-1.49-.64-1.49-1.48s.66-1.5,1.57-1.5c.54,0,.91,.19,1.32,.66v-.97c0-.68-.47-1.08-1.27-1.08-.76,0-1.1,.22-1.15,.71h-.29Zm.12,2.21c0,.66,.55,1.16,1.26,1.16s1.35-.52,1.35-1.13c0-.71-.6-1.27-1.35-1.27s-1.26,.5-1.26,1.24Z"/><path class="cls-5" d="M51.9,105.39v1.63h.92v.28h-.92v3.38c0,.43,.13,.61,.42,.61,.16,0,.26-.04,.5-.19v.31c-.24,.13-.35,.17-.54,.17-.48,0-.71-.29-.71-.9v-3.38h-.63v-.28h.63v-1.45l.32-.18Z"/><path class="cls-5" d="M57.87,109.21h-3.69c.04,1.28,.75,2.09,1.85,2.09,.8,0,1.37-.4,1.54-1.1h.31v.36c-.5,.7-1.09,1.03-1.88,1.03-1.24,0-2.16-1.02-2.16-2.36s.88-2.28,2.04-2.28,2,.9,2,2.27Zm-.3-.28c-.02-.97-.75-1.71-1.69-1.71s-1.55,.66-1.7,1.71h3.39Z"/><path class="cls-5" d="M65.18,107.02v1.27h-.24c-.12-.71-.5-1.08-1.14-1.08-.56,0-.98,.38-.98,.88s.26,.68,1.14,.92c1.04,.26,1.4,.6,1.4,1.29,0,.77-.55,1.27-1.42,1.27-.52,0-.86-.13-1.27-.47l-.06,.38h-.22v-1.34h.22c.06,.72,.54,1.14,1.28,1.14s1.14-.36,1.14-1.01c0-.52-.26-.76-1.08-.98l-.44-.12c-.7-.19-1.02-.53-1.02-1.06,0-.71,.58-1.19,1.4-1.19,.48,0,.74,.12,1.04,.48v-.4h.24Z"/><path class="cls-5" d="M67.58,103.5v4.31c.47-.61,.89-.86,1.49-.86,.89,0,1.52,.65,1.52,1.54v2.75h.67v.28h-1.63v-.28h.65v-2.55c0-.95-.43-1.45-1.24-1.45-.55,0-1.09,.37-1.32,.9-.1,.2-.14,.49-.14,.88v2.23h.66v.28h-1.65v-.28h.68v-7.44h-.68v-.29h1Z"/><path class="cls-5" d="M72.8,107.92v-.64c.44-.26,.78-.35,1.38-.35,1.09,0,1.64,.46,1.64,1.36v2.93h.68v.28h-1v-.52c-.41,.4-.88,.6-1.4,.6-.85,0-1.49-.64-1.49-1.48s.66-1.5,1.57-1.5c.54,0,.91,.19,1.32,.66v-.97c0-.68-.47-1.08-1.27-1.08-.76,0-1.1,.22-1.15,.71h-.29Zm.12,2.21c0,.66,.55,1.16,1.26,1.16s1.35-.52,1.35-1.13c0-.71-.6-1.27-1.35-1.27s-1.26,.5-1.26,1.24Z"/><path class="cls-5" d="M78.77,107.02v.94c.52-.7,1.12-1.02,1.88-1.02,1.27,0,2.18,.98,2.18,2.36,0,1.28-.95,2.28-2.18,2.28-.82,0-1.38-.32-1.88-1.08v2.79h.65v.28h-1.7v-.28h.72v-6h-.65v-.28h.98Zm-.02,2.17c0,1.21,.78,2.1,1.85,2.1s1.92-.86,1.92-2.01-.78-2.06-1.86-2.06-1.91,.84-1.91,1.98Z"/><path class="cls-5" d="M88.04,109.21h-3.69c.04,1.28,.75,2.09,1.85,2.09,.8,0,1.37-.4,1.54-1.1h.31v.36c-.5,.7-1.09,1.03-1.88,1.03-1.24,0-2.16-1.02-2.16-2.36s.88-2.28,2.04-2.28,2,.9,2,2.27Zm-.3-.28c-.02-.97-.75-1.71-1.69-1.71s-1.55,.66-1.7,1.71h3.39Z"/><path class="cls-5" d="M93.38,103.5v7.72h.68v.28h-1.67v-.28h.67v-7.44h-.67v-.29h.98Z"/><path class="cls-5" d="M95.52,107.92v-.64c.44-.26,.78-.35,1.38-.35,1.09,0,1.64,.46,1.64,1.36v2.93h.68v.28h-1v-.52c-.41,.4-.88,.6-1.4,.6-.85,0-1.49-.64-1.49-1.48s.66-1.5,1.57-1.5c.54,0,.91,.19,1.32,.66v-.97c0-.68-.47-1.08-1.27-1.08-.76,0-1.1,.22-1.15,.71h-.29Zm.12,2.21c0,.66,.55,1.16,1.26,1.16s1.35-.52,1.35-1.13c0-.71-.6-1.27-1.35-1.27s-1.26,.5-1.26,1.24Z"/><path class="cls-5" d="M101.97,111.09l1.56-3.79h-.66v-.28h1.64v.28h-.66l-2.51,6.12h1.22v.28h-1.68l.9-2.19-1.61-4.2h-.61v-.28h1.62v.28h-.67l1.45,3.79Z"/><path class="cls-5" d="M108.99,109.21h-3.69c.04,1.28,.75,2.09,1.85,2.09,.8,0,1.37-.4,1.54-1.1h.31v.36c-.5,.7-1.09,1.03-1.88,1.03-1.24,0-2.16-1.02-2.16-2.36s.88-2.28,2.04-2.28,2,.9,2,2.27Zm-.3-.28c-.02-.97-.75-1.71-1.69-1.71s-1.55,.66-1.7,1.71h3.39Z"/><path class="cls-5" d="M111.29,107.02v1.02c.42-.78,.95-1.12,1.73-1.13v.38c-.1-.01-.16-.01-.22-.01-.98,0-1.51,.74-1.51,2.16v1.78h.65v.28h-1.64v-.28h.68v-3.92h-.68v-.28h1Z"/></g><g><rect class="cls-19" x="155.17" y="100.17" width="41" height="14"/><path class="cls-5" d="M163.34,103.45v7.77h.97v.28h-2.27v-.28h.97v-6.96h-.97v-.3c.72-.02,1-.13,1.3-.52Z"/></g><rect class="cls-22" x="13.67" y="101.67" width="11" height="11"/><rect class="cls-5" x="17.17" y="105.17" width="4" height="4"/><g><rect class="cls-19" x="199.17" y="100.17" width="155" height="14"/><g><path class="cls-5" d="M209.27,111.28c0-.17,.13-.3,.3-.3,.16,0,.3,.13,.3,.3s-.14,.3-.3,.3c-.17,0-.3-.13-.3-.3Z"/><path class="cls-5" d="M212.25,111.28c0-.17,.13-.3,.3-.3,.16,0,.3,.13,.3,.3s-.14,.3-.3,.3c-.17,0-.3-.13-.3-.3Z"/><path class="cls-5" d="M219.11,103.52l-4.7,9.65-.29-.13,4.7-9.67,.29,.14Z"/><path class="cls-5" d="M220.87,111.28c0-.17,.13-.3,.3-.3,.16,0,.3,.13,.3,.3s-.14,.3-.3,.3c-.17,0-.3-.13-.3-.3Z"/><path class="cls-5" d="M223.85,111.28c0-.17,.13-.3,.3-.3,.16,0,.3,.13,.3,.3s-.14,.3-.3,.3c-.17,0-.3-.13-.3-.3Z"/><path class="cls-5" d="M230.71,103.52l-4.7,9.65-.29-.13,4.7-9.67,.29,.14Z"/><path class="cls-5" d="M232.48,111.28c0-.17,.13-.3,.3-.3,.16,0,.3,.13,.3,.3s-.14,.3-.3,.3c-.17,0-.3-.13-.3-.3Z"/><path class="cls-5" d="M235.45,111.28c0-.17,.13-.3,.3-.3,.16,0,.3,.13,.3,.3s-.14,.3-.3,.3c-.17,0-.3-.13-.3-.3Z"/><path class="cls-5" d="M242.31,103.52l-4.7,9.65-.29-.13,4.7-9.67,.29,.14Z"/><path class="cls-5" d="M244.52,107.02v.94c.52-.7,1.12-1.02,1.88-1.02,1.27,0,2.18,.98,2.18,2.36,0,1.28-.95,2.28-2.18,2.28-.82,0-1.38-.32-1.88-1.08v2.79h.65v.28h-1.7v-.28h.72v-6h-.65v-.28h.98Zm-.02,2.17c0,1.21,.78,2.1,1.85,2.1s1.92-.86,1.92-2.01-.78-2.06-1.86-2.06-1.91,.84-1.91,1.98Z"/><path class="cls-5" d="M250.04,107.92v-.64c.44-.26,.78-.35,1.38-.35,1.09,0,1.64,.46,1.64,1.36v2.93h.68v.28h-1v-.52c-.41,.4-.88,.6-1.4,.6-.85,0-1.49-.64-1.49-1.48s.66-1.5,1.57-1.5c.54,0,.91,.19,1.32,.66v-.97c0-.68-.47-1.08-1.27-1.08-.76,0-1.1,.22-1.15,.71h-.29Zm.12,2.21c0,.66,.55,1.16,1.26,1.16s1.35-.52,1.35-1.13c0-.71-.6-1.27-1.35-1.27s-1.26,.5-1.26,1.24Z"/><path class="cls-5" d="M255.91,105.39v1.63h.92v.28h-.92v3.38c0,.43,.13,.61,.42,.61,.16,0,.26-.04,.5-.19v.31c-.24,.13-.35,.17-.54,.17-.48,0-.71-.29-.71-.9v-3.38h-.63v-.28h.63v-1.45l.32-.18Z"/><path class="cls-5" d="M259.05,103.5v4.31c.47-.61,.89-.86,1.49-.86,.89,0,1.52,.65,1.52,1.54v2.75h.67v.28h-1.63v-.28h.65v-2.55c0-.95-.43-1.45-1.24-1.45-.55,0-1.09,.37-1.32,.9-.1,.2-.14,.49-.14,.88v2.23h.66v.28h-1.65v-.28h.68v-7.44h-.68v-.29h1Z"/><path class="cls-5" d="M268.79,103.5v1.87h-.24l-.11-1.58h-2.05v7.44h.73v.28h-1.74v-.28h.68v-7.44h-2.03l-.13,1.58h-.22v-1.87h5.1Z"/><path class="cls-5" d="M268.89,109.25c0-1.29,1.02-2.31,2.34-2.31s2.33,1.02,2.33,2.31-1.02,2.33-2.33,2.33-2.34-1.02-2.34-2.33Zm.35,0c0,1.14,.9,2.06,1.99,2.06s1.99-.92,1.99-2.06-.9-2.05-1.99-2.05-1.99,.92-1.99,2.05Z"/><path class="cls-5" d="M278.76,103.5v2.11h-.23c-.07-.73-.23-1.13-.56-1.45-.29-.28-.73-.46-1.13-.46-.92,0-1.56,.68-1.56,1.66,0,.36,.08,.66,.26,.94,.25,.4,.65,.66,1.45,1,1.03,.43,1.4,.66,1.68,1.03,.22,.3,.34,.72,.34,1.16,0,1.21-.86,2.1-2.05,2.1-.7,0-1.16-.24-1.73-.88l-.1,.73h-.22v-2.06h.22c.06,.73,.24,1.12,.68,1.49,.34,.29,.73,.43,1.15,.43,1,0,1.71-.77,1.71-1.81,0-.36-.08-.71-.25-.95-.24-.36-.58-.58-1.5-.95-.88-.35-1.33-.66-1.63-1.08-.23-.31-.35-.68-.35-1.13,0-1.15,.77-1.96,1.87-1.96,.66,0,1.16,.26,1.61,.86l.1-.79h.23Z"/><path class="cls-5" d="M284.3,107.02v1.49h-.31c-.07-.82-.62-1.29-1.5-1.29-1.07,0-1.8,.82-1.8,1.99s.79,2.09,1.82,2.09c.92,0,1.46-.43,1.47-1.17h.31v.54c-.48,.6-1.1,.92-1.8,.92-1.22,0-2.13-1-2.13-2.31s.89-2.33,2.16-2.33c.64,0,1.08,.18,1.46,.59l.08-.5h.23Z"/><path class="cls-5" d="M286.6,107.02v1.02c.42-.78,.95-1.12,1.73-1.13v.38c-.1-.01-.16-.01-.22-.01-.98,0-1.51,.74-1.51,2.16v1.78h.65v.28h-1.64v-.28h.68v-3.92h-.68v-.28h1Z"/><path class="cls-5" d="M290.16,107.02v4.2h.68v.28h-1.67v-.28h.66v-3.92h-.66v-.28h.98Zm-.47-2c0-.18,.14-.32,.32-.32s.32,.14,.32,.32-.14,.32-.32,.32-.32-.14-.32-.32Z"/><path class="cls-5" d="M293.2,107.02v.94c.52-.7,1.12-1.02,1.88-1.02,1.27,0,2.18,.98,2.18,2.36,0,1.28-.95,2.28-2.18,2.28-.82,0-1.38-.32-1.88-1.08v2.79h.65v.28h-1.7v-.28h.72v-6h-.65v-.28h.98Zm-.02,2.17c0,1.21,.78,2.1,1.85,2.1s1.92-.86,1.92-2.01-.78-2.06-1.86-2.06-1.91,.84-1.91,1.98Z"/><path class="cls-5" d="M299.39,105.39v1.63h.92v.28h-.92v3.38c0,.43,.13,.61,.42,.61,.16,0,.26-.04,.5-.19v.31c-.24,.13-.35,.17-.54,.17-.48,0-.71-.29-.71-.9v-3.38h-.63v-.28h.63v-1.45l.32-.18Z"/><path class="cls-5" d="M302.25,111.28c0-.17,.13-.3,.3-.3,.16,0,.3,.13,.3,.3s-.14,.3-.3,.3c-.17,0-.3-.13-.3-.3Z"/><path class="cls-5" d="M305.7,107.02v5.22c0,.84-.32,1.33-1.01,1.51v-.34c.46-.12,.68-.53,.68-1.19v-4.93h-.68v-.28h1.01Zm-.59-2c0-.18,.14-.32,.32-.32s.32,.14,.32,.32-.14,.32-.32,.32-.32-.14-.32-.32Z"/><path class="cls-5" d="M310.18,107.02v1.27h-.24c-.12-.71-.5-1.08-1.14-1.08-.56,0-.98,.38-.98,.88s.26,.68,1.14,.92c1.04,.26,1.4,.6,1.4,1.29,0,.77-.55,1.27-1.42,1.27-.52,0-.86-.13-1.27-.47l-.06,.38h-.22v-1.34h.22c.06,.72,.54,1.14,1.28,1.14s1.14-.36,1.14-1.01c0-.52-.26-.76-1.08-.98l-.44-.12c-.7-.19-1.02-.53-1.02-1.06,0-.71,.58-1.19,1.4-1.19,.48,0,.74,.12,1.04,.48v-.4h.24Z"/><path class="cls-5" d="M313.72,109.21l1.59,2.02h.7v.28h-1.69v-.28h.58l-1.37-1.78-1.49,1.78h.66v.28h-1.67v-.28h.61l1.68-2.02-1.52-1.91h-.59v-.28h1.68v.28h-.67l1.31,1.64,1.37-1.64h-.66v-.28h1.69v.28h-.61l-1.59,1.91Z"/></g></g><rect class="cls-23" x="357.76" y="99.44" width="28" height="14" rx=".01" ry=".01"/><rect class="cls-23" x="389.76" y="99.44" width="14" height="14" rx=".01" ry=".01"/><rect class="cls-23" x="407.76" y="99.44" width="14" height="14" rx=".01" ry=".01"/><rect class="cls-23" x="425.76" y="99.44" width="14" height="14" rx=".01" ry=".01"/><rect class="cls-23" x="443.76" y="99.44" width="14" height="14" rx=".01" ry=".01"/><path id="BIN-2" class="cls-6" d="M429.76,103.82c0-.21,.17-.38,.37-.38h1.87v-.37c0-.21,.17-.37,.37-.37h.75c.21,0,.37,.17,.37,.37v.37h1.87c.21,0,.38,.17,.38,.38v.37h-6v-.37Zm5.62,1.12v4.62c0,.21-.17,.37-.37,.37h-4.5c-.21,0-.37-.17-.37-.37v-5h5.25v.37Zm-3.75,.75c0-.21-.17-.37-.37-.37s-.37,.17-.37,.37v3.12c0,.21,.17,.38,.37,.38s.37-.17,.37-.38v-3.12Zm1.5,0c0-.21-.17-.37-.37-.37s-.37,.17-.37,.37v3.12c0,.21,.17,.38,.37,.38s.37-.17,.37-.38v-3.12Zm1.5,0c0-.21-.17-.37-.38-.37s-.37,.17-.37,.37v3.12c0,.21,.17,.38,.37,.38s.38-.17,.38-.38v-3.12Z"/><path id="ARROW___UP-2" class="cls-6" d="M394.8,107.69l1.96-1.96,1.99,1.99h0c.07,.06,.16,.11,.26,.11,.21,0,.37-.17,.37-.37,0-.1-.04-.19-.11-.26h0l-2.25-2.25h0c-.07-.07-.16-.11-.27-.11h0c-.11,0-.2,.04-.27,.11h0l-2.25,2.25h0c-.06,.07-.1,.16-.1,.26,0,.21,.17,.37,.37,.37,.11,0,.22-.05,.28-.13Z"/><path id="ARROW___DOWN-2" class="cls-6" d="M412.8,105.57l1.96,1.96,1.99-1.99h0c.07-.06,.16-.11,.26-.11,.21,0,.37,.17,.37,.37,0,.1-.04,.19-.11,.26h0l-2.25,2.25h0c-.07,.07-.16,.11-.27,.11h0c-.11,0-.2-.04-.27-.11h0l-2.25-2.25h0c-.06-.07-.1-.16-.1-.26,0-.21,.17-.37,.37-.37,.11,0,.22,.05,.28,.13Z"/><path id="PLUS-2" class="cls-6" d="M453.26,106.69h-2.12v2.12c0,.21-.17,.38-.37,.38s-.37-.17-.37-.38v-2.12h-2.12c-.21,0-.37-.17-.37-.37s.17-.38,.37-.38h2.12v-2.12c0-.21,.17-.38,.37-.38s.37,.17,.37,.38v2.12h2.12c.21,0,.38,.17,.38,.38s-.17,.37-.38,.37Z"/><path id="MORE_2-2" class="cls-6" d="M369.31,108.35c.46,0,.84,.38,.84,.84s-.38,.84-.84,.84-.84-.38-.84-.84,.38-.84,.84-.84Zm2.66,0c.46,0,.84,.38,.84,.84s-.38,.84-.84,.84-.84-.38-.84-.84,.38-.84,.84-.84Zm2.66,0c.46,0,.84,.38,.84,.84s-.38,.84-.84,.84-.84-.38-.84-.84,.38-.84,.84-.84Z"/></g><g id="Line-6"><g><path class="cls-5" d="M36.04,127.62v1.07c-.76,.62-1.47,.9-2.41,.9-2.35,0-4.02-1.68-4.02-4.03s1.58-4.14,3.74-4.14c.47,0,.92,.07,1.34,.22,.49,.17,.68,.31,1.07,.77v-.75h.28v1.88h-.17c-.08-.68-.28-1.06-.74-1.37-.46-.3-1.01-.46-1.69-.46-2.08,0-3.51,1.58-3.51,3.87s1.56,3.72,3.79,3.72c.78,0,1.58-.3,1.92-.74,.14-.19,.22-.47,.24-.94h.17Z"/><path class="cls-5" d="M38.26,125.02v1.02c.42-.78,.95-1.12,1.73-1.13v.38c-.1-.01-.16-.01-.22-.01-.98,0-1.51,.74-1.51,2.16v1.78h.65v.28h-1.64v-.28h.68v-3.92h-.68v-.28h1Z"/><path class="cls-5" d="M44.57,127.21h-3.69c.04,1.28,.75,2.09,1.85,2.09,.8,0,1.37-.4,1.54-1.1h.31v.36c-.5,.7-1.09,1.03-1.88,1.03-1.24,0-2.16-1.02-2.16-2.36s.88-2.28,2.04-2.28,2,.9,2,2.27Zm-.3-.28c-.02-.97-.75-1.71-1.69-1.71s-1.55,.66-1.7,1.71h3.39Z"/><path class="cls-5" d="M46.03,125.92v-.64c.44-.26,.78-.35,1.38-.35,1.09,0,1.64,.46,1.64,1.36v2.93h.68v.28h-1v-.52c-.41,.4-.88,.6-1.4,.6-.85,0-1.49-.64-1.49-1.48s.66-1.5,1.57-1.5c.54,0,.91,.19,1.32,.66v-.97c0-.68-.47-1.08-1.27-1.08-.76,0-1.1,.22-1.15,.71h-.29Zm.12,2.21c0,.66,.55,1.16,1.26,1.16s1.35-.52,1.35-1.13c0-.71-.6-1.27-1.35-1.27s-1.26,.5-1.26,1.24Z"/><path class="cls-5" d="M51.9,123.39v1.63h.92v.28h-.92v3.38c0,.43,.13,.61,.42,.61,.16,0,.26-.04,.5-.19v.31c-.24,.13-.35,.17-.54,.17-.48,0-.71-.29-.71-.9v-3.38h-.63v-.28h.63v-1.45l.32-.18Z"/><path class="cls-5" d="M57.87,127.21h-3.69c.04,1.28,.75,2.09,1.85,2.09,.8,0,1.37-.4,1.54-1.1h.31v.36c-.5,.7-1.09,1.03-1.88,1.03-1.24,0-2.16-1.02-2.16-2.36s.88-2.28,2.04-2.28,2,.9,2,2.27Zm-.3-.28c-.02-.97-.75-1.71-1.69-1.71s-1.55,.66-1.7,1.71h3.39Z"/><path class="cls-5" d="M65.18,125.02v1.27h-.24c-.12-.71-.5-1.08-1.14-1.08-.56,0-.98,.38-.98,.88s.26,.68,1.14,.92c1.04,.26,1.4,.6,1.4,1.29,0,.77-.55,1.27-1.42,1.27-.52,0-.86-.13-1.27-.47l-.06,.38h-.22v-1.34h.22c.06,.72,.54,1.14,1.28,1.14s1.14-.36,1.14-1.01c0-.52-.26-.76-1.08-.98l-.44-.12c-.7-.19-1.02-.53-1.02-1.06,0-.71,.58-1.19,1.4-1.19,.48,0,.74,.12,1.04,.48v-.4h.24Z"/><path class="cls-5" d="M66.59,127.25c0-1.29,1.02-2.31,2.34-2.31s2.33,1.02,2.33,2.31-1.02,2.33-2.33,2.33-2.34-1.02-2.34-2.33Zm.35,0c0,1.14,.9,2.06,1.99,2.06s1.99-.92,1.99-2.06-.9-2.05-1.99-2.05-1.99,.92-1.99,2.05Z"/><path class="cls-5" d="M73.41,121.5v7.72h.68v.28h-1.67v-.28h.67v-7.44h-.67v-.29h.98Z"/><path class="cls-5" d="M76.37,125.02v4.2h.68v.28h-1.67v-.28h.66v-3.92h-.66v-.28h.98Zm-.47-2c0-.18,.14-.32,.32-.32s.32,.14,.32,.32-.14,.32-.32,.32-.32-.14-.32-.32Z"/><path class="cls-5" d="M82.72,121.5v7.72h.68v.28h-1.01v-.89c-.54,.66-1.13,.97-1.86,.97-1.24,0-2.19-1.01-2.19-2.33s.93-2.31,2.19-2.31c.82,0,1.37,.3,1.86,1v-4.15h-.67v-.29h1Zm-4.09,5.76c0,1.16,.83,2.04,1.91,2.04s1.87-.8,1.87-1.99c0-1.25-.74-2.09-1.85-2.09s-1.93,.86-1.93,2.04Z"/><path class="cls-5" d="M88.74,121.5v7.72h.68v.28h-1.67v-.28h.67v-7.44h-.67v-.29h.98Z"/><path class="cls-5" d="M90.87,125.92v-.64c.44-.26,.78-.35,1.38-.35,1.09,0,1.64,.46,1.64,1.36v2.93h.68v.28h-1v-.52c-.41,.4-.88,.6-1.4,.6-.85,0-1.49-.64-1.49-1.48s.66-1.5,1.57-1.5c.54,0,.91,.19,1.32,.66v-.97c0-.68-.47-1.08-1.27-1.08-.76,0-1.1,.22-1.15,.71h-.29Zm.12,2.21c0,.66,.55,1.16,1.26,1.16s1.35-.52,1.35-1.13c0-.71-.6-1.27-1.35-1.27s-1.26,.5-1.26,1.24Z"/><path class="cls-5" d="M97.33,129.09l1.56-3.79h-.66v-.28h1.64v.28h-.66l-2.51,6.12h1.22v.28h-1.68l.9-2.19-1.61-4.2h-.61v-.28h1.62v.28h-.67l1.45,3.79Z"/><path class="cls-5" d="M104.35,127.21h-3.69c.04,1.28,.75,2.09,1.85,2.09,.8,0,1.37-.4,1.54-1.1h.31v.36c-.5,.7-1.09,1.03-1.88,1.03-1.24,0-2.16-1.02-2.16-2.36s.88-2.28,2.04-2.28,2,.9,2,2.27Zm-.3-.28c-.02-.97-.75-1.71-1.69-1.71s-1.55,.66-1.7,1.71h3.39Z"/><path class="cls-5" d="M106.64,125.02v1.02c.42-.78,.95-1.12,1.73-1.13v.38c-.1-.01-.16-.01-.22-.01-.98,0-1.51,.74-1.51,2.16v1.78h.65v.28h-1.64v-.28h.68v-3.92h-.68v-.28h1Z"/></g><g><rect class="cls-19" x="155.17" y="118.17" width="41" height="14"/><path class="cls-5" d="M165.36,127.85v1.64h-4.56v-.28c1.1-.98,1.44-1.28,1.96-1.79,.36-.36,.71-.72,1.02-1.08,.86-.97,1.25-1.79,1.25-2.64,0-1.24-.78-2.01-2.01-2.01-1.1,0-1.97,.8-1.97,1.83,0,.68,.38,1.31,1.08,1.79l-.17,.28c-.8-.5-1.22-1.2-1.22-2.02,0-1.22,1-2.16,2.29-2.16,1.39,0,2.31,.92,2.31,2.31,0,.55-.17,1.15-.47,1.67-.44,.74-1.1,1.52-1.93,2.27l-1.07,.97-.61,.58h2.58c.56,0,.88-.04,.98-.11,.17-.12,.23-.34,.25-.94,.01-.07,.01-.18,.02-.32h.26Z"/></g><rect class="cls-22" x="13.67" y="119.67" width="11" height="11"/><rect class="cls-5" x="17.17" y="123.17" width="4" height="4"/><g><rect class="cls-19" x="199.17" y="118.17" width="155" height="14"/><g><path class="cls-5" d="M209.27,129.28c0-.17,.13-.3,.3-.3,.16,0,.3,.13,.3,.3s-.14,.3-.3,.3c-.17,0-.3-.13-.3-.3Z"/><path class="cls-5" d="M212.25,129.28c0-.17,.13-.3,.3-.3,.16,0,.3,.13,.3,.3s-.14,.3-.3,.3c-.17,0-.3-.13-.3-.3Z"/><path class="cls-5" d="M219.11,121.52l-4.7,9.65-.29-.13,4.7-9.67,.29,.14Z"/><path class="cls-5" d="M220.87,129.28c0-.17,.13-.3,.3-.3,.16,0,.3,.13,.3,.3s-.14,.3-.3,.3c-.17,0-.3-.13-.3-.3Z"/><path class="cls-5" d="M223.85,129.28c0-.17,.13-.3,.3-.3,.16,0,.3,.13,.3,.3s-.14,.3-.3,.3c-.17,0-.3-.13-.3-.3Z"/><path class="cls-5" d="M230.71,121.52l-4.7,9.65-.29-.13,4.7-9.67,.29,.14Z"/><path class="cls-5" d="M232.48,129.28c0-.17,.13-.3,.3-.3,.16,0,.3,.13,.3,.3s-.14,.3-.3,.3c-.17,0-.3-.13-.3-.3Z"/><path class="cls-5" d="M235.45,129.28c0-.17,.13-.3,.3-.3,.16,0,.3,.13,.3,.3s-.14,.3-.3,.3c-.17,0-.3-.13-.3-.3Z"/><path class="cls-5" d="M242.31,121.52l-4.7,9.65-.29-.13,4.7-9.67,.29,.14Z"/><path class="cls-5" d="M244.52,125.02v.94c.52-.7,1.12-1.02,1.88-1.02,1.27,0,2.18,.98,2.18,2.36,0,1.28-.95,2.28-2.18,2.28-.82,0-1.38-.32-1.88-1.08v2.79h.65v.28h-1.7v-.28h.72v-6h-.65v-.28h.98Zm-.02,2.17c0,1.21,.78,2.1,1.85,2.1s1.92-.86,1.92-2.01-.78-2.06-1.86-2.06-1.91,.84-1.91,1.98Z"/><path class="cls-5" d="M250.04,125.92v-.64c.44-.26,.78-.35,1.38-.35,1.09,0,1.64,.46,1.64,1.36v2.93h.68v.28h-1v-.52c-.41,.4-.88,.6-1.4,.6-.85,0-1.49-.64-1.49-1.48s.66-1.5,1.57-1.5c.54,0,.91,.19,1.32,.66v-.97c0-.68-.47-1.08-1.27-1.08-.76,0-1.1,.22-1.15,.71h-.29Zm.12,2.21c0,.66,.55,1.16,1.26,1.16s1.35-.52,1.35-1.13c0-.71-.6-1.27-1.35-1.27s-1.26,.5-1.26,1.24Z"/><path class="cls-5" d="M255.91,123.39v1.63h.92v.28h-.92v3.38c0,.43,.13,.61,.42,.61,.16,0,.26-.04,.5-.19v.31c-.24,.13-.35,.17-.54,.17-.48,0-.71-.29-.71-.9v-3.38h-.63v-.28h.63v-1.45l.32-.18Z"/><path class="cls-5" d="M259.05,121.5v4.31c.47-.61,.89-.86,1.49-.86,.89,0,1.52,.65,1.52,1.54v2.75h.67v.28h-1.63v-.28h.65v-2.55c0-.95-.43-1.45-1.24-1.45-.55,0-1.09,.37-1.32,.9-.1,.2-.14,.49-.14,.88v2.23h.66v.28h-1.65v-.28h.68v-7.44h-.68v-.29h1Z"/><path class="cls-5" d="M268.79,121.5v1.87h-.24l-.11-1.58h-2.05v7.44h.73v.28h-1.74v-.28h.68v-7.44h-2.03l-.13,1.58h-.22v-1.87h5.1Z"/><path class="cls-5" d="M268.89,127.25c0-1.29,1.02-2.31,2.34-2.31s2.33,1.02,2.33,2.31-1.02,2.33-2.33,2.33-2.34-1.02-2.34-2.33Zm.35,0c0,1.14,.9,2.06,1.99,2.06s1.99-.92,1.99-2.06-.9-2.05-1.99-2.05-1.99,.92-1.99,2.05Z"/><path class="cls-5" d="M278.76,121.5v2.11h-.23c-.07-.73-.23-1.13-.56-1.45-.29-.28-.73-.46-1.13-.46-.92,0-1.56,.68-1.56,1.66,0,.36,.08,.66,.26,.94,.25,.4,.65,.66,1.45,1,1.03,.43,1.4,.66,1.68,1.03,.22,.3,.34,.72,.34,1.16,0,1.21-.86,2.1-2.05,2.1-.7,0-1.16-.24-1.73-.88l-.1,.73h-.22v-2.06h.22c.06,.73,.24,1.12,.68,1.49,.34,.29,.73,.43,1.15,.43,1,0,1.71-.77,1.71-1.81,0-.36-.08-.71-.25-.95-.24-.36-.58-.58-1.5-.95-.88-.35-1.33-.66-1.63-1.08-.23-.31-.35-.68-.35-1.13,0-1.15,.77-1.96,1.87-1.96,.66,0,1.16,.26,1.61,.86l.1-.79h.23Z"/><path class="cls-5" d="M284.3,125.02v1.49h-.31c-.07-.82-.62-1.29-1.5-1.29-1.07,0-1.8,.82-1.8,1.99s.79,2.09,1.82,2.09c.92,0,1.46-.43,1.47-1.17h.31v.54c-.48,.6-1.1,.92-1.8,.92-1.22,0-2.13-1-2.13-2.31s.89-2.33,2.16-2.33c.64,0,1.08,.18,1.46,.59l.08-.5h.23Z"/><path class="cls-5" d="M286.6,125.02v1.02c.42-.78,.95-1.12,1.73-1.13v.38c-.1-.01-.16-.01-.22-.01-.98,0-1.51,.74-1.51,2.16v1.78h.65v.28h-1.64v-.28h.68v-3.92h-.68v-.28h1Z"/><path class="cls-5" d="M290.16,125.02v4.2h.68v.28h-1.67v-.28h.66v-3.92h-.66v-.28h.98Zm-.47-2c0-.18,.14-.32,.32-.32s.32,.14,.32,.32-.14,.32-.32,.32-.32-.14-.32-.32Z"/><path class="cls-5" d="M293.2,125.02v.94c.52-.7,1.12-1.02,1.88-1.02,1.27,0,2.18,.98,2.18,2.36,0,1.28-.95,2.28-2.18,2.28-.82,0-1.38-.32-1.88-1.08v2.79h.65v.28h-1.7v-.28h.72v-6h-.65v-.28h.98Zm-.02,2.17c0,1.21,.78,2.1,1.85,2.1s1.92-.86,1.92-2.01-.78-2.06-1.86-2.06-1.91,.84-1.91,1.98Z"/><path class="cls-5" d="M299.39,123.39v1.63h.92v.28h-.92v3.38c0,.43,.13,.61,.42,.61,.16,0,.26-.04,.5-.19v.31c-.24,.13-.35,.17-.54,.17-.48,0-.71-.29-.71-.9v-3.38h-.63v-.28h.63v-1.45l.32-.18Z"/><path class="cls-5" d="M302.25,129.28c0-.17,.13-.3,.3-.3,.16,0,.3,.13,.3,.3s-.14,.3-.3,.3c-.17,0-.3-.13-.3-.3Z"/><path class="cls-5" d="M305.7,125.02v5.22c0,.84-.32,1.33-1.01,1.51v-.34c.46-.12,.68-.53,.68-1.19v-4.93h-.68v-.28h1.01Zm-.59-2c0-.18,.14-.32,.32-.32s.32,.14,.32,.32-.14,.32-.32,.32-.32-.14-.32-.32Z"/><path class="cls-5" d="M310.18,125.02v1.27h-.24c-.12-.71-.5-1.08-1.14-1.08-.56,0-.98,.38-.98,.88s.26,.68,1.14,.92c1.04,.26,1.4,.6,1.4,1.29,0,.77-.55,1.27-1.42,1.27-.52,0-.86-.13-1.27-.47l-.06,.38h-.22v-1.34h.22c.06,.72,.54,1.14,1.28,1.14s1.14-.36,1.14-1.01c0-.52-.26-.76-1.08-.98l-.44-.12c-.7-.19-1.02-.53-1.02-1.06,0-.71,.58-1.19,1.4-1.19,.48,0,.74,.12,1.04,.48v-.4h.24Z"/><path class="cls-5" d="M313.72,127.21l1.59,2.02h.7v.28h-1.69v-.28h.58l-1.37-1.78-1.49,1.78h.66v.28h-1.67v-.28h.61l1.68-2.02-1.52-1.91h-.59v-.28h1.68v.28h-.67l1.31,1.64,1.37-1.64h-.66v-.28h1.69v.28h-.61l-1.59,1.91Z"/></g></g><rect class="cls-23" x="357.76" y="117.44" width="28" height="14" rx=".01" ry=".01"/><rect class="cls-23" x="389.76" y="117.44" width="14" height="14" rx=".01" ry=".01"/><rect class="cls-23" x="407.76" y="117.44" width="14" height="14" rx=".01" ry=".01"/><rect class="cls-23" x="425.76" y="117.44" width="14" height="14" rx=".01" ry=".01"/><rect class="cls-23" x="443.76" y="117.44" width="14" height="14" rx=".01" ry=".01"/><path id="BIN-3" class="cls-6" d="M429.76,121.82c0-.21,.17-.38,.37-.38h1.87v-.37c0-.21,.17-.37,.37-.37h.75c.21,0,.37,.17,.37,.37v.37h1.87c.21,0,.38,.17,.38,.38v.37h-6v-.37Zm5.62,1.12v4.62c0,.21-.17,.37-.37,.37h-4.5c-.21,0-.37-.17-.37-.37v-5h5.25v.37Zm-3.75,.75c0-.21-.17-.37-.37-.37s-.37,.17-.37,.37v3.12c0,.21,.17,.38,.37,.38s.37-.17,.37-.38v-3.12Zm1.5,0c0-.21-.17-.37-.37-.37s-.37,.17-.37,.37v3.12c0,.21,.17,.38,.37,.38s.37-.17,.37-.38v-3.12Zm1.5,0c0-.21-.17-.37-.38-.37s-.37,.17-.37,.37v3.12c0,.21,.17,.38,.37,.38s.38-.17,.38-.38v-3.12Z"/><path id="ARROW___UP-3" class="cls-6" d="M394.8,125.69l1.96-1.96,1.99,1.99h0c.07,.06,.16,.11,.26,.11,.21,0,.37-.17,.37-.37,0-.1-.04-.19-.11-.26h0l-2.25-2.25h0c-.07-.07-.16-.11-.27-.11h0c-.11,0-.2,.04-.27,.11h0l-2.25,2.25h0c-.06,.07-.1,.16-.1,.26,0,.21,.17,.37,.37,.37,.11,0,.22-.05,.28-.13Z"/><path id="ARROW___DOWN-3" class="cls-6" d="M412.8,123.57l1.96,1.96,1.99-1.99h0c.07-.06,.16-.11,.26-.11,.21,0,.37,.17,.37,.37,0,.1-.04,.19-.11,.26h0l-2.25,2.25h0c-.07,.07-.16,.11-.27,.11h0c-.11,0-.2-.04-.27-.11h0l-2.25-2.25h0c-.06-.07-.1-.16-.1-.26,0-.21,.17-.37,.37-.37,.11,0,.22,.05,.28,.13Z"/><path id="PLUS-3" class="cls-6" d="M453.26,124.69h-2.12v2.12c0,.21-.17,.38-.37,.38s-.37-.17-.37-.38v-2.12h-2.12c-.21,0-.37-.17-.37-.37s.17-.38,.37-.38h2.12v-2.12c0-.21,.17-.38,.37-.38s.37,.17,.37,.38v2.12h2.12c.21,0,.38,.17,.38,.38s-.17,.37-.38,.37Z"/><path id="MORE_2-3" class="cls-6" d="M369.31,126.35c.46,0,.84,.38,.84,.84s-.38,.84-.84,.84-.84-.38-.84-.84,.38-.84,.84-.84Zm2.66,0c.46,0,.84,.38,.84,.84s-.38,.84-.84,.84-.84-.38-.84-.84,.38-.84,.84-.84Zm2.66,0c.46,0,.84,.38,.84,.84s-.38,.84-.84,.84-.84-.38-.84-.84,.38-.84,.84-.84Z"/></g><g id="Line-7"><g><path class="cls-5" d="M34.65,144.03h1.7v3.27h-.22l-.1-.93c-.28,.4-.42,.54-.74,.73-.53,.31-1.16,.48-1.85,.48-2.25,0-3.84-1.68-3.84-4.05s1.51-4.1,3.71-4.1c.82,0,1.63,.26,2.1,.67,.07,.07,.17,.18,.31,.32l.08-.92h.23v2.22h-.23c-.05-.68-.16-.98-.46-1.28-.46-.47-1.19-.73-2.03-.73-.92,0-1.8,.34-2.36,.9-.64,.65-1.04,1.8-1.04,2.95,0,2.21,1.46,3.74,3.56,3.74,1.38,0,2.39-.66,2.53-1.67,.04-.2,.06-.5,.06-.71,0-.47-.11-.61-.43-.61h-1v-.28Z"/><path class="cls-5" d="M38.86,143.02v1.02c.42-.78,.95-1.12,1.73-1.13v.38c-.1-.01-.16-.01-.22-.01-.98,0-1.51,.74-1.51,2.16v1.78h.65v.28h-1.64v-.28h.68v-3.92h-.68v-.28h1Z"/><path class="cls-5" d="M41.05,145.25c0-1.29,1.02-2.31,2.34-2.31s2.33,1.02,2.33,2.31-1.02,2.33-2.33,2.33-2.34-1.02-2.34-2.33Zm.35,0c0,1.14,.9,2.06,1.99,2.06s1.99-.92,1.99-2.06-.9-2.05-1.99-2.05-1.99,.92-1.99,2.05Z"/><path class="cls-5" d="M50.49,147.5v-.79c-.46,.62-.89,.88-1.49,.88-.88,0-1.52-.65-1.52-1.54v-2.75h-.67v-.28h1v2.83c0,.95,.42,1.44,1.22,1.44,.55,0,1.1-.36,1.33-.89,.08-.2,.13-.49,.13-.88v-2.23h-.66v-.28h.98v4.2h.67v.28h-1Z"/><path class="cls-5" d="M53.83,143.02v.94c.52-.7,1.12-1.02,1.88-1.02,1.27,0,2.18,.98,2.18,2.36,0,1.28-.95,2.28-2.18,2.28-.82,0-1.38-.32-1.88-1.08v2.79h.65v.28h-1.7v-.28h.72v-6h-.65v-.28h.98Zm-.02,2.17c0,1.21,.78,2.1,1.85,2.1s1.92-.86,1.92-2.01-.78-2.06-1.86-2.06-1.91,.84-1.91,1.98Z"/><path class="cls-5" d="M63.23,139.5v7.72h.68v.28h-1.67v-.28h.67v-7.44h-.67v-.29h.98Z"/><path class="cls-5" d="M65.36,143.92v-.64c.44-.26,.78-.35,1.38-.35,1.09,0,1.64,.46,1.64,1.36v2.93h.68v.28h-1v-.52c-.41,.4-.88,.6-1.4,.6-.85,0-1.49-.64-1.49-1.48s.66-1.5,1.57-1.5c.54,0,.91,.19,1.32,.66v-.97c0-.68-.47-1.08-1.27-1.08-.76,0-1.1,.22-1.15,.71h-.29Zm.12,2.21c0,.66,.55,1.16,1.26,1.16s1.35-.52,1.35-1.13c0-.71-.6-1.27-1.35-1.27s-1.26,.5-1.26,1.24Z"/><path class="cls-5" d="M71.82,147.09l1.56-3.79h-.66v-.28h1.64v.28h-.66l-2.51,6.12h1.22v.28h-1.68l.9-2.19-1.61-4.2h-.61v-.28h1.62v.28h-.67l1.45,3.79Z"/><path class="cls-5" d="M78.83,145.21h-3.69c.04,1.28,.75,2.09,1.85,2.09,.8,0,1.37-.4,1.54-1.1h.31v.36c-.5,.7-1.09,1.03-1.88,1.03-1.24,0-2.16-1.02-2.16-2.36s.88-2.28,2.04-2.28,2,.9,2,2.27Zm-.3-.28c-.02-.97-.75-1.71-1.69-1.71s-1.55,.66-1.7,1.71h3.39Z"/><path class="cls-5" d="M81.13,143.02v1.02c.42-.78,.95-1.12,1.73-1.13v.38c-.1-.01-.16-.01-.22-.01-.98,0-1.51,.74-1.51,2.16v1.78h.65v.28h-1.64v-.28h.68v-3.92h-.68v-.28h1Z"/><path class="cls-5" d="M86.47,143.02v1.27h-.24c-.12-.71-.5-1.08-1.14-1.08-.56,0-.98,.38-.98,.88s.26,.68,1.14,.92c1.04,.26,1.4,.6,1.4,1.29,0,.77-.55,1.27-1.42,1.27-.52,0-.86-.13-1.27-.47l-.06,.38h-.22v-1.34h.22c.06,.72,.54,1.14,1.28,1.14s1.14-.36,1.14-1.01c0-.52-.26-.76-1.08-.98l-.44-.12c-.7-.19-1.02-.53-1.02-1.06,0-.71,.58-1.19,1.4-1.19,.48,0,.74,.12,1.04,.48v-.4h.24Z"/></g><g><rect class="cls-19" x="155.17" y="136.17" width="41" height="14"/><path class="cls-5" d="M164.75,143.02h1v.28h-.68v4.31c0,1.23-.86,2.05-2.18,2.05-.77,0-1.45-.34-1.76-.86-.13-.24-.18-.4-.23-.82h.32c.13,.91,.73,1.4,1.74,1.4,1.08,0,1.8-.64,1.8-1.59v-1.22c-.59,.73-1.12,1.02-1.87,1.02-1.26,0-2.22-1-2.22-2.29s.93-2.35,2.21-2.35c.8,0,1.28,.26,1.88,1.04v-.96Zm-3.78,2.24c0,1.14,.83,2.03,1.88,2.03s1.91-.88,1.91-2.03-.85-2.05-1.94-2.05-1.85,.9-1.85,2.05Z"/></g><rect class="cls-22" x="13.67" y="137.67" width="11" height="11"/><rect class="cls-5" x="17.17" y="141.17" width="4" height="4"/><g><rect class="cls-19" x="199.17" y="136.17" width="155" height="14"/><g><path class="cls-5" d="M209.27,147.28c0-.17,.13-.3,.3-.3,.16,0,.3,.13,.3,.3s-.14,.3-.3,.3c-.17,0-.3-.13-.3-.3Z"/><path class="cls-5" d="M212.25,147.28c0-.17,.13-.3,.3-.3,.16,0,.3,.13,.3,.3s-.14,.3-.3,.3c-.17,0-.3-.13-.3-.3Z"/><path class="cls-5" d="M219.11,139.52l-4.7,9.65-.29-.13,4.7-9.67,.29,.14Z"/><path class="cls-5" d="M220.87,147.28c0-.17,.13-.3,.3-.3,.16,0,.3,.13,.3,.3s-.14,.3-.3,.3c-.17,0-.3-.13-.3-.3Z"/><path class="cls-5" d="M223.85,147.28c0-.17,.13-.3,.3-.3,.16,0,.3,.13,.3,.3s-.14,.3-.3,.3c-.17,0-.3-.13-.3-.3Z"/><path class="cls-5" d="M230.71,139.52l-4.7,9.65-.29-.13,4.7-9.67,.29,.14Z"/><path class="cls-5" d="M232.48,147.28c0-.17,.13-.3,.3-.3,.16,0,.3,.13,.3,.3s-.14,.3-.3,.3c-.17,0-.3-.13-.3-.3Z"/><path class="cls-5" d="M235.45,147.28c0-.17,.13-.3,.3-.3,.16,0,.3,.13,.3,.3s-.14,.3-.3,.3c-.17,0-.3-.13-.3-.3Z"/><path class="cls-5" d="M242.31,139.52l-4.7,9.65-.29-.13,4.7-9.67,.29,.14Z"/><path class="cls-5" d="M244.52,143.02v.94c.52-.7,1.12-1.02,1.88-1.02,1.27,0,2.18,.98,2.18,2.36,0,1.28-.95,2.28-2.18,2.28-.82,0-1.38-.32-1.88-1.08v2.79h.65v.28h-1.7v-.28h.72v-6h-.65v-.28h.98Zm-.02,2.17c0,1.21,.78,2.1,1.85,2.1s1.92-.86,1.92-2.01-.78-2.06-1.86-2.06-1.91,.84-1.91,1.98Z"/><path class="cls-5" d="M250.04,143.92v-.64c.44-.26,.78-.35,1.38-.35,1.09,0,1.64,.46,1.64,1.36v2.93h.68v.28h-1v-.52c-.41,.4-.88,.6-1.4,.6-.85,0-1.49-.64-1.49-1.48s.66-1.5,1.57-1.5c.54,0,.91,.19,1.32,.66v-.97c0-.68-.47-1.08-1.27-1.08-.76,0-1.1,.22-1.15,.71h-.29Zm.12,2.21c0,.66,.55,1.16,1.26,1.16s1.35-.52,1.35-1.13c0-.71-.6-1.27-1.35-1.27s-1.26,.5-1.26,1.24Z"/><path class="cls-5" d="M255.91,141.39v1.63h.92v.28h-.92v3.38c0,.43,.13,.61,.42,.61,.16,0,.26-.04,.5-.19v.31c-.24,.13-.35,.17-.54,.17-.48,0-.71-.29-.71-.9v-3.38h-.63v-.28h.63v-1.45l.32-.18Z"/><path class="cls-5" d="M259.05,139.5v4.31c.47-.61,.89-.86,1.49-.86,.89,0,1.52,.65,1.52,1.54v2.75h.67v.28h-1.63v-.28h.65v-2.55c0-.95-.43-1.45-1.24-1.45-.55,0-1.09,.37-1.32,.9-.1,.2-.14,.49-.14,.88v2.23h.66v.28h-1.65v-.28h.68v-7.44h-.68v-.29h1Z"/><path class="cls-5" d="M268.79,139.5v1.87h-.24l-.11-1.58h-2.05v7.44h.73v.28h-1.74v-.28h.68v-7.44h-2.03l-.13,1.58h-.22v-1.87h5.1Z"/><path class="cls-5" d="M268.89,145.25c0-1.29,1.02-2.31,2.34-2.31s2.33,1.02,2.33,2.31-1.02,2.33-2.33,2.33-2.34-1.02-2.34-2.33Zm.35,0c0,1.14,.9,2.06,1.99,2.06s1.99-.92,1.99-2.06-.9-2.05-1.99-2.05-1.99,.92-1.99,2.05Z"/><path class="cls-5" d="M278.76,139.5v2.11h-.23c-.07-.73-.23-1.13-.56-1.45-.29-.28-.73-.46-1.13-.46-.92,0-1.56,.68-1.56,1.66,0,.36,.08,.66,.26,.94,.25,.4,.65,.66,1.45,1,1.03,.43,1.4,.66,1.68,1.03,.22,.3,.34,.72,.34,1.16,0,1.21-.86,2.1-2.05,2.1-.7,0-1.16-.24-1.73-.88l-.1,.73h-.22v-2.06h.22c.06,.73,.24,1.12,.68,1.49,.34,.29,.73,.43,1.15,.43,1,0,1.71-.77,1.71-1.81,0-.36-.08-.71-.25-.95-.24-.36-.58-.58-1.5-.95-.88-.35-1.33-.66-1.63-1.08-.23-.31-.35-.68-.35-1.13,0-1.15,.77-1.96,1.87-1.96,.66,0,1.16,.26,1.61,.86l.1-.79h.23Z"/><path class="cls-5" d="M284.3,143.02v1.49h-.31c-.07-.82-.62-1.29-1.5-1.29-1.07,0-1.8,.82-1.8,1.99s.79,2.09,1.82,2.09c.92,0,1.46-.43,1.47-1.17h.31v.54c-.48,.6-1.1,.92-1.8,.92-1.22,0-2.13-1-2.13-2.31s.89-2.33,2.16-2.33c.64,0,1.08,.18,1.46,.59l.08-.5h.23Z"/><path class="cls-5" d="M286.6,143.02v1.02c.42-.78,.95-1.12,1.73-1.13v.38c-.1-.01-.16-.01-.22-.01-.98,0-1.51,.74-1.51,2.16v1.78h.65v.28h-1.64v-.28h.68v-3.92h-.68v-.28h1Z"/><path class="cls-5" d="M290.16,143.02v4.2h.68v.28h-1.67v-.28h.66v-3.92h-.66v-.28h.98Zm-.47-2c0-.18,.14-.32,.32-.32s.32,.14,.32,.32-.14,.32-.32,.32-.32-.14-.32-.32Z"/><path class="cls-5" d="M293.2,143.02v.94c.52-.7,1.12-1.02,1.88-1.02,1.27,0,2.18,.98,2.18,2.36,0,1.28-.95,2.28-2.18,2.28-.82,0-1.38-.32-1.88-1.08v2.79h.65v.28h-1.7v-.28h.72v-6h-.65v-.28h.98Zm-.02,2.17c0,1.21,.78,2.1,1.85,2.1s1.92-.86,1.92-2.01-.78-2.06-1.86-2.06-1.91,.84-1.91,1.98Z"/><path class="cls-5" d="M299.39,141.39v1.63h.92v.28h-.92v3.38c0,.43,.13,.61,.42,.61,.16,0,.26-.04,.5-.19v.31c-.24,.13-.35,.17-.54,.17-.48,0-.71-.29-.71-.9v-3.38h-.63v-.28h.63v-1.45l.32-.18Z"/><path class="cls-5" d="M302.25,147.28c0-.17,.13-.3,.3-.3,.16,0,.3,.13,.3,.3s-.14,.3-.3,.3c-.17,0-.3-.13-.3-.3Z"/><path class="cls-5" d="M305.7,143.02v5.22c0,.84-.32,1.33-1.01,1.51v-.34c.46-.12,.68-.53,.68-1.19v-4.93h-.68v-.28h1.01Zm-.59-2c0-.18,.14-.32,.32-.32s.32,.14,.32,.32-.14,.32-.32,.32-.32-.14-.32-.32Z"/><path class="cls-5" d="M310.18,143.02v1.27h-.24c-.12-.71-.5-1.08-1.14-1.08-.56,0-.98,.38-.98,.88s.26,.68,1.14,.92c1.04,.26,1.4,.6,1.4,1.29,0,.77-.55,1.27-1.42,1.27-.52,0-.86-.13-1.27-.47l-.06,.38h-.22v-1.34h.22c.06,.72,.54,1.14,1.28,1.14s1.14-.36,1.14-1.01c0-.52-.26-.76-1.08-.98l-.44-.12c-.7-.19-1.02-.53-1.02-1.06,0-.71,.58-1.19,1.4-1.19,.48,0,.74,.12,1.04,.48v-.4h.24Z"/><path class="cls-5" d="M313.72,145.21l1.59,2.02h.7v.28h-1.69v-.28h.58l-1.37-1.78-1.49,1.78h.66v.28h-1.67v-.28h.61l1.68-2.02-1.52-1.91h-.59v-.28h1.68v.28h-.67l1.31,1.64,1.37-1.64h-.66v-.28h1.69v.28h-.61l-1.59,1.91Z"/></g></g><rect class="cls-23" x="357.76" y="135.44" width="28" height="14" rx=".01" ry=".01"/><rect class="cls-23" x="389.76" y="135.44" width="14" height="14" rx=".01" ry=".01"/><rect class="cls-23" x="407.76" y="135.44" width="14" height="14" rx=".01" ry=".01"/><rect class="cls-23" x="425.76" y="135.44" width="14" height="14" rx=".01" ry=".01"/><rect class="cls-23" x="443.76" y="135.44" width="14" height="14" rx=".01" ry=".01"/><path id="BIN-4" class="cls-6" d="M429.76,139.82c0-.21,.17-.38,.37-.38h1.87v-.37c0-.21,.17-.37,.37-.37h.75c.21,0,.37,.17,.37,.37v.37h1.87c.21,0,.38,.17,.38,.38v.37h-6v-.37Zm5.62,1.12v4.62c0,.21-.17,.37-.37,.37h-4.5c-.21,0-.37-.17-.37-.37v-5h5.25v.37Zm-3.75,.75c0-.21-.17-.37-.37-.37s-.37,.17-.37,.37v3.12c0,.21,.17,.38,.37,.38s.37-.17,.37-.38v-3.12Zm1.5,0c0-.21-.17-.37-.37-.37s-.37,.17-.37,.37v3.12c0,.21,.17,.38,.37,.38s.37-.17,.37-.38v-3.12Zm1.5,0c0-.21-.17-.37-.38-.37s-.37,.17-.37,.37v3.12c0,.21,.17,.38,.37,.38s.38-.17,.38-.38v-3.12Z"/><path id="ARROW___UP-4" class="cls-6" d="M394.8,143.69l1.96-1.96,1.99,1.99h0c.07,.06,.16,.11,.26,.11,.21,0,.37-.17,.37-.37,0-.1-.04-.19-.11-.26h0l-2.25-2.25h0c-.07-.07-.16-.11-.27-.11h0c-.11,0-.2,.04-.27,.11h0l-2.25,2.25h0c-.06,.07-.1,.16-.1,.26,0,.21,.17,.37,.37,.37,.11,0,.22-.05,.28-.13Z"/><path id="ARROW___DOWN-4" class="cls-6" d="M412.8,141.57l1.96,1.96,1.99-1.99h0c.07-.06,.16-.11,.26-.11,.21,0,.37,.17,.37,.37,0,.1-.04,.19-.11,.26h0l-2.25,2.25h0c-.07,.07-.16,.11-.27,.11h0c-.11,0-.2-.04-.27-.11h0l-2.25-2.25h0c-.06-.07-.1-.16-.1-.26,0-.21,.17-.37,.37-.37,.11,0,.22,.05,.28,.13Z"/><path id="PLUS-4" class="cls-6" d="M453.26,142.69h-2.12v2.12c0,.21-.17,.38-.37,.38s-.37-.17-.37-.38v-2.12h-2.12c-.21,0-.37-.17-.37-.37s.17-.38,.37-.38h2.12v-2.12c0-.21,.17-.38,.37-.38s.37,.17,.37,.38v2.12h2.12c.21,0,.38,.17,.38,.38s-.17,.37-.38,.37Z"/><path id="MORE_2-4" class="cls-6" d="M369.31,144.35c.46,0,.84,.38,.84,.84s-.38,.84-.84,.84-.84-.38-.84-.84,.38-.84,.84-.84Zm2.66,0c.46,0,.84,.38,.84,.84s-.38,.84-.84,.84-.84-.38-.84-.84,.38-.84,.84-.84Zm2.66,0c.46,0,.84,.38,.84,.84s-.38,.84-.84,.84-.84-.38-.84-.84,.38-.84,.84-.84Z"/></g><g id="Line-8"><g><path class="cls-5" d="M30.01,157.5h1.82c.89,0,1.46,.19,1.88,.62,.37,.38,.58,.89,.58,1.46,0,.91-.53,1.7-1.31,1.97-.29,.1-.7,.16-1.08,.16h-.9v3.51h.77v.28h-1.76v-.28h.68v-7.44h-.68v-.29Zm1,3.92h.77c.82,0,1.18-.08,1.56-.38,.41-.32,.64-.83,.64-1.42,0-1.19-.74-1.83-2.09-1.83h-.88v3.63Z"/><path class="cls-5" d="M38.84,165.5v-.79c-.46,.62-.89,.88-1.49,.88-.88,0-1.52-.65-1.52-1.54v-2.75h-.67v-.28h1v2.83c0,.95,.42,1.44,1.22,1.44,.55,0,1.1-.36,1.33-.89,.08-.2,.13-.49,.13-.88v-2.23h-.66v-.28h.98v4.2h.67v.28h-1Z"/><path class="cls-5" d="M44.07,161.02v1.27h-.24c-.12-.71-.5-1.08-1.14-1.08-.56,0-.98,.38-.98,.88s.26,.68,1.14,.92c1.04,.26,1.4,.6,1.4,1.29,0,.77-.55,1.27-1.42,1.27-.52,0-.86-.13-1.27-.47l-.06,.38h-.22v-1.34h.22c.06,.72,.54,1.14,1.28,1.14s1.14-.36,1.14-1.01c0-.52-.26-.76-1.08-.98l-.44-.12c-.7-.19-1.02-.53-1.02-1.06,0-.71,.58-1.19,1.4-1.19,.48,0,.74,.12,1.04,.48v-.4h.24Z"/><path class="cls-5" d="M46.47,157.5v4.31c.47-.61,.89-.86,1.49-.86,.89,0,1.52,.65,1.52,1.54v2.75h.67v.28h-1.63v-.28h.65v-2.55c0-.95-.43-1.45-1.24-1.45-.55,0-1.09,.37-1.32,.9-.1,.2-.14,.49-.14,.88v2.23h.66v.28h-1.65v-.28h.68v-7.44h-.68v-.29h1Z"/><path class="cls-5" d="M58.78,163.41v2.09h-3.85v-.28h.68v-7.44h-.68v-.29h1.71v.29h-.71v7.44h2.45l.19-1.81h.2Z"/><path class="cls-5" d="M60.12,161.92v-.64c.44-.26,.78-.35,1.38-.35,1.09,0,1.64,.46,1.64,1.36v2.93h.68v.28h-1v-.52c-.41,.4-.88,.6-1.4,.6-.85,0-1.49-.64-1.49-1.48s.66-1.5,1.57-1.5c.54,0,.91,.19,1.32,.66v-.97c0-.68-.47-1.08-1.27-1.08-.76,0-1.1,.22-1.15,.71h-.29Zm.12,2.21c0,.66,.55,1.16,1.26,1.16s1.35-.52,1.35-1.13c0-.71-.6-1.27-1.35-1.27s-1.26,.5-1.26,1.24Z"/><path class="cls-5" d="M66.58,165.09l1.56-3.79h-.66v-.28h1.64v.28h-.66l-2.51,6.12h1.22v.28h-1.68l.9-2.19-1.61-4.2h-.61v-.28h1.62v.28h-.67l1.45,3.79Z"/><path class="cls-5" d="M73.6,163.21h-3.69c.04,1.28,.75,2.09,1.85,2.09,.8,0,1.37-.4,1.54-1.1h.31v.36c-.5,.7-1.09,1.03-1.88,1.03-1.24,0-2.16-1.02-2.16-2.36s.88-2.28,2.04-2.28,2,.9,2,2.27Zm-.3-.28c-.02-.97-.75-1.71-1.69-1.71s-1.55,.66-1.7,1.71h3.39Z"/><path class="cls-5" d="M75.89,161.02v1.02c.42-.78,.95-1.12,1.73-1.13v.38c-.1-.01-.16-.01-.22-.01-.98,0-1.51,.74-1.51,2.16v1.78h.65v.28h-1.64v-.28h.68v-3.92h-.68v-.28h1Z"/><path class="cls-5" d="M81.23,161.02v1.27h-.24c-.12-.71-.5-1.08-1.14-1.08-.56,0-.98,.38-.98,.88s.26,.68,1.14,.92c1.04,.26,1.4,.6,1.4,1.29,0,.77-.55,1.27-1.42,1.27-.52,0-.86-.13-1.27-.47l-.06,.38h-.22v-1.34h.22c.06,.72,.54,1.14,1.28,1.14s1.14-.36,1.14-1.01c0-.52-.26-.76-1.08-.98l-.44-.12c-.7-.19-1.02-.53-1.02-1.06,0-.71,.58-1.19,1.4-1.19,.48,0,.74,.12,1.04,.48v-.4h.24Z"/><path class="cls-5" d="M90.19,157.5v7.72h.68v.28h-1.01v-.89c-.54,.66-1.13,.97-1.86,.97-1.24,0-2.19-1.01-2.19-2.33s.93-2.31,2.19-2.31c.82,0,1.37,.3,1.86,1v-4.15h-.67v-.29h1Zm-4.09,5.76c0,1.16,.83,2.04,1.91,2.04s1.87-.8,1.87-1.99c0-1.25-.74-2.09-1.85-2.09s-1.93,.86-1.93,2.04Z"/><path class="cls-5" d="M92.05,163.25c0-1.29,1.02-2.31,2.34-2.31s2.33,1.02,2.33,2.31-1.02,2.33-2.33,2.33-2.34-1.02-2.34-2.33Zm.35,0c0,1.14,.9,2.06,1.99,2.06s1.99-.92,1.99-2.06-.9-2.05-1.99-2.05-1.99,.92-1.99,2.05Z"/><path class="cls-5" d="M101.15,161.02l1.33,4.01,1.5-3.73h-.66v-.28h1.57v.28h-.56l-1.7,4.2h-.32l-1.29-3.9-1.25,3.9h-.36l-1.69-4.2h-.62v-.28h1.59v.28h-.62l1.51,3.78,1.29-4.05h.29Z"/><path class="cls-5" d="M106.62,161.02v.78c.47-.61,.89-.86,1.49-.86,.89,0,1.52,.65,1.52,1.54v2.75h.67v.28h-1.63v-.28h.65v-2.55c0-.95-.43-1.45-1.24-1.45-.55,0-1.09,.37-1.32,.9-.1,.2-.14,.49-.14,.88v2.23h.66v.28h-1.66v-.28h.68v-3.92h-.68v-.28h1Z"/><path class="cls-5" d="M115.41,165.22v-7.44h-.67v-.29h1v4.49c.49-.74,1.02-1.04,1.83-1.04,1.32,0,2.23,.94,2.23,2.3s-.88,2.34-2.18,2.34c-.83,0-1.32-.29-1.88-1.08v1h-1v-.28h.67Zm.31-1.99s-.01,.08-.01,.13c0,1.1,.83,1.93,1.91,1.93s1.86-.85,1.86-2.03-.79-2.05-1.91-2.05c-1.06,0-1.79,.79-1.85,2.01Z"/><path class="cls-5" d="M122.61,165.09l1.56-3.79h-.66v-.28h1.64v.28h-.66l-2.51,6.12h1.22v.28h-1.68l.9-2.19-1.61-4.2h-.61v-.28h1.62v.28h-.67l1.45,3.79Z"/><path class="cls-5" d="M128.86,163.25c0-1.29,1.02-2.31,2.34-2.31s2.33,1.02,2.33,2.31-1.02,2.33-2.33,2.33-2.34-1.02-2.34-2.33Zm.35,0c0,1.14,.9,2.06,1.99,2.06s1.99-.92,1.99-2.06-.9-2.05-1.99-2.05-1.99,.92-1.99,2.05Z"/><path class="cls-5" d="M135.82,161.02v.78c.47-.61,.89-.86,1.49-.86,.89,0,1.52,.65,1.52,1.54v2.75h.67v.28h-1.63v-.28h.65v-2.55c0-.95-.43-1.45-1.24-1.45-.55,0-1.09,.37-1.32,.9-.1,.2-.14,.49-.14,.88v2.23h.66v.28h-1.66v-.28h.68v-3.92h-.68v-.28h1Z"/><path class="cls-5" d="M144.79,163.21h-3.69c.04,1.28,.75,2.09,1.85,2.09,.8,0,1.37-.4,1.54-1.1h.31v.36c-.5,.7-1.09,1.03-1.88,1.03-1.24,0-2.16-1.02-2.16-2.36s.88-2.28,2.04-2.28,2,.9,2,2.27Zm-.3-.28c-.02-.97-.75-1.71-1.69-1.71s-1.55,.66-1.7,1.71h3.39Z"/></g><g><rect class="cls-19" x="155.17" y="154.17" width="41" height="14"/><path class="cls-5" d="M164.72,161.02h.98v.28h-.65v6h.72v.28h-1.7v-.28h.65v-2.79c-.5,.75-1.07,1.08-1.88,1.08-1.24,0-2.18-1-2.18-2.28,0-1.38,.91-2.36,2.18-2.36,.78,0,1.37,.32,1.88,1.02v-.94Zm.02,2.17c0-1.14-.8-1.98-1.91-1.98s-1.86,.86-1.86,2.06,.83,2.01,1.93,2.01,1.83-.89,1.83-2.1Z"/></g><rect class="cls-22" x="13.67" y="155.67" width="11" height="11"/><rect class="cls-5" x="17.17" y="159.17" width="4" height="4"/><g><rect class="cls-19" x="199.17" y="154.17" width="155" height="14"/><g><path class="cls-5" d="M209.27,165.28c0-.17,.13-.3,.3-.3,.16,0,.3,.13,.3,.3s-.14,.3-.3,.3c-.17,0-.3-.13-.3-.3Z"/><path class="cls-5" d="M212.25,165.28c0-.17,.13-.3,.3-.3,.16,0,.3,.13,.3,.3s-.14,.3-.3,.3c-.17,0-.3-.13-.3-.3Z"/><path class="cls-5" d="M219.11,157.52l-4.7,9.65-.29-.13,4.7-9.67,.29,.14Z"/><path class="cls-5" d="M220.87,165.28c0-.17,.13-.3,.3-.3,.16,0,.3,.13,.3,.3s-.14,.3-.3,.3c-.17,0-.3-.13-.3-.3Z"/><path class="cls-5" d="M223.85,165.28c0-.17,.13-.3,.3-.3,.16,0,.3,.13,.3,.3s-.14,.3-.3,.3c-.17,0-.3-.13-.3-.3Z"/><path class="cls-5" d="M230.71,157.52l-4.7,9.65-.29-.13,4.7-9.67,.29,.14Z"/><path class="cls-5" d="M232.48,165.28c0-.17,.13-.3,.3-.3,.16,0,.3,.13,.3,.3s-.14,.3-.3,.3c-.17,0-.3-.13-.3-.3Z"/><path class="cls-5" d="M235.45,165.28c0-.17,.13-.3,.3-.3,.16,0,.3,.13,.3,.3s-.14,.3-.3,.3c-.17,0-.3-.13-.3-.3Z"/><path class="cls-5" d="M242.31,157.52l-4.7,9.65-.29-.13,4.7-9.67,.29,.14Z"/><path class="cls-5" d="M244.52,161.02v.94c.52-.7,1.12-1.02,1.88-1.02,1.27,0,2.18,.98,2.18,2.36,0,1.28-.95,2.28-2.18,2.28-.82,0-1.38-.32-1.88-1.08v2.79h.65v.28h-1.7v-.28h.72v-6h-.65v-.28h.98Zm-.02,2.17c0,1.21,.78,2.1,1.85,2.1s1.92-.86,1.92-2.01-.78-2.06-1.86-2.06-1.91,.84-1.91,1.98Z"/><path class="cls-5" d="M250.04,161.92v-.64c.44-.26,.78-.35,1.38-.35,1.09,0,1.64,.46,1.64,1.36v2.93h.68v.28h-1v-.52c-.41,.4-.88,.6-1.4,.6-.85,0-1.49-.64-1.49-1.48s.66-1.5,1.57-1.5c.54,0,.91,.19,1.32,.66v-.97c0-.68-.47-1.08-1.27-1.08-.76,0-1.1,.22-1.15,.71h-.29Zm.12,2.21c0,.66,.55,1.16,1.26,1.16s1.35-.52,1.35-1.13c0-.71-.6-1.27-1.35-1.27s-1.26,.5-1.26,1.24Z"/><path class="cls-5" d="M255.91,159.39v1.63h.92v.28h-.92v3.38c0,.43,.13,.61,.42,.61,.16,0,.26-.04,.5-.19v.31c-.24,.13-.35,.17-.54,.17-.48,0-.71-.29-.71-.9v-3.38h-.63v-.28h.63v-1.45l.32-.18Z"/><path class="cls-5" d="M259.05,157.5v4.31c.47-.61,.89-.86,1.49-.86,.89,0,1.52,.65,1.52,1.54v2.75h.67v.28h-1.63v-.28h.65v-2.55c0-.95-.43-1.45-1.24-1.45-.55,0-1.09,.37-1.32,.9-.1,.2-.14,.49-.14,.88v2.23h.66v.28h-1.65v-.28h.68v-7.44h-.68v-.29h1Z"/><path class="cls-5" d="M268.79,157.5v1.87h-.24l-.11-1.58h-2.05v7.44h.73v.28h-1.74v-.28h.68v-7.44h-2.03l-.13,1.58h-.22v-1.87h5.1Z"/><path class="cls-5" d="M268.89,163.25c0-1.29,1.02-2.31,2.34-2.31s2.33,1.02,2.33,2.31-1.02,2.33-2.33,2.33-2.34-1.02-2.34-2.33Zm.35,0c0,1.14,.9,2.06,1.99,2.06s1.99-.92,1.99-2.06-.9-2.05-1.99-2.05-1.99,.92-1.99,2.05Z"/><path class="cls-5" d="M278.76,157.5v2.11h-.23c-.07-.73-.23-1.13-.56-1.45-.29-.28-.73-.46-1.13-.46-.92,0-1.56,.68-1.56,1.66,0,.36,.08,.66,.26,.94,.25,.4,.65,.66,1.45,1,1.03,.43,1.4,.66,1.68,1.03,.22,.3,.34,.72,.34,1.16,0,1.21-.86,2.1-2.05,2.1-.7,0-1.16-.24-1.73-.88l-.1,.73h-.22v-2.06h.22c.06,.73,.24,1.12,.68,1.49,.34,.29,.73,.43,1.15,.43,1,0,1.71-.77,1.71-1.81,0-.36-.08-.71-.25-.95-.24-.36-.58-.58-1.5-.95-.88-.35-1.33-.66-1.63-1.08-.23-.31-.35-.68-.35-1.13,0-1.15,.77-1.96,1.87-1.96,.66,0,1.16,.26,1.61,.86l.1-.79h.23Z"/><path class="cls-5" d="M284.3,161.02v1.49h-.31c-.07-.82-.62-1.29-1.5-1.29-1.07,0-1.8,.82-1.8,1.99s.79,2.09,1.82,2.09c.92,0,1.46-.43,1.47-1.17h.31v.54c-.48,.6-1.1,.92-1.8,.92-1.22,0-2.13-1-2.13-2.31s.89-2.33,2.16-2.33c.64,0,1.08,.18,1.46,.59l.08-.5h.23Z"/><path class="cls-5" d="M286.6,161.02v1.02c.42-.78,.95-1.12,1.73-1.13v.38c-.1-.01-.16-.01-.22-.01-.98,0-1.51,.74-1.51,2.16v1.78h.65v.28h-1.64v-.28h.68v-3.92h-.68v-.28h1Z"/><path class="cls-5" d="M290.16,161.02v4.2h.68v.28h-1.67v-.28h.66v-3.92h-.66v-.28h.98Zm-.47-2c0-.18,.14-.32,.32-.32s.32,.14,.32,.32-.14,.32-.32,.32-.32-.14-.32-.32Z"/><path class="cls-5" d="M293.2,161.02v.94c.52-.7,1.12-1.02,1.88-1.02,1.27,0,2.18,.98,2.18,2.36,0,1.28-.95,2.28-2.18,2.28-.82,0-1.38-.32-1.88-1.08v2.79h.65v.28h-1.7v-.28h.72v-6h-.65v-.28h.98Zm-.02,2.17c0,1.21,.78,2.1,1.85,2.1s1.92-.86,1.92-2.01-.78-2.06-1.86-2.06-1.91,.84-1.91,1.98Z"/><path class="cls-5" d="M299.39,159.39v1.63h.92v.28h-.92v3.38c0,.43,.13,.61,.42,.61,.16,0,.26-.04,.5-.19v.31c-.24,.13-.35,.17-.54,.17-.48,0-.71-.29-.71-.9v-3.38h-.63v-.28h.63v-1.45l.32-.18Z"/><path class="cls-5" d="M302.25,165.28c0-.17,.13-.3,.3-.3,.16,0,.3,.13,.3,.3s-.14,.3-.3,.3c-.17,0-.3-.13-.3-.3Z"/><path class="cls-5" d="M305.7,161.02v5.22c0,.84-.32,1.33-1.01,1.51v-.34c.46-.12,.68-.53,.68-1.19v-4.93h-.68v-.28h1.01Zm-.59-2c0-.18,.14-.32,.32-.32s.32,.14,.32,.32-.14,.32-.32,.32-.32-.14-.32-.32Z"/><path class="cls-5" d="M310.18,161.02v1.27h-.24c-.12-.71-.5-1.08-1.14-1.08-.56,0-.98,.38-.98,.88s.26,.68,1.14,.92c1.04,.26,1.4,.6,1.4,1.29,0,.77-.55,1.27-1.42,1.27-.52,0-.86-.13-1.27-.47l-.06,.38h-.22v-1.34h.22c.06,.72,.54,1.14,1.28,1.14s1.14-.36,1.14-1.01c0-.52-.26-.76-1.08-.98l-.44-.12c-.7-.19-1.02-.53-1.02-1.06,0-.71,.58-1.19,1.4-1.19,.48,0,.74,.12,1.04,.48v-.4h.24Z"/><path class="cls-5" d="M313.72,163.21l1.59,2.02h.7v.28h-1.69v-.28h.58l-1.37-1.78-1.49,1.78h.66v.28h-1.67v-.28h.61l1.68-2.02-1.52-1.91h-.59v-.28h1.68v.28h-.67l1.31,1.64,1.37-1.64h-.66v-.28h1.69v.28h-.61l-1.59,1.91Z"/></g></g><rect class="cls-23" x="357.76" y="153.44" width="28" height="14" rx=".01" ry=".01"/><rect class="cls-23" x="389.76" y="153.44" width="14" height="14" rx=".01" ry=".01"/><rect class="cls-23" x="407.76" y="153.44" width="14" height="14" rx=".01" ry=".01"/><rect class="cls-23" x="425.76" y="153.44" width="14" height="14" rx=".01" ry=".01"/><rect class="cls-23" x="443.76" y="153.44" width="14" height="14" rx=".01" ry=".01"/><path id="BIN-5" class="cls-6" d="M429.76,157.82c0-.21,.17-.38,.37-.38h1.87v-.37c0-.21,.17-.37,.37-.37h.75c.21,0,.37,.17,.37,.37v.37h1.87c.21,0,.38,.17,.38,.38v.37h-6v-.37Zm5.62,1.12v4.62c0,.21-.17,.37-.37,.37h-4.5c-.21,0-.37-.17-.37-.37v-5h5.25v.37Zm-3.75,.75c0-.21-.17-.37-.37-.37s-.37,.17-.37,.37v3.12c0,.21,.17,.38,.37,.38s.37-.17,.37-.38v-3.12Zm1.5,0c0-.21-.17-.37-.37-.37s-.37,.17-.37,.37v3.12c0,.21,.17,.38,.37,.38s.37-.17,.37-.38v-3.12Zm1.5,0c0-.21-.17-.37-.38-.37s-.37,.17-.37,.37v3.12c0,.21,.17,.38,.37,.38s.38-.17,.38-.38v-3.12Z"/><path id="ARROW___UP-5" class="cls-6" d="M394.8,161.69l1.96-1.96,1.99,1.99h0c.07,.06,.16,.11,.26,.11,.21,0,.37-.17,.37-.37,0-.1-.04-.19-.11-.26h0l-2.25-2.25h0c-.07-.07-.16-.11-.27-.11h0c-.11,0-.2,.04-.27,.11h0l-2.25,2.25h0c-.06,.07-.1,.16-.1,.26,0,.21,.17,.37,.37,.37,.11,0,.22-.05,.28-.13Z"/><path id="ARROW___DOWN-5" class="cls-6" d="M412.8,159.57l1.96,1.96,1.99-1.99h0c.07-.06,.16-.11,.26-.11,.21,0,.37,.17,.37,.37,0,.1-.04,.19-.11,.26h0l-2.25,2.25h0c-.07,.07-.16,.11-.27,.11h0c-.11,0-.2-.04-.27-.11h0l-2.25-2.25h0c-.06-.07-.1-.16-.1-.26,0-.21,.17-.37,.37-.37,.11,0,.22,.05,.28,.13Z"/><path id="PLUS-5" class="cls-6" d="M453.26,160.69h-2.12v2.12c0,.21-.17,.38-.37,.38s-.37-.17-.37-.38v-2.12h-2.12c-.21,0-.37-.17-.37-.37s.17-.38,.37-.38h2.12v-2.12c0-.21,.17-.38,.37-.38s.37,.17,.37,.38v2.12h2.12c.21,0,.38,.17,.38,.38s-.17,.37-.38,.37Z"/><path id="MORE_2-5" class="cls-6" d="M369.31,162.35c.46,0,.84,.38,.84,.84s-.38,.84-.84,.84-.84-.38-.84-.84,.38-.84,.84-.84Zm2.66,0c.46,0,.84,.38,.84,.84s-.38,.84-.84,.84-.84-.38-.84-.84,.38-.84,.84-.84Zm2.66,0c.46,0,.84,.38,.84,.84s-.38,.84-.84,.84-.84-.38-.84-.84,.38-.84,.84-.84Z"/></g><g id="Line-9"><g><path class="cls-5" d="M30.01,175.5h1.82c.89,0,1.46,.19,1.88,.62,.37,.38,.58,.89,.58,1.46,0,.91-.53,1.7-1.31,1.97-.29,.1-.7,.16-1.08,.16h-.9v3.51h.77v.28h-1.76v-.28h.68v-7.44h-.68v-.29Zm1,3.92h.77c.82,0,1.18-.08,1.56-.38,.41-.32,.64-.83,.64-1.42,0-1.19-.74-1.83-2.09-1.83h-.88v3.63Z"/><path class="cls-5" d="M38.84,183.5v-.79c-.46,.62-.89,.88-1.49,.88-.88,0-1.52-.65-1.52-1.54v-2.75h-.67v-.28h1v2.83c0,.95,.42,1.44,1.22,1.44,.55,0,1.1-.36,1.33-.89,.08-.2,.13-.49,.13-.88v-2.23h-.66v-.28h.98v4.2h.67v.28h-1Z"/><path class="cls-5" d="M44.07,179.02v1.27h-.24c-.12-.71-.5-1.08-1.14-1.08-.56,0-.98,.38-.98,.88s.26,.68,1.14,.92c1.04,.26,1.4,.6,1.4,1.29,0,.77-.55,1.27-1.42,1.27-.52,0-.86-.13-1.27-.47l-.06,.38h-.22v-1.34h.22c.06,.72,.54,1.14,1.28,1.14s1.14-.36,1.14-1.01c0-.52-.26-.76-1.08-.98l-.44-.12c-.7-.19-1.02-.53-1.02-1.06,0-.71,.58-1.19,1.4-1.19,.48,0,.74,.12,1.04,.48v-.4h.24Z"/><path class="cls-5" d="M46.47,175.5v4.31c.47-.61,.89-.86,1.49-.86,.89,0,1.52,.65,1.52,1.54v2.75h.67v.28h-1.63v-.28h.65v-2.55c0-.95-.43-1.45-1.24-1.45-.55,0-1.09,.37-1.32,.9-.1,.2-.14,.49-.14,.88v2.23h.66v.28h-1.65v-.28h.68v-7.44h-.68v-.29h1Z"/><path class="cls-5" d="M55.57,175.5v7.72h.68v.28h-1.67v-.28h.67v-7.44h-.67v-.29h.98Z"/><path class="cls-5" d="M57.7,179.92v-.64c.44-.26,.78-.35,1.38-.35,1.09,0,1.64,.46,1.64,1.36v2.93h.68v.28h-1v-.52c-.41,.4-.88,.6-1.4,.6-.85,0-1.49-.64-1.49-1.48s.66-1.5,1.57-1.5c.54,0,.91,.19,1.32,.66v-.97c0-.68-.47-1.08-1.27-1.08-.76,0-1.1,.22-1.15,.71h-.29Zm.12,2.21c0,.66,.55,1.16,1.26,1.16s1.35-.52,1.35-1.13c0-.71-.6-1.27-1.35-1.27s-1.26,.5-1.26,1.24Z"/><path class="cls-5" d="M64.16,183.09l1.56-3.79h-.66v-.28h1.64v.28h-.66l-2.51,6.12h1.22v.28h-1.68l.9-2.19-1.61-4.2h-.61v-.28h1.62v.28h-.67l1.45,3.79Z"/><path class="cls-5" d="M71.17,181.21h-3.69c.04,1.28,.75,2.09,1.85,2.09,.8,0,1.37-.4,1.54-1.1h.31v.36c-.5,.7-1.09,1.03-1.88,1.03-1.24,0-2.16-1.02-2.16-2.36s.88-2.28,2.04-2.28,2,.9,2,2.27Zm-.3-.28c-.02-.97-.75-1.71-1.69-1.71s-1.55,.66-1.7,1.71h3.39Z"/><path class="cls-5" d="M73.47,179.02v1.02c.42-.78,.95-1.12,1.73-1.13v.38c-.1-.01-.16-.01-.22-.01-.98,0-1.51,.74-1.51,2.16v1.78h.65v.28h-1.64v-.28h.68v-3.92h-.68v-.28h1Z"/><path class="cls-5" d="M78.81,179.02v1.27h-.24c-.12-.71-.5-1.08-1.14-1.08-.56,0-.98,.38-.98,.88s.26,.68,1.14,.92c1.04,.26,1.4,.6,1.4,1.29,0,.77-.55,1.27-1.42,1.27-.52,0-.86-.13-1.27-.47l-.06,.38h-.22v-1.34h.22c.06,.72,.54,1.14,1.28,1.14s1.14-.36,1.14-1.01c0-.52-.26-.76-1.08-.98l-.44-.12c-.7-.19-1.02-.53-1.02-1.06,0-.71,.58-1.19,1.4-1.19,.48,0,.74,.12,1.04,.48v-.4h.24Z"/><path class="cls-5" d="M86.99,183.5v-.79c-.46,.62-.89,.88-1.49,.88-.88,0-1.52-.65-1.52-1.54v-2.75h-.67v-.28h1v2.83c0,.95,.42,1.44,1.22,1.44,.55,0,1.1-.36,1.33-.89,.08-.2,.13-.49,.13-.88v-2.23h-.66v-.28h.98v4.2h.67v.28h-1Z"/><path class="cls-5" d="M90.33,179.02v.94c.52-.7,1.12-1.02,1.88-1.02,1.27,0,2.18,.98,2.18,2.36,0,1.28-.95,2.28-2.18,2.28-.82,0-1.38-.32-1.88-1.08v2.79h.65v.28h-1.7v-.28h.72v-6h-.65v-.28h.98Zm-.02,2.17c0,1.21,.78,2.1,1.85,2.1s1.92-.86,1.92-2.01-.78-2.06-1.86-2.06-1.91,.84-1.91,1.98Z"/><path class="cls-5" d="M99.41,183.22v-7.44h-.67v-.29h1v4.49c.49-.74,1.02-1.04,1.83-1.04,1.32,0,2.23,.94,2.23,2.3s-.88,2.34-2.18,2.34c-.83,0-1.32-.29-1.88-1.08v1h-1v-.28h.67Zm.31-1.99s-.01,.08-.01,.13c0,1.1,.83,1.93,1.91,1.93s1.86-.85,1.86-2.03-.79-2.05-1.91-2.05c-1.06,0-1.79,.79-1.85,2.01Z"/><path class="cls-5" d="M106.61,183.09l1.56-3.79h-.66v-.28h1.64v.28h-.66l-2.51,6.12h1.22v.28h-1.68l.9-2.19-1.61-4.2h-.61v-.28h1.62v.28h-.67l1.45,3.79Z"/><path class="cls-5" d="M112.87,181.25c0-1.29,1.02-2.31,2.34-2.31s2.33,1.02,2.33,2.31-1.02,2.33-2.33,2.33-2.34-1.02-2.34-2.33Zm.35,0c0,1.14,.9,2.06,1.99,2.06s1.99-.92,1.99-2.06-.9-2.05-1.99-2.05-1.99,.92-1.99,2.05Z"/><path class="cls-5" d="M119.83,179.02v.78c.47-.61,.89-.86,1.49-.86,.89,0,1.52,.65,1.52,1.54v2.75h.67v.28h-1.63v-.28h.65v-2.55c0-.95-.43-1.45-1.24-1.45-.55,0-1.09,.37-1.32,.9-.1,.2-.14,.49-.14,.88v2.23h.66v.28h-1.66v-.28h.68v-3.92h-.68v-.28h1Z"/><path class="cls-5" d="M128.8,181.21h-3.69c.04,1.28,.75,2.09,1.85,2.09,.8,0,1.37-.4,1.54-1.1h.31v.36c-.5,.7-1.09,1.03-1.88,1.03-1.24,0-2.16-1.02-2.16-2.36s.88-2.28,2.04-2.28,2,.9,2,2.27Zm-.3-.28c-.02-.97-.75-1.71-1.69-1.71s-1.55,.66-1.7,1.71h3.39Z"/></g><g><rect class="cls-19" x="155.17" y="172.17" width="41" height="14"/><path class="cls-5" d="M164.09,179.02l1.33,4.01,1.5-3.73h-.66v-.28h1.57v.28h-.56l-1.7,4.2h-.32l-1.29-3.9-1.25,3.9h-.36l-1.69-4.2h-.62v-.28h1.59v.28h-.62l1.51,3.78,1.29-4.05h.29Z"/></g><rect class="cls-22" x="13.67" y="173.67" width="11" height="11"/><rect class="cls-5" x="17.17" y="177.17" width="4" height="4"/><g><rect class="cls-19" x="199.17" y="172.17" width="155" height="14"/><g><path class="cls-5" d="M209.27,183.28c0-.17,.13-.3,.3-.3,.16,0,.3,.13,.3,.3s-.14,.3-.3,.3c-.17,0-.3-.13-.3-.3Z"/><path class="cls-5" d="M212.25,183.28c0-.17,.13-.3,.3-.3,.16,0,.3,.13,.3,.3s-.14,.3-.3,.3c-.17,0-.3-.13-.3-.3Z"/><path class="cls-5" d="M219.11,175.52l-4.7,9.65-.29-.13,4.7-9.67,.29,.14Z"/><path class="cls-5" d="M220.87,183.28c0-.17,.13-.3,.3-.3,.16,0,.3,.13,.3,.3s-.14,.3-.3,.3c-.17,0-.3-.13-.3-.3Z"/><path class="cls-5" d="M223.85,183.28c0-.17,.13-.3,.3-.3,.16,0,.3,.13,.3,.3s-.14,.3-.3,.3c-.17,0-.3-.13-.3-.3Z"/><path class="cls-5" d="M230.71,175.52l-4.7,9.65-.29-.13,4.7-9.67,.29,.14Z"/><path class="cls-5" d="M232.48,183.28c0-.17,.13-.3,.3-.3,.16,0,.3,.13,.3,.3s-.14,.3-.3,.3c-.17,0-.3-.13-.3-.3Z"/><path class="cls-5" d="M235.45,183.28c0-.17,.13-.3,.3-.3,.16,0,.3,.13,.3,.3s-.14,.3-.3,.3c-.17,0-.3-.13-.3-.3Z"/><path class="cls-5" d="M242.31,175.52l-4.7,9.65-.29-.13,4.7-9.67,.29,.14Z"/><path class="cls-5" d="M244.52,179.02v.94c.52-.7,1.12-1.02,1.88-1.02,1.27,0,2.18,.98,2.18,2.36,0,1.28-.95,2.28-2.18,2.28-.82,0-1.38-.32-1.88-1.08v2.79h.65v.28h-1.7v-.28h.72v-6h-.65v-.28h.98Zm-.02,2.17c0,1.21,.78,2.1,1.85,2.1s1.92-.86,1.92-2.01-.78-2.06-1.86-2.06-1.91,.84-1.91,1.98Z"/><path class="cls-5" d="M250.04,179.92v-.64c.44-.26,.78-.35,1.38-.35,1.09,0,1.64,.46,1.64,1.36v2.93h.68v.28h-1v-.52c-.41,.4-.88,.6-1.4,.6-.85,0-1.49-.64-1.49-1.48s.66-1.5,1.57-1.5c.54,0,.91,.19,1.32,.66v-.97c0-.68-.47-1.08-1.27-1.08-.76,0-1.1,.22-1.15,.71h-.29Zm.12,2.21c0,.66,.55,1.16,1.26,1.16s1.35-.52,1.35-1.13c0-.71-.6-1.27-1.35-1.27s-1.26,.5-1.26,1.24Z"/><path class="cls-5" d="M255.91,177.39v1.63h.92v.28h-.92v3.38c0,.43,.13,.61,.42,.61,.16,0,.26-.04,.5-.19v.31c-.24,.13-.35,.17-.54,.17-.48,0-.71-.29-.71-.9v-3.38h-.63v-.28h.63v-1.45l.32-.18Z"/><path class="cls-5" d="M259.05,175.5v4.31c.47-.61,.89-.86,1.49-.86,.89,0,1.52,.65,1.52,1.54v2.75h.67v.28h-1.63v-.28h.65v-2.55c0-.95-.43-1.45-1.24-1.45-.55,0-1.09,.37-1.32,.9-.1,.2-.14,.49-.14,.88v2.23h.66v.28h-1.65v-.28h.68v-7.44h-.68v-.29h1Z"/><path class="cls-5" d="M268.79,175.5v1.87h-.24l-.11-1.58h-2.05v7.44h.73v.28h-1.74v-.28h.68v-7.44h-2.03l-.13,1.58h-.22v-1.87h5.1Z"/><path class="cls-5" d="M268.89,181.25c0-1.29,1.02-2.31,2.34-2.31s2.33,1.02,2.33,2.31-1.02,2.33-2.33,2.33-2.34-1.02-2.34-2.33Zm.35,0c0,1.14,.9,2.06,1.99,2.06s1.99-.92,1.99-2.06-.9-2.05-1.99-2.05-1.99,.92-1.99,2.05Z"/><path class="cls-5" d="M278.76,175.5v2.11h-.23c-.07-.73-.23-1.13-.56-1.45-.29-.28-.73-.46-1.13-.46-.92,0-1.56,.68-1.56,1.66,0,.36,.08,.66,.26,.94,.25,.4,.65,.66,1.45,1,1.03,.43,1.4,.66,1.68,1.03,.22,.3,.34,.72,.34,1.16,0,1.21-.86,2.1-2.05,2.1-.7,0-1.16-.24-1.73-.88l-.1,.73h-.22v-2.06h.22c.06,.73,.24,1.12,.68,1.49,.34,.29,.73,.43,1.15,.43,1,0,1.71-.77,1.71-1.81,0-.36-.08-.71-.25-.95-.24-.36-.58-.58-1.5-.95-.88-.35-1.33-.66-1.63-1.08-.23-.31-.35-.68-.35-1.13,0-1.15,.77-1.96,1.87-1.96,.66,0,1.16,.26,1.61,.86l.1-.79h.23Z"/><path class="cls-5" d="M284.3,179.02v1.49h-.31c-.07-.82-.62-1.29-1.5-1.29-1.07,0-1.8,.82-1.8,1.99s.79,2.09,1.82,2.09c.92,0,1.46-.43,1.47-1.17h.31v.54c-.48,.6-1.1,.92-1.8,.92-1.22,0-2.13-1-2.13-2.31s.89-2.33,2.16-2.33c.64,0,1.08,.18,1.46,.59l.08-.5h.23Z"/><path class="cls-5" d="M286.6,179.02v1.02c.42-.78,.95-1.12,1.73-1.13v.38c-.1-.01-.16-.01-.22-.01-.98,0-1.51,.74-1.51,2.16v1.78h.65v.28h-1.64v-.28h.68v-3.92h-.68v-.28h1Z"/><path class="cls-5" d="M290.16,179.02v4.2h.68v.28h-1.67v-.28h.66v-3.92h-.66v-.28h.98Zm-.47-2c0-.18,.14-.32,.32-.32s.32,.14,.32,.32-.14,.32-.32,.32-.32-.14-.32-.32Z"/><path class="cls-5" d="M293.2,179.02v.94c.52-.7,1.12-1.02,1.88-1.02,1.27,0,2.18,.98,2.18,2.36,0,1.28-.95,2.28-2.18,2.28-.82,0-1.38-.32-1.88-1.08v2.79h.65v.28h-1.7v-.28h.72v-6h-.65v-.28h.98Zm-.02,2.17c0,1.21,.78,2.1,1.85,2.1s1.92-.86,1.92-2.01-.78-2.06-1.86-2.06-1.91,.84-1.91,1.98Z"/><path class="cls-5" d="M299.39,177.39v1.63h.92v.28h-.92v3.38c0,.43,.13,.61,.42,.61,.16,0,.26-.04,.5-.19v.31c-.24,.13-.35,.17-.54,.17-.48,0-.71-.29-.71-.9v-3.38h-.63v-.28h.63v-1.45l.32-.18Z"/><path class="cls-5" d="M302.25,183.28c0-.17,.13-.3,.3-.3,.16,0,.3,.13,.3,.3s-.14,.3-.3,.3c-.17,0-.3-.13-.3-.3Z"/><path class="cls-5" d="M305.7,179.02v5.22c0,.84-.32,1.33-1.01,1.51v-.34c.46-.12,.68-.53,.68-1.19v-4.93h-.68v-.28h1.01Zm-.59-2c0-.18,.14-.32,.32-.32s.32,.14,.32,.32-.14,.32-.32,.32-.32-.14-.32-.32Z"/><path class="cls-5" d="M310.18,179.02v1.27h-.24c-.12-.71-.5-1.08-1.14-1.08-.56,0-.98,.38-.98,.88s.26,.68,1.14,.92c1.04,.26,1.4,.6,1.4,1.29,0,.77-.55,1.27-1.42,1.27-.52,0-.86-.13-1.27-.47l-.06,.38h-.22v-1.34h.22c.06,.72,.54,1.14,1.28,1.14s1.14-.36,1.14-1.01c0-.52-.26-.76-1.08-.98l-.44-.12c-.7-.19-1.02-.53-1.02-1.06,0-.71,.58-1.19,1.4-1.19,.48,0,.74,.12,1.04,.48v-.4h.24Z"/><path class="cls-5" d="M313.72,181.21l1.59,2.02h.7v.28h-1.69v-.28h.58l-1.37-1.78-1.49,1.78h.66v.28h-1.67v-.28h.61l1.68-2.02-1.52-1.91h-.59v-.28h1.68v.28h-.67l1.31,1.64,1.37-1.64h-.66v-.28h1.69v.28h-.61l-1.59,1.91Z"/></g></g><rect class="cls-23" x="357.76" y="171.44" width="28" height="14" rx=".01" ry=".01"/><rect class="cls-23" x="389.76" y="171.44" width="14" height="14" rx=".01" ry=".01"/><rect class="cls-24" x="407.76" y="171.44" width="14" height="14" rx=".01" ry=".01"/><rect class="cls-23" x="425.76" y="171.44" width="14" height="14" rx=".01" ry=".01"/><rect class="cls-23" x="443.76" y="171.44" width="14" height="14" rx=".01" ry=".01"/><path id="BIN-6" class="cls-6" d="M429.76,175.82c0-.21,.17-.38,.37-.38h1.87v-.37c0-.21,.17-.37,.37-.37h.75c.21,0,.37,.17,.37,.37v.37h1.87c.21,0,.38,.17,.38,.38v.37h-6v-.37Zm5.62,1.12v4.62c0,.21-.17,.37-.37,.37h-4.5c-.21,0-.37-.17-.37-.37v-5h5.25v.37Zm-3.75,.75c0-.21-.17-.37-.37-.37s-.37,.17-.37,.37v3.12c0,.21,.17,.38,.37,.38s.37-.17,.37-.38v-3.12Zm1.5,0c0-.21-.17-.37-.37-.37s-.37,.17-.37,.37v3.12c0,.21,.17,.38,.37,.38s.37-.17,.37-.38v-3.12Zm1.5,0c0-.21-.17-.37-.38-.37s-.37,.17-.37,.37v3.12c0,.21,.17,.38,.37,.38s.38-.17,.38-.38v-3.12Z"/><path id="ARROW___UP-6" class="cls-6" d="M394.8,179.69l1.96-1.96,1.99,1.99h0c.07,.06,.16,.11,.26,.11,.21,0,.37-.17,.37-.37,0-.1-.04-.19-.11-.26h0l-2.25-2.25h0c-.07-.07-.16-.11-.27-.11h0c-.11,0-.2,.04-.27,.11h0l-2.25,2.25h0c-.06,.07-.1,.16-.1,.26,0,.21,.17,.37,.37,.37,.11,0,.22-.05,.28-.13Z"/><path id="ARROW___DOWN-6" class="cls-25" d="M412.8,177.57l1.96,1.96,1.99-1.99h0c.07-.06,.16-.11,.26-.11,.21,0,.37,.17,.37,.37,0,.1-.04,.19-.11,.26h0l-2.25,2.25h0c-.07,.07-.16,.11-.27,.11h0c-.11,0-.2-.04-.27-.11h0l-2.25-2.25h0c-.06-.07-.1-.16-.1-.26,0-.21,.17-.37,.37-.37,.11,0,.22,.05,.28,.13Z"/><path id="PLUS-6" class="cls-6" d="M453.26,178.69h-2.12v2.12c0,.21-.17,.38-.37,.38s-.37-.17-.37-.38v-2.12h-2.12c-.21,0-.37-.17-.37-.37s.17-.38,.37-.38h2.12v-2.12c0-.21,.17-.38,.37-.38s.37,.17,.37,.38v2.12h2.12c.21,0,.38,.17,.38,.38s-.17,.37-.38,.37Z"/><path id="MORE_2-6" class="cls-6" d="M369.31,180.35c.46,0,.84,.38,.84,.84s-.38,.84-.84,.84-.84-.38-.84-.84,.38-.84,.84-.84Zm2.66,0c.46,0,.84,.38,.84,.84s-.38,.84-.84,.84-.84-.38-.84-.84,.38-.84,.84-.84Zm2.66,0c.46,0,.84,.38,.84,.84s-.38,.84-.84,.84-.84-.38-.84-.84,.38-.84,.84-.84Z"/></g></g></svg>