<?xml version="1.0" encoding="UTF-8"?><svg id="Layer_2" xmlns="http://www.w3.org/2000/svg" viewBox="0 0 161.67 105.67"><defs><style>.cls-1{fill:#01bcd4;}.cls-2{fill:#03a9f4;}.cls-3{fill:#019688;}.cls-4{fill:#ff5722;}.cls-5{fill:#fff;}.cls-6{fill:#ffeb3b;}.cls-7{fill:#f44336;}.cls-8{fill:#efc64a;}.cls-9{fill:#ffc107;}.cls-10{fill:#e91e63;}.cls-11{fill:#ff9801;}.cls-12{fill:#673ab7;}.cls-13{fill:#8bc34a;}.cls-14{fill:#cddc39;}.cls-15{fill:#2196f3;}.cls-16{fill:#3f51b5;}.cls-17{fill:#9c27b0;}.cls-18{fill:#262626;}.cls-19{fill:#4caf50;}.cls-20{fill:#404040;stroke:#378fe9;stroke-miterlimit:10;}</style></defs><g id="Swatch_editor"><polygon class="cls-20" points=".5 .5 .5 105.17 161.17 105.17 161.17 32.5 123.83 32.5 123.83 .5 .5 .5"/><g><path class="cls-8" d="M19.6,11.49v3.46h-.86c-.13-.99-.36-1.53-.81-1.96-.41-.4-1.04-.63-1.62-.63-1.15,0-1.96,.83-1.96,2.02,0,1.06,.67,1.69,2.75,2.58,1.39,.59,1.85,.88,2.29,1.46,.4,.52,.59,1.17,.59,1.96,0,1.93-1.42,3.33-3.38,3.33-1.03,0-1.71-.32-2.63-1.24l-.25,.99h-.7v-3.48h.86c.11,1.04,.32,1.55,.94,2.05,.47,.41,1.04,.63,1.64,.63,1.3,0,2.27-.97,2.27-2.23,0-.5-.14-.97-.43-1.33-.34-.41-.76-.67-2-1.19-2.36-.95-3.19-1.85-3.19-3.42,0-1.82,1.31-3.17,3.08-3.17,1.01,0,1.82,.38,2.56,1.24l.18-1.06h.68Z"/><path class="cls-8" d="M27.36,16.46l1.91,5.33,1.4-3.58,.11-.27c.04-.09,.05-.18,.05-.23,0-.18-.18-.29-.49-.29h-.38v-.95h2.75v.95c-.77,.05-.9,.16-1.28,1.06l-2.18,5.02h-.61l-1.84-5.17-1.67,5.17h-.72l-2.58-6.09h-.94v-.95h3.13v.95h-.99l1.8,4.38,1.84-5.33h.67Z"/><path class="cls-8" d="M34.09,18.2v-1.57h.22c.13,.02,.23,.02,.29,.02,.07,0,.18-.02,.38-.07,.65-.2,1.13-.27,1.75-.27,1.75,0,2.79,.83,2.79,2.21v4.02h.92v.95h-2.05v-.77c-.68,.63-1.37,.9-2.21,.9-1.39,0-2.41-.97-2.41-2.29s1.1-2.38,2.58-2.38c.79,0,1.3,.22,2.05,.86v-1.03c0-1.03-.67-1.62-1.78-1.62-.99,0-1.51,.32-1.67,1.03h-.83Zm4.29,2.7c-.63-.83-1.1-1.12-1.85-1.12-.96,0-1.67,.63-1.67,1.49s.74,1.53,1.71,1.53c.79,0,1.41-.38,1.82-1.1v-.81Z"/><path class="cls-8" d="M44.17,13.96v2.5h1.35v.95h-1.35v4.23c0,.68,.2,.97,.61,.97,.23,0,.4-.05,.74-.27v1.01c-.47,.22-.67,.27-1.04,.27-.94,0-1.44-.5-1.44-1.44v-4.77h-.94v-.95h.94v-1.98l1.13-.52Z"/><path class="cls-8" d="M53.43,16.46v2.61h-.86c-.11-1.01-.99-1.75-2.12-1.75-1.4,0-2.39,1.08-2.39,2.58s1.08,2.72,2.52,2.72c1.22,0,1.93-.56,2-1.6h.86v1.3c-.72,.86-1.75,1.31-2.95,1.31-2.11,0-3.64-1.51-3.64-3.64s1.44-3.67,3.48-3.67c.95,0,1.69,.27,2.25,.85l.31-.7h.56Z"/><path class="cls-8" d="M57.09,11.49v6.07c.63-.86,1.31-1.24,2.27-1.24,1.49,0,2.47,.99,2.47,2.5v3.73h.95v.95h-2.09v-4.21c0-1.31-.56-1.98-1.66-1.98-1.19,0-1.95,.88-1.95,2.3v2.94h.94v.95h-3.02v-.95h.95V12.46h-.95v-.97h2.09Z"/><path class="cls-8" d="M75.72,20.06h-5.46c.04,1.67,.99,2.7,2.48,2.7,1.26,0,1.8-.43,1.91-1.49h1.06v.88c-.5,.94-1.62,1.48-3.01,1.48-2.12,0-3.62-1.51-3.62-3.66s1.44-3.66,3.44-3.66,3.19,1.42,3.19,3.62v.13Zm-1.06-.74c-.13-1.3-.99-2.16-2.14-2.16s-2,.83-2.23,2.16h4.38Z"/><path class="cls-8" d="M84.54,11.49v11.06h.95v.95h-2.09v-1.08c-.88,.86-1.66,1.21-2.7,1.21-2,0-3.51-1.57-3.51-3.67s1.44-3.64,3.49-3.64c1.17,0,1.98,.38,2.72,1.22v-5.08h-1.03v-.97h2.16Zm-6.19,8.46c0,1.53,1.1,2.7,2.56,2.7s2.52-1.1,2.52-2.7-1.03-2.72-2.5-2.72-2.58,1.15-2.58,2.72Z"/><path class="cls-8" d="M89.38,16.46v6.09h.95v.95h-3.04v-.95h.94v-5.15h-.94v-.94h2.09Zm-.85-3.69c.36,0,.65,.27,.65,.59,0,.36-.27,.65-.59,.65-.36,0-.65-.27-.65-.61s.25-.63,.59-.63Z"/><path class="cls-8" d="M94.15,13.96v2.5h1.35v.95h-1.35v4.23c0,.68,.2,.97,.61,.97,.23,0,.4-.05,.74-.27v1.01c-.47,.22-.67,.27-1.04,.27-.94,0-1.44-.5-1.44-1.44v-4.77h-.94v-.95h.94v-1.98l1.13-.52Z"/><path class="cls-8" d="M96.79,19.97c0-2.03,1.64-3.66,3.69-3.66s3.67,1.62,3.67,3.66-1.62,3.66-3.67,3.66-3.69-1.62-3.69-3.66Zm1.19,0c0,1.46,1.12,2.63,2.5,2.63s2.5-1.17,2.5-2.63-1.12-2.61-2.5-2.61-2.5,1.17-2.5,2.61Z"/><path class="cls-8" d="M107.93,16.46v1.49c.68-1.22,1.28-1.64,2.45-1.69v1.15c-.23-.04-.36-.04-.49-.04-1.28,0-1.96,.92-1.96,2.61v2.56h.96v.95h-3.04v-.95h.95v-5.13h-.95v-.95h2.09Z"/></g><g id="Colors_copy"><rect class="cls-7" x="13.26" y="42.94" width="8.69" height="10"/><rect class="cls-10" x="21.95" y="42.94" width="8.69" height="10"/><rect class="cls-17" x="30.64" y="42.94" width="8.69" height="10"/><rect class="cls-12" x="39.32" y="42.94" width="8.69" height="10"/><rect class="cls-16" x="48.01" y="42.94" width="8.69" height="10"/><rect class="cls-15" x="56.7" y="42.94" width="8.69" height="10"/><rect class="cls-2" x="65.39" y="42.94" width="8.69" height="10"/><rect class="cls-1" x="74.07" y="42.94" width="8.69" height="10"/><rect class="cls-3" x="82.76" y="42.94" width="8.69" height="10"/><rect class="cls-19" x="91.45" y="42.94" width="8.69" height="10"/><rect class="cls-13" x="100.14" y="42.94" width="8.69" height="10"/><rect class="cls-14" x="108.82" y="42.94" width="8.69" height="10"/><rect class="cls-6" x="117.51" y="42.94" width="8.69" height="10"/><rect class="cls-9" x="126.2" y="42.94" width="8.69" height="10"/><rect class="cls-11" x="134.89" y="42.94" width="8.69" height="10"/><rect class="cls-4" x="143.57" y="42.94" width="8.69" height="10"/></g><g id="Line"><g><path class="cls-5" d="M20.13,74.39v1.07c-.76,.62-1.47,.9-2.41,.9-2.35,0-4.02-1.68-4.02-4.03s1.58-4.14,3.74-4.14c.47,0,.92,.07,1.34,.22,.49,.17,.68,.31,1.07,.77v-.75h.28v1.88h-.17c-.08-.68-.28-1.06-.74-1.37-.46-.3-1.01-.46-1.69-.46-2.08,0-3.51,1.58-3.51,3.87s1.56,3.72,3.79,3.72c.78,0,1.58-.3,1.92-.74,.14-.19,.22-.47,.24-.94h.17Z"/><path class="cls-5" d="M21.24,74.03c0-1.29,1.02-2.31,2.34-2.31s2.33,1.02,2.33,2.31-1.02,2.33-2.33,2.33-2.34-1.02-2.34-2.33Zm.35,0c0,1.14,.9,2.06,1.99,2.06s1.99-.92,1.99-2.06-.9-2.05-1.99-2.05-1.99,.92-1.99,2.05Z"/><path class="cls-5" d="M28.07,68.27v7.72h.68v.28h-1.67v-.28h.67v-7.44h-.67v-.29h.98Z"/><path class="cls-5" d="M29.92,74.03c0-1.29,1.02-2.31,2.34-2.31s2.33,1.02,2.33,2.31-1.02,2.33-2.33,2.33-2.34-1.02-2.34-2.33Zm.35,0c0,1.14,.9,2.06,1.99,2.06s1.99-.92,1.99-2.06-.9-2.05-1.99-2.05-1.99,.92-1.99,2.05Z"/><path class="cls-5" d="M36.88,71.8v1.02c.42-.78,.95-1.12,1.73-1.13v.38c-.1-.01-.16-.01-.22-.01-.98,0-1.51,.74-1.51,2.16v1.78h.65v.28h-1.64v-.28h.68v-3.92h-.68v-.28h1Z"/></g><rect class="cls-18" x="59.26" y="64.94" width="61" height="14"/><g><path class="cls-5" d="M70.54,73.24l-.05,.31h-1.4l-.4,2.72h-.34l.41-2.72h-2.1l-.41,2.72h-.32l.41-2.72h-1.44l.05-.31h1.44l.31-2.09h-1.44l.04-.31h1.44l.4-2.57h.32l-.38,2.57h2.1l.38-2.57h.34l-.38,2.57h1.39l-.05,.31h-1.39l-.31,2.09h1.39Zm-1.42-2.09h-2.1l-.31,2.09h2.11l.3-2.09Z"/><path class="cls-5" d="M74.6,76.36c-1.42,0-2.35-1.62-2.35-4.08s.94-4.08,2.35-4.08,2.35,1.62,2.35,4.08-.94,4.08-2.35,4.08Zm-.05-.29c1.19,0,2.08-1.62,2.08-3.81s-.85-3.78-2.03-3.78-2.04,1.58-2.04,3.8,.85,3.79,1.99,3.79Z"/><path class="cls-5" d="M78.37,68.27h4.44v.29l-2.6,2.75c.14-.01,.26-.02,.34-.02,1.29,0,2.29,1.04,2.29,2.41,0,1.52-1.07,2.66-2.51,2.66-.64,0-1.14-.18-1.96-.67v-.44c.72,.59,1.29,.83,1.97,.83,1.25,0,2.17-1.01,2.17-2.4,0-1.22-.84-2.09-2-2.09-.28,0-.44,.02-.84,.14v-.29l2.75-2.88h-2.58c-1.07,0-1.16,.08-1.2,1.02,0,.07,0,.18-.01,.34h-.25v-1.64Z"/><path class="cls-5" d="M87.31,68.27l2.7,7.72h.79v.28h-1.83v-.28h.72l-.89-2.55h-3.19l-.71,2.03-.07,.2c-.02,.07-.04,.12-.04,.17,0,.11,.08,.16,.26,.16h.42v.28h-1.81v-.28h.3c.3,0,.4-.06,.49-.28l.07-.2,.05-.13,2.4-6.82h-.82v-.29h1.15Zm1.4,4.94l-1.52-4.33-1.51,4.33h3.03Z"/><path class="cls-5" d="M92.6,76.36l2.42-4.02c-.48,.32-.88,.46-1.39,.46-1.26,0-2.27-.96-2.27-2.16,0-1.31,1.03-2.36,2.31-2.36s2.32,1,2.32,2.25c0,.4-.12,.84-.34,1.27-.13,.26-.32,.61-.56,1.02l-2.12,3.54h-.37Zm3.07-5.89c0-1.07-.91-1.91-2.05-1.91-1.07,0-1.93,.91-1.93,2.04s.85,1.92,1.94,1.92,2.04-.89,2.04-2.05Z"/><path class="cls-5" d="M102.3,68.27v1.82h-.23l-.12-1.54h-3.14v3.42h1.99v-.89h.26v2.16h-.26v-.98h-1.99v3.73h.78v.28h-1.83v-.28h.73v-7.44h-.73v-.29h4.54Z"/><path class="cls-5" d="M106.88,68.27v5.23h1.21v.28h-1.21v2.22h1.02v.28h-2.3v-.28h.96v-2.22h-3.21v-.23l3.27-5.28h.26Zm-.32,5.23v-4.58l-2.85,4.58h2.85Z"/></g><rect class="cls-2" x="123.26" y="64.94" width="29" height="14"/></g><g id="Line-2"><g><path class="cls-5" d="M15.1,86.27l4.77,7.23v-6.6c0-.31-.06-.35-.47-.35h-.31v-.29h1.8v.29h-.24c-.41,0-.47,.04-.47,.35v7.36h-.18l-4.88-7.38v6.75c0,.3,.06,.35,.47,.35h.3v.28h-1.79v-.28h.24c.41,0,.47-.05,.47-.35v-7.09h-.71v-.29h1Z"/><path class="cls-5" d="M22.36,90.7v-.64c.44-.26,.78-.35,1.38-.35,1.09,0,1.64,.46,1.64,1.36v2.93h.68v.28h-1v-.52c-.41,.4-.88,.6-1.4,.6-.85,0-1.49-.64-1.49-1.48s.66-1.5,1.57-1.5c.54,0,.91,.19,1.32,.66v-.97c0-.68-.47-1.08-1.27-1.08-.76,0-1.1,.22-1.15,.71h-.29Zm.12,2.21c0,.66,.55,1.16,1.26,1.16s1.35-.52,1.35-1.13c0-.71-.6-1.27-1.35-1.27s-1.26,.5-1.26,1.24Z"/><path class="cls-5" d="M28.33,89.8v.85c.38-.61,.89-.94,1.45-.94,.6,0,1.1,.37,1.28,.94,.38-.65,.82-.94,1.4-.94,.8,0,1.32,.61,1.32,1.55v2.74h.65v.28h-1.54v-.28h.58v-2.66c0-.86-.38-1.34-1.07-1.34-.83,0-1.34,.68-1.34,1.77v2.23h.56v.28h-1.46v-.28h.59v-2.76c0-.76-.43-1.25-1.1-1.25-.47,0-.91,.32-1.13,.79-.16,.32-.19,.56-.19,1.18v2.04h.59v.28h-1.54v-.28h.64v-3.92h-.64v-.28h.95Z"/><path class="cls-5" d="M39.73,91.98h-3.69c.04,1.28,.75,2.09,1.85,2.09,.8,0,1.37-.4,1.54-1.1h.31v.36c-.5,.7-1.09,1.03-1.88,1.03-1.24,0-2.16-1.02-2.16-2.36s.88-2.28,2.04-2.28,2,.9,2,2.27Zm-.3-.28c-.02-.97-.75-1.71-1.69-1.71s-1.55,.66-1.7,1.71h3.39Z"/></g><rect class="cls-18" x="59.26" y="82.94" width="93" height="14"/><g><path class="cls-5" d="M68.95,92.19v2.09h-3.85v-.28h.68v-7.44h-.68v-.29h1.71v.29h-.71v7.44h2.45l.19-1.81h.2Z"/><path class="cls-5" d="M71.11,89.8v4.2h.68v.28h-1.67v-.28h.66v-3.92h-.66v-.28h.98Zm-.47-2c0-.18,.14-.32,.32-.32s.32,.14,.32,.32-.14,.32-.32,.32-.32-.14-.32-.32Z"/><path class="cls-5" d="M77.18,89.8h1v.28h-.68v4.31c0,1.23-.86,2.05-2.18,2.05-.77,0-1.45-.34-1.76-.86-.13-.24-.18-.4-.23-.82h.32c.13,.91,.73,1.4,1.74,1.4,1.08,0,1.8-.64,1.8-1.59v-1.22c-.59,.73-1.12,1.02-1.87,1.02-1.26,0-2.22-1-2.22-2.29s.93-2.35,2.21-2.35c.8,0,1.28,.26,1.88,1.04v-.96Zm-3.78,2.24c0,1.14,.83,2.03,1.88,2.03s1.91-.88,1.91-2.03-.85-2.05-1.94-2.05-1.85,.9-1.85,2.05Z"/><path class="cls-5" d="M80.34,86.27v4.31c.47-.61,.89-.86,1.49-.86,.89,0,1.52,.65,1.52,1.54v2.75h.67v.28h-1.63v-.28h.65v-2.55c0-.95-.43-1.45-1.24-1.45-.55,0-1.09,.37-1.32,.9-.1,.2-.14,.49-.14,.88v2.23h.66v.28h-1.65v-.28h.68v-7.44h-.68v-.29h1Z"/><path class="cls-5" d="M86.23,88.17v1.63h.92v.28h-.92v3.38c0,.43,.13,.61,.42,.61,.16,0,.26-.04,.5-.19v.31c-.24,.13-.35,.17-.54,.17-.48,0-.71-.29-.71-.9v-3.38h-.63v-.28h.63v-1.45l.32-.18Z"/><path class="cls-5" d="M92.33,94v-7.44h-.67v-.29h1v4.49c.49-.74,1.02-1.04,1.83-1.04,1.32,0,2.23,.94,2.23,2.3s-.88,2.34-2.18,2.34c-.83,0-1.32-.29-1.88-1.08v1h-1v-.28h.67Zm.31-1.99s-.01,.08-.01,.13c0,1.1,.83,1.93,1.91,1.93s1.86-.85,1.86-2.03-.79-2.05-1.91-2.05c-1.06,0-1.79,.79-1.85,2.01Z"/><path class="cls-5" d="M98.87,86.27v7.72h.68v.28h-1.67v-.28h.67v-7.44h-.67v-.29h.98Z"/><path class="cls-5" d="M104.31,94.27v-.79c-.46,.62-.89,.88-1.49,.88-.88,0-1.52-.65-1.52-1.54v-2.75h-.67v-.28h1v2.83c0,.95,.42,1.44,1.22,1.44,.55,0,1.1-.36,1.33-.89,.08-.2,.13-.49,.13-.88v-2.23h-.66v-.28h.98v4.2h.67v.28h-1Z"/><path class="cls-5" d="M110.64,91.98h-3.69c.04,1.28,.75,2.09,1.85,2.09,.8,0,1.37-.4,1.54-1.1h.31v.36c-.5,.7-1.09,1.03-1.88,1.03-1.24,0-2.16-1.02-2.16-2.36s.88-2.28,2.04-2.28,2,.9,2,2.27Zm-.3-.28c-.02-.97-.75-1.71-1.69-1.71s-1.55,.66-1.7,1.71h3.39Z"/></g></g></g></svg>